<svg width="190" height="150" viewBox="0 0 190 150" fill="none" xmlns="http://www.w3.org/2000/svg">
<path d="M105.506 150C152.171 150 190 129.478 190 104.164C190 78.8494 152.171 58.3279 105.506 58.3279C58.8415 58.3279 21.0123 78.8494 21.0123 104.164C21.0123 129.478 58.8415 150 105.506 150Z" fill="#F5F5F5"/>
<path d="M58.1632 7.08638L55.1254 8.73077C55.143 8.6062 55.1515 8.48066 55.1511 8.35501V7.52764C55.1511 6.05562 54.0504 5.45923 52.7003 6.19696C52.1146 6.53135 51.6137 6.98198 51.2327 7.5173C51.0126 5.66952 49.468 4.98004 47.5932 5.99701C45.5643 7.09672 43.9244 9.78911 43.9244 11.9713V13.2089C43.9117 13.7018 44.0184 14.191 44.2362 14.6395L41.7157 16.0185C41.3195 16.2608 40.9898 16.5875 40.7533 16.9721C40.5168 17.3566 40.3802 17.7882 40.3546 18.2317C40.3546 19.0487 40.9636 19.3797 41.7157 18.9729L58.1632 10.0373C58.5594 9.79501 58.8891 9.46831 59.1256 9.08375C59.3621 8.69918 59.4987 8.26762 59.5243 7.82411C59.5243 7.00709 58.9153 6.67614 58.1632 7.08638Z" fill="#EBEBEB"/>
<path d="M71.1509 15.3945L68.8616 16.6356C68.8732 16.5417 68.8793 16.4473 68.8799 16.3529V15.7289C68.8799 14.6189 68.0508 14.1707 67.0271 14.7257C66.5876 14.9787 66.212 15.3187 65.9265 15.722C65.7577 14.3431 64.591 13.8053 63.1785 14.574C62.3716 15.0679 61.6999 15.7336 61.218 16.517C60.7361 17.3005 60.4575 18.1796 60.4049 19.0832V20.0174C60.3969 20.389 60.4771 20.7576 60.6397 21.0964L58.7392 22.1306C58.4404 22.3141 58.1917 22.561 58.0132 22.8514C57.8347 23.1419 57.7315 23.4677 57.7119 23.8026C57.7119 24.4197 58.1705 24.6679 58.7392 24.3611L71.1509 17.6284C71.4498 17.445 71.6985 17.1981 71.8769 16.9076C72.0554 16.6171 72.1586 16.2913 72.1782 15.9564C72.1782 15.3359 71.7196 15.0877 71.1509 15.3945Z" fill="#EBEBEB"/>
<path d="M51.7977 119.967L55.5877 117.898C55.5877 117.898 56.5159 110.276 55.8958 104.374C55.03 96.0799 49.3286 86.1033 42.5265 88.444C35.7244 90.7848 45.6414 99.2549 47.8427 106.284C50.044 113.313 51.7977 119.967 51.7977 119.967Z" fill="#01B6EB"/>
<path opacity="0.2" d="M51.7977 119.967L55.5877 117.898C55.5877 117.898 56.5159 110.276 55.8958 104.374C55.03 96.0799 49.3286 86.1033 42.5265 88.444C35.7244 90.7848 45.6414 99.2549 47.8427 106.284C50.044 113.313 51.7977 119.967 51.7977 119.967Z" fill="black"/>
<path d="M53.7899 119.101C53.76 119.1 53.7306 119.094 53.7034 119.082C53.6761 119.071 53.6516 119.054 53.6312 119.034C53.6107 119.013 53.5948 118.989 53.5842 118.963C53.5737 118.937 53.5688 118.909 53.5698 118.881C54.2338 100.448 44.471 91.1777 44.3719 91.0881C44.3462 91.0692 44.3251 91.0455 44.3099 91.0184C44.2947 90.9913 44.2858 90.9614 44.2837 90.9309C44.2817 90.9003 44.2865 90.8697 44.2979 90.841C44.3094 90.8123 44.3271 90.7862 44.35 90.7644C44.373 90.7426 44.4005 90.7256 44.4309 90.7146C44.4613 90.7035 44.4939 90.6986 44.5264 90.7002C44.559 90.7018 44.5908 90.7099 44.6198 90.7238C44.6489 90.7378 44.6744 90.7574 44.6948 90.7813C44.7938 90.8709 54.6998 100.279 54.0284 118.894C54.0274 118.923 54.0205 118.951 54.0079 118.977C53.9954 119.002 53.9775 119.026 53.9553 119.045C53.9331 119.064 53.907 119.079 53.8786 119.089C53.8502 119.098 53.8201 119.103 53.7899 119.101Z" fill="white"/>
<path d="M49.7762 121.439L52.4728 119.977C52.4728 119.977 52.9314 114.747 50.2018 108.39C47.8244 102.875 41.9322 98.2724 38.9677 99.2342C36.0033 100.196 36.073 102.175 37.5002 104.247C38.9274 106.319 47.762 111.259 49.7762 121.439Z" fill="#01B6EB"/>
<path d="M51.1997 120.884C51.1384 120.884 51.0796 120.861 51.0363 120.82C50.9929 120.779 50.9686 120.724 50.9686 120.666C51.0236 109.014 39.3786 101.137 39.2612 101.058C39.2198 101.023 39.1936 100.974 39.1877 100.922C39.1818 100.87 39.1967 100.817 39.2293 100.775C39.262 100.732 39.3103 100.702 39.3649 100.691C39.4195 100.679 39.4766 100.687 39.5254 100.713C39.6428 100.792 51.4822 108.801 51.4272 120.677C51.4253 120.732 51.4005 120.785 51.358 120.823C51.3155 120.862 51.2588 120.884 51.1997 120.884Z" fill="white"/>
<path d="M122.541 105.24L99.06 117.995L99.005 117.967L90.0713 113.117C89.2939 112.648 88.6765 111.978 88.2927 111.188C87.9089 110.399 87.7749 109.522 87.9067 108.663L91.2086 92.4877L114.689 79.7325L111.387 95.9075C111.256 96.7668 111.39 97.6436 111.773 98.4333C112.157 99.223 112.775 99.8923 113.552 100.362L122.541 105.24Z" fill="#37474F"/>
<path d="M91.2197 92.4877L87.9324 108.521L111.42 95.7834L114.458 80.9529L112.976 80.6737L91.2197 92.4877Z" fill="#263238"/>
<path d="M99.0527 117.991L90.0676 113.117C89.2909 112.647 88.674 111.977 88.2903 111.188C87.9066 110.398 87.7721 109.522 87.903 108.663L91.205 92.4877L87.2903 90.3607L83.504 108.866C83.0014 111.314 84.4726 114.337 86.7693 115.582L99.0416 122.238L99.0527 117.991Z" fill="#263238"/>
<path d="M122.541 105.24L99.0526 117.991V122.242L122.541 109.49V105.24Z" fill="#455A64"/>
<path d="M145.518 0.422641C146.597 1.00869 147.474 2.49105 147.474 3.74934V71.4761C147.434 72.1565 147.225 72.8185 146.862 73.4085C146.499 73.9985 145.994 74.4998 145.386 74.8718L55.5467 123.614C54.3947 124.238 52.5823 124.269 51.511 123.683C50.4397 123.097 49.5518 121.614 49.5518 120.356V52.6294C49.5915 51.9486 49.8011 51.2862 50.1638 50.6957C50.5264 50.1052 51.0319 49.6032 51.6394 49.2303L141.471 0.491587C142.623 -0.135832 144.436 -0.166857 145.518 0.422641Z" fill="#455A64"/>
<path d="M55.2978 123.731C54.1458 124.238 52.5058 124.228 51.4969 123.683C50.4146 123.097 49.5377 121.614 49.5377 120.356V52.6294C49.5638 51.9463 49.7747 51.2807 50.1504 50.6954L54.0798 52.8225C53.7037 53.4064 53.4928 54.0709 53.4671 54.753V122.48C53.4561 123.642 54.2595 124.162 55.2978 123.731Z" fill="#263238"/>
<path d="M147.474 71.4761V3.76313C147.474 2.51174 146.542 2.00498 145.387 2.62895L55.5473 51.3573C54.9397 51.7293 54.434 52.2306 54.0713 52.8206C53.7086 53.4106 53.4991 54.0726 53.4597 54.753V122.48C53.4597 123.731 54.3953 124.238 55.5473 123.614L145.387 74.8718C145.994 74.4998 146.5 73.9985 146.863 73.4085C147.225 72.8185 147.435 72.1565 147.474 71.4761Z" fill="#37474F"/>
<path d="M142.888 6.07286L57.0845 52.6466C56.5986 52.9443 56.1943 53.3454 55.9043 53.8174C55.6142 54.2894 55.4467 54.819 55.4152 55.3632V115.495C55.4152 116.495 56.1489 116.902 57.0845 116.402L142.892 69.8283C143.378 69.5306 143.782 69.1295 144.072 68.6575C144.362 68.1855 144.53 67.656 144.561 67.1118V6.97951C144.561 5.97978 143.813 5.57299 142.888 6.07286Z" fill="#01B6EB"/>
<path opacity="0.8" d="M142.888 6.07286L57.0845 52.6466C56.5986 52.9443 56.1943 53.3454 55.9043 53.8174C55.6142 54.2894 55.4467 54.819 55.4152 55.3632V115.495C55.4152 116.495 56.1489 116.902 57.0845 116.402L142.892 69.8283C143.378 69.5306 143.782 69.1295 144.072 68.6575C144.362 68.1855 144.53 67.656 144.561 67.1118V6.97951C144.561 5.97978 143.813 5.57299 142.888 6.07286Z" fill="white"/>
<path d="M61.5313 109.007C61.0763 109.007 60.7975 108.663 60.7975 108.073V60.4515L139.172 17.9387V65.3605C139.141 65.8658 138.985 66.3574 138.715 66.7956C138.446 67.2339 138.07 67.6066 137.62 67.884L62.1733 108.818C61.9804 108.932 61.7592 108.998 61.5313 109.007Z" fill="#F5F5F5"/>
<path d="M138.988 18.242V65.3674C138.957 65.8437 138.808 66.3067 138.553 66.7196C138.299 67.1325 137.945 67.484 137.521 67.7461L62.0815 108.67C61.916 108.768 61.7266 108.825 61.5312 108.835C61.0396 108.835 60.9882 108.304 60.9882 108.073V60.5514L138.988 18.242ZM139.355 17.6456L60.6213 60.3584V108.073C60.6213 108.763 60.9882 109.18 61.5312 109.18C61.7917 109.171 62.0449 109.097 62.265 108.966L137.708 68.0391C138.187 67.7459 138.586 67.3505 138.873 66.885C139.159 66.4196 139.324 65.8973 139.355 65.3605V17.6387V17.6456Z" fill="#E0E0E0"/>
<path d="M60.6213 60.3515V67.0497L139.355 24.337V17.6387L60.6213 60.3515Z" fill="#01B6EB"/>
<path d="M110.023 36.1683V37.6093C110.023 37.9023 110.246 38.023 110.518 37.8782L134.732 24.7437V22.241L110.518 35.3754C110.376 35.4627 110.257 35.5797 110.171 35.7173C110.085 35.8548 110.034 36.0092 110.023 36.1683Z" fill="#FAFAFA"/>
<path d="M137.319 20.8344C137.59 20.6862 137.81 20.8069 137.81 21.1033V22.5443C137.801 22.7049 137.751 22.8611 137.666 23.0006C137.58 23.14 137.462 23.2588 137.319 23.3476L134.725 24.7541V22.241L137.319 20.8344Z" fill="#455A64"/>
<path d="M137.124 22.8098L136.838 22.727C136.867 22.6141 136.882 22.4984 136.882 22.3823C136.895 22.2725 136.878 22.1615 136.832 22.0599C136.785 21.9584 136.712 21.8699 136.618 21.8031C136.554 21.7669 136.482 21.7478 136.407 21.7478C136.333 21.7478 136.26 21.7669 136.196 21.8031C136.012 21.9355 135.864 22.1069 135.764 22.3035C135.663 22.5 135.614 22.716 135.62 22.9339C135.607 23.0441 135.625 23.1557 135.671 23.2578C135.717 23.3598 135.791 23.4489 135.884 23.5165C135.94 23.5463 136.003 23.5617 136.068 23.5613C136.152 23.5601 136.235 23.5375 136.306 23.4958C136.526 23.3538 136.69 23.1479 136.772 22.9097L137.062 22.9925H137.095C137.118 22.992 137.14 22.9848 137.159 22.9718C137.177 22.9588 137.191 22.9407 137.198 22.9201C137.2 22.8967 137.194 22.8732 137.181 22.8532C137.168 22.8333 137.148 22.818 137.124 22.8098ZM136.196 23.3338C136.165 23.3511 136.13 23.3602 136.093 23.3602C136.057 23.3602 136.022 23.3511 135.991 23.3338C135.932 23.2827 135.887 23.2191 135.859 23.1484C135.832 23.0776 135.823 23.0017 135.833 22.927C135.83 22.7445 135.871 22.5638 135.953 22.3984C136.035 22.233 136.156 22.0873 136.306 21.9721C136.345 21.9491 136.389 21.936 136.435 21.9341C136.46 21.9286 136.486 21.9286 136.512 21.9341C136.57 21.9857 136.614 22.0494 136.642 22.12C136.669 22.1906 136.679 22.2663 136.669 22.3409C136.678 22.5295 136.639 22.7174 136.557 22.8896C136.475 23.0619 136.351 23.2139 136.196 23.3338Z" fill="#FAFAFA"/>
<path d="M60.6213 57.1144C60.6516 56.5779 60.8162 56.0556 61.1018 55.5902C61.3874 55.1247 61.786 54.7292 62.265 54.4358L137.708 13.5088C138.618 13.0158 139.355 13.4157 139.355 14.4017V17.6387L60.6213 60.3515V57.1144Z" fill="#37474F"/>
<path d="M130.091 19.3107C129.867 19.4484 129.68 19.6337 129.547 19.8517C129.413 20.0697 129.335 20.3142 129.321 20.5655C129.321 21.0309 129.666 21.2171 130.091 20.9861C130.317 20.8489 130.505 20.6633 130.64 20.4446C130.774 20.2258 130.852 19.9802 130.865 19.7278C130.865 19.2762 130.521 19.0797 130.091 19.3107Z" fill="#01B6EB"/>
<path d="M132.795 17.849C132.57 17.9859 132.382 18.1709 132.248 18.3891C132.113 18.6072 132.035 18.8521 132.021 19.1039C132.021 19.5658 132.366 19.7554 132.795 19.5244C133.02 19.3865 133.207 19.2006 133.341 18.9819C133.474 18.7633 133.552 18.5181 133.566 18.2662C133.566 17.8042 133.221 17.6181 132.795 17.849Z" fill="#01B6EB"/>
<path d="M135.495 16.3873C135.271 16.525 135.085 16.7103 134.951 16.9283C134.817 17.1463 134.74 17.3909 134.725 17.6422C134.725 18.1041 135.07 18.2937 135.495 18.0628C135.72 17.9246 135.907 17.7387 136.041 17.5201C136.174 17.3015 136.252 17.0563 136.266 16.8045C136.262 16.3425 135.921 16.1736 135.495 16.3873Z" fill="#01B6EB"/>
<path d="M95.138 61.9269L104.838 56.6663C105.451 56.3215 105.939 56.6008 105.939 57.2696V67.7909C105.919 68.1524 105.809 68.5044 105.618 68.8187C105.427 69.133 105.16 69.4008 104.838 69.6007L95.138 74.8614C94.5253 75.2061 94.0374 74.9235 94.0374 74.2581V63.7471C94.055 63.3837 94.1639 63.0293 94.3552 62.7129C94.5465 62.3966 94.8147 62.1272 95.138 61.9269Z" fill="#01B6EB"/>
<path d="M97.8015 75.0338L103.672 71.8553C104.112 71.614 104.464 71.7864 104.464 72.2311C104.444 72.4817 104.362 72.7245 104.225 72.94C104.087 73.1555 103.898 73.3377 103.672 73.4721L97.8015 76.6506C97.3612 76.8885 97.0054 76.7195 97.0054 76.2748C97.0248 76.0237 97.107 75.7804 97.2453 75.5647C97.3836 75.3491 97.5742 75.1672 97.8015 75.0338Z" fill="#455A64"/>
<path d="M99.9038 61.5408C100.935 60.9824 101.768 61.434 101.768 62.5509C101.733 63.1582 101.546 63.7493 101.222 64.2758C100.898 64.8024 100.447 65.2497 99.9038 65.5811C98.8765 66.1396 98.0437 65.688 98.0437 64.5711C98.0786 63.9642 98.2652 63.3735 98.5883 62.8471C98.9115 62.3206 99.3622 61.8731 99.9038 61.5408Z" fill="#FAFAFA"/>
<path d="M103.576 67.5082C103.576 65.6777 102.204 64.8606 100.516 65.7845L99.4599 66.3602C97.7685 67.2772 96.4 69.5042 96.4 71.3382V71.8312L103.576 67.9426V67.5082Z" fill="#FAFAFA"/>
<path d="M113.031 52.2123L122.728 46.9516C123.344 46.6069 123.828 46.8861 123.828 47.5549V58.0762C123.809 58.4379 123.699 58.7901 123.508 59.1045C123.317 59.4189 123.049 59.6866 122.728 59.8861L113.031 65.1468C112.418 65.4915 111.93 65.2088 111.93 64.5435V54.0221C111.95 53.6605 112.06 53.3083 112.251 52.9939C112.442 52.6795 112.709 52.4118 113.031 52.2123Z" fill="#01B6EB"/>
<path opacity="0.2" d="M113.031 52.2123L122.728 46.9516C123.344 46.6069 123.828 46.8861 123.828 47.5549V58.0762C123.809 58.4379 123.699 58.7901 123.508 59.1045C123.317 59.4189 123.049 59.6866 122.728 59.8861L113.031 65.1468C112.418 65.4915 111.93 65.2088 111.93 64.5435V54.0221C111.95 53.6605 112.06 53.3083 112.251 52.9939C112.442 52.6795 112.709 52.4118 113.031 52.2123Z" fill="black"/>
<path d="M115.695 65.3191L121.565 62.1407C122.001 61.9028 122.357 62.0717 122.357 62.5164C122.338 62.7672 122.256 63.0102 122.119 63.2258C121.981 63.4414 121.791 63.6235 121.565 63.7575L115.695 66.9359C115.254 67.1738 114.898 67.0049 114.898 66.5602C114.918 66.309 115 66.0657 115.138 65.8501C115.277 65.6344 115.467 65.4525 115.695 65.3191Z" fill="#455A64"/>
<path d="M117.797 51.8262C118.828 51.2677 119.661 51.7193 119.661 52.8363C119.626 53.4436 119.439 54.0348 119.115 54.5614C118.792 55.088 118.34 55.5352 117.797 55.8665C116.769 56.425 115.937 55.9733 115.937 54.8564C115.972 54.2496 116.159 53.6591 116.482 53.1326C116.805 52.6062 117.255 52.1586 117.797 51.8262Z" fill="#FAFAFA"/>
<path d="M121.469 57.7936C121.469 55.963 120.097 55.146 118.41 56.0699L117.353 56.6456C115.662 57.5626 114.293 59.7896 114.293 61.6236V62.1165L121.469 58.2314V57.7936Z" fill="#FAFAFA"/>
<path d="M77.2633 71.6174L86.9637 66.3568C87.5764 66.012 88.0644 66.2947 88.0644 66.9601V77.4814C88.045 77.8431 87.9353 78.1954 87.7441 78.5098C87.5529 78.8243 87.2855 79.092 86.9637 79.2913L77.2633 84.5519C76.6506 84.8967 76.1626 84.6174 76.1626 83.9486V73.4273C76.1828 73.0658 76.2929 72.7138 76.484 72.3995C76.6752 72.0852 76.9421 71.8173 77.2633 71.6174Z" fill="#01B6EB"/>
<path opacity="0.5" d="M77.2633 71.6174L86.9637 66.3568C87.5764 66.012 88.0644 66.2947 88.0644 66.9601V77.4814C88.045 77.8431 87.9353 78.1954 87.7441 78.5098C87.5529 78.8243 87.2855 79.092 86.9637 79.2913L77.2633 84.5519C76.6506 84.8967 76.1626 84.6174 76.1626 83.9486V73.4273C76.1828 73.0658 76.2929 72.7138 76.484 72.3995C76.6752 72.0852 76.9421 71.8173 77.2633 71.6174Z" fill="white"/>
<path d="M79.9269 84.7243L85.7971 81.5458C86.2373 81.308 86.5895 81.4769 86.5895 81.9216C86.5703 82.1724 86.4885 82.4154 86.3508 82.6309C86.2132 82.8465 86.0235 83.0287 85.7971 83.1627L79.9269 86.3411C79.4866 86.579 79.1307 86.4101 79.1307 85.9654C79.1501 85.7142 79.2323 85.4709 79.3707 85.2553C79.509 85.0396 79.6996 84.8577 79.9269 84.7243Z" fill="#455A64"/>
<path d="M82.0292 71.2314C83.0601 70.6729 83.893 71.1279 83.893 72.2414C83.8582 72.8492 83.6713 73.4407 83.3475 73.9679C83.0236 74.495 82.572 74.9429 82.0292 75.2751C81.0019 75.8301 80.1691 75.3785 80.1691 74.2616C80.2042 73.6547 80.3909 73.0642 80.7141 72.5378C81.0373 72.0114 81.4878 71.5638 82.0292 71.2314Z" fill="#FAFAFA"/>
<path d="M85.7017 77.1918C85.7017 75.3578 84.3295 74.5443 82.6418 75.4682L81.5962 76.0439C79.9049 76.9609 78.5364 79.1913 78.5364 81.0253V81.5183L85.7127 77.6262L85.7017 77.1918Z" fill="#FAFAFA"/>
<path d="M170.265 49.8296L166.369 47.7163C162.439 45.6479 157.054 45.9409 151.084 49.178C145.5 52.2013 140.408 57.2483 136.57 63.0881C132.131 69.8104 129.339 77.5946 129.339 84.572C129.339 91.0806 131.764 95.6449 135.686 97.7857L139.623 99.9059C143.585 102.278 149.162 102.067 155.399 98.7027C167.411 92.1838 177.148 76.3363 177.148 63.3053C177.133 56.5071 174.492 51.8428 170.265 49.8296Z" fill="#01B6EB"/>
<path opacity="0.1" d="M139.469 99.8203L135.686 97.7863C131.764 95.649 129.343 91.0778 129.343 84.5692C129.343 77.5917 132.135 69.8145 136.57 63.0921L140.855 65.4329C136.416 72.1552 133.631 79.929 133.631 86.8996C133.631 93.1221 135.847 97.5692 139.469 99.8203Z" fill="black"/>
<path opacity="0.4" d="M170.107 49.744C166.233 47.9789 161.064 48.4271 155.388 51.5021C149.797 54.5392 144.704 59.5896 140.856 65.4329L136.57 63.0921C140.412 57.2316 145.508 52.2054 151.088 49.1821C157.054 45.9415 162.443 45.6347 166.376 47.7169L170.107 49.744Z" fill="white"/>
<path d="M145.629 98.7309C144.047 98.762 142.49 98.3621 141.145 97.5795L141.083 97.5416L140.958 97.4761C138.093 95.6421 136.515 91.8914 136.515 86.8961C136.515 80.6909 138.985 73.4135 143.295 66.9015C147.038 61.2202 151.833 56.6042 156.804 53.9049C159.721 52.3226 162.575 51.4918 165.048 51.4918C166.304 51.4741 167.549 51.7203 168.691 52.2123L168.823 52.2812L168.889 52.3123C172.232 53.9015 174.147 57.9142 174.147 63.3231C174.147 75.4613 165.048 90.2676 153.862 96.3315C150.938 97.8966 148.102 98.7309 145.629 98.7309Z" fill="#FAFAFA"/>
<path d="M156.338 79.0844C150.802 80.4634 146.311 77.3883 146.311 72.1897V68.8561C146.311 64.447 150.116 59.9171 154.808 58.7347L157.864 57.9659C162.557 56.7835 166.361 59.4 166.361 63.8092V67.1428C166.347 72.3414 161.874 77.6882 156.338 79.0844Z" fill="#263238"/>
<path d="M141.032 111.321C141.068 110.769 142.004 104.736 142.65 101.323L148.931 101.83L146.641 114.272L142.521 114.02C140.878 114.079 141.006 111.865 141.032 111.321Z" fill="#B16668"/>
<path d="M169.968 92.2257L174.392 105.24L168.86 108.087L165.543 95.8455L169.968 92.2257Z" fill="#B16668"/>
<path d="M160.282 81.0804C163.217 80.391 166.471 80.7357 167.587 82.942C168.702 85.1483 171.142 93.0738 171.142 93.0738C169.624 94.9958 167.402 96.321 164.905 96.7935L160.282 81.0804Z" fill="#01B6EB"/>
<path opacity="0.3" d="M160.282 81.0804C163.217 80.391 166.471 80.7357 167.587 82.942C168.702 85.1483 171.142 93.0738 171.142 93.0738C169.624 94.9958 167.402 96.321 164.905 96.7935L160.282 81.0804Z" fill="black"/>
<path d="M154.185 82.7283L151.734 83.4557C149.066 84.8346 148.105 87.0478 146.986 89.8988C146.17 91.9231 146.095 94.1455 146.773 96.2143L149.896 105.229C149.896 105.229 148.428 109.428 146.737 113.479C154.57 116.237 164.347 111.293 166.706 107.239C166.809 106.477 166.673 103.202 166.86 99.3894C167.066 95.3215 167.572 90.6607 166.993 88.3233C165.91 83.99 163.889 80.1738 159.86 81.1873L154.185 82.7283Z" fill="#F5F5F5"/>
<path d="M151.734 83.4557C149.063 84.5382 145.13 86.1101 143.783 93.3461C142.411 100.679 142.147 102.409 142.147 102.409C142.147 102.409 144.484 104.35 148.92 103.209C148.92 103.209 152.831 88.5061 151.734 83.4557Z" fill="#01B6EB"/>
<path opacity="0.3" d="M151.734 83.4557C149.063 84.5382 145.13 86.1101 143.783 93.3461C142.411 100.679 142.147 102.409 142.147 102.409C142.147 102.409 144.484 104.35 148.92 103.209C148.92 103.209 152.831 88.5061 151.734 83.4557Z" fill="black"/>
<path d="M149.037 102.754C149.532 100.799 150.053 98.5758 150.545 96.204C150.545 96.204 150.523 101.106 149.753 104.822L149.037 102.754Z" fill="#E0E0E0"/>
<path d="M163.071 61.0513C164.127 61.4615 165.437 64.0229 165.309 70.1144C165.198 75.2854 163.665 76.9298 162.894 77.4883C162.124 78.0468 160.638 78.1985 159.196 78.3019V81.3838C159.196 81.3838 161.192 83.3971 161.064 84.8312C160.935 86.2653 158.184 87.3029 156.316 86.3928C155.083 85.7277 154.034 84.7995 153.253 83.6832V76.2438C153.253 76.2438 152.277 77.902 150.684 77.1539C149.092 76.4058 149.03 73.579 149.951 72.3276C150.872 71.0762 152.886 70.8935 153.253 72.2104C153.253 72.2104 155.553 71.7243 158.62 69.1078C161.08 67.0081 162.659 64.1501 163.071 61.0513Z" fill="#B16668"/>
<path d="M160.025 70.1523C160.034 70.3304 159.984 70.5067 159.883 70.6576C159.782 70.8086 159.635 70.9269 159.46 70.9969C159.134 71.0935 158.851 70.8797 158.837 70.5143C158.827 70.3365 158.876 70.1603 158.976 70.0093C159.077 69.8584 159.224 69.7398 159.398 69.6697C159.743 69.5732 160.007 69.7869 160.025 70.1523Z" fill="#263238"/>
<path d="M160.183 74.465L161.566 74.596C161.532 74.8009 161.424 74.9887 161.261 75.1279C161.097 75.2672 160.888 75.3496 160.667 75.3613C160.286 75.3234 160.069 74.9235 160.183 74.465Z" fill="#9A4A4D"/>
<path d="M164.905 66.9428L163.698 66.3395C163.918 65.9121 164.366 65.6983 164.699 65.8673C165.033 66.0362 165.121 66.505 164.905 66.9428Z" fill="#263238"/>
<path d="M164.626 68.5286C164.636 68.7064 164.586 68.8826 164.485 69.0331C164.384 69.1836 164.236 69.3012 164.061 69.3698C163.735 69.4697 163.456 69.2526 163.437 68.8871C163.428 68.7098 163.477 68.5342 163.578 68.3838C163.678 68.2334 163.825 68.1155 163.999 68.046C164.329 67.946 164.608 68.1632 164.626 68.5286Z" fill="#263238"/>
<path d="M161.819 68.8665L161.915 72.7275L163.797 71.6209L161.819 68.8665Z" fill="#9A4A4D"/>
<path d="M159.196 78.3019C157.674 78.4673 154.544 78.2812 154.06 77.0608C154.232 77.6484 154.622 78.1585 155.16 78.4984C156.096 79.1327 159.196 79.3292 159.196 79.3292V78.3019Z" fill="#9A4A4D"/>
<path d="M150.042 92.4016L147.045 90.7744H147.012C145.522 89.9815 143.479 90.0849 141.215 91.326C139.098 92.474 137.179 94.3872 135.712 96.6004C134.031 99.1515 132.971 102.116 132.971 104.75C132.971 107.215 133.892 108.949 135.378 109.759L138.423 111.393C139.924 112.293 142.044 112.214 144.4 110.935C148.953 108.463 152.647 102.454 152.647 97.514C152.647 94.9354 151.646 93.1634 150.042 92.4016Z" fill="#37474F"/>
<path d="M138.361 111.355L135.378 109.756C133.888 108.945 132.971 107.211 132.971 104.743C132.971 102.099 134.028 99.148 135.712 96.6004L138.896 98.3241C137.212 100.875 136.156 103.819 136.156 106.463C136.148 108.814 136.996 110.504 138.361 111.355Z" fill="#263238"/>
<path d="M149.98 92.3602C148.512 91.6914 146.553 91.8603 144.4 93.029C142.246 94.1976 140.364 96.0937 138.896 98.3103L135.712 96.5867C137.179 94.37 139.102 92.4498 141.215 91.3122C143.479 90.0849 145.522 89.9677 147.012 90.7572H147.045L149.98 92.3602Z" fill="#455A64"/>
<path d="M147.977 99.0032L145.229 100.496V96.3591C145.229 95.6938 144.862 95.3594 144.4 95.6076C143.937 95.8558 143.571 96.5935 143.571 97.2589V101.396L140.819 102.888C140.591 103.058 140.408 103.275 140.284 103.522C140.16 103.769 140.098 104.039 140.103 104.312C140.103 104.884 140.426 105.174 140.819 104.957L143.571 103.468V107.604C143.571 108.27 143.937 108.604 144.4 108.356C144.862 108.108 145.229 107.367 145.229 106.705V102.568L147.977 101.075C148.205 100.906 148.388 100.689 148.512 100.442C148.637 100.195 148.698 99.9245 148.692 99.6514C148.692 99.0791 148.369 98.7895 147.977 99.0032Z" fill="#F5F5F5"/>
</svg>
