<svg width="10" height="10" viewBox="0 0 10 10" fill="none" xmlns="http://www.w3.org/2000/svg">
<path d="M6.67936 5L9.43316 2.1571C9.77109 1.80824 9.77109 1.24261 9.43316 0.893466L8.82114 0.261648C8.48321 -0.0872159 7.93531 -0.0872159 7.59711 0.261648L4.8433 3.10455L2.0895 0.261648C1.75157 -0.0872159 1.20367 -0.0872159 0.865465 0.261648L0.253448 0.893466C-0.0844826 1.24233 -0.0844826 1.80795 0.253448 2.1571L3.00725 5L0.253448 7.8429C-0.0844826 8.19176 -0.0844826 8.75739 0.253448 9.10653L0.865465 9.73835C1.2034 10.0872 1.75157 10.0872 2.0895 9.73835L4.8433 6.89545L7.59711 9.73835C7.93504 10.0872 8.48321 10.0872 8.82114 9.73835L9.43316 9.10653C9.77109 8.75767 9.77109 8.19205 9.43316 7.8429L6.67936 5Z" fill="#9EA6B8"/>
</svg>
