<svg width="58" height="68" viewBox="0 0 58 68" fill="none" xmlns="http://www.w3.org/2000/svg">
<path d="M28.3511 36.2291C28.4207 36.2291 28.4904 36.2291 28.5739 36.2291C28.6017 36.2291 28.6296 36.2291 28.6574 36.2291C28.6992 36.2291 28.7549 36.2291 28.7967 36.2291C32.8763 36.1595 36.1762 34.7253 38.6128 31.9824C43.9733 25.9396 43.0822 15.5805 42.9848 14.5919C42.6367 7.17063 39.1279 3.62012 36.2318 1.96322C34.0737 0.724025 31.5535 0.0556942 28.741 0H28.6435C28.6296 0 28.6017 0 28.5878 0H28.5043C26.9588 0 23.9234 0.250624 21.0134 1.90753C18.0895 3.56443 14.525 7.11494 14.1769 14.5919C14.0795 15.5805 13.1884 25.9396 18.5489 31.9824C20.9716 34.7253 24.2715 36.1595 28.3511 36.2291ZM17.8945 14.94C17.8945 14.8982 17.9084 14.8564 17.9084 14.8286C18.3679 4.8454 25.455 3.77328 28.4904 3.77328H28.546C28.5739 3.77328 28.6157 3.77328 28.6574 3.77328C32.4168 3.85682 38.8077 5.38841 39.2393 14.8286C39.2393 14.8704 39.2393 14.9121 39.2533 14.94C39.2672 15.0374 40.2418 24.5055 35.8141 29.4901C34.0598 31.4672 31.7206 32.4419 28.6435 32.4697C28.6157 32.4697 28.6017 32.4697 28.5739 32.4697C28.546 32.4697 28.5321 32.4697 28.5043 32.4697C25.4411 32.4419 23.088 31.4672 21.3476 29.4901C16.9338 24.5333 17.8806 15.0235 17.8945 14.94Z" fill="#9EA6B8"/>
<path d="M57.1878 53.4106C57.1878 53.3967 57.1878 53.3827 57.1878 53.3688C57.1878 53.2574 57.1739 53.146 57.1739 53.0207C57.0904 50.2639 56.9094 43.8173 50.8665 41.7566C50.8248 41.7427 50.7691 41.7287 50.7273 41.7148C44.4478 40.1136 39.2264 36.4935 39.1707 36.4517C38.3214 35.853 37.1518 36.0618 36.5531 36.9112C35.9544 37.7605 36.1633 38.9301 37.0126 39.5288C37.2493 39.6959 42.7909 43.5527 49.7248 45.3349C52.969 46.4906 53.331 49.9576 53.4285 53.1321C53.4285 53.2574 53.4285 53.3688 53.4424 53.4802C53.4563 54.7333 53.3728 56.6687 53.15 57.7826C50.8944 59.0636 42.0529 63.4912 28.6028 63.4912C15.2083 63.4912 6.31116 59.0496 4.04162 57.7687C3.81884 56.6548 3.72138 54.7194 3.74923 53.4663C3.74923 53.3549 3.76315 53.2435 3.76315 53.1182C3.86061 49.9436 4.22263 46.4767 7.46681 45.321C14.4007 43.5388 19.9423 39.668 20.179 39.5149C21.0284 38.9162 21.2372 37.7466 20.6385 36.8973C20.0398 36.0479 18.8702 35.8391 18.0209 36.4378C17.9652 36.4796 12.7717 40.0997 6.46432 41.7009C6.40862 41.7148 6.36685 41.7287 6.32508 41.7427C0.282261 43.8173 0.101255 50.2639 0.0177134 53.0068C0.0177134 53.1321 0.0177131 53.2435 0.0037895 53.3549C0.0037895 53.3688 0.0037895 53.3827 0.0037895 53.3967C-0.0101341 54.1207 -0.0240573 57.8383 0.713891 59.704C0.853127 60.066 1.10375 60.3724 1.43792 60.5812C1.85562 60.8597 11.8667 67.2367 28.6167 67.2367C45.3667 67.2367 55.3778 60.8458 55.7955 60.5812C56.1157 60.3724 56.3803 60.066 56.5195 59.704C57.2157 57.8522 57.2017 54.1346 57.1878 53.4106Z" fill="#9EA6B8"/>
</svg>
