<svg width="231" height="241" viewBox="0 0 231 241" fill="none" xmlns="http://www.w3.org/2000/svg">
<path d="M176.103 240.014L94.5523 239.969C89.8421 239.966 85.3259 238.093 81.9968 234.761C78.6677 231.428 76.7984 226.91 76.7999 222.2L76.8392 17.7749C76.837 15.4405 77.2951 13.1286 78.1872 10.9714C79.0793 8.81423 80.388 6.85412 82.0384 5.2032C83.6888 3.55228 85.6485 2.24296 87.8054 1.35014C89.9623 0.457321 92.2741 -0.00147402 94.6085 3.55761e-06L176.16 0.0449332C180.87 0.0479113 185.386 1.92152 188.715 5.25375C192.044 8.58597 193.914 13.104 193.912 17.8142L193.873 222.24C193.873 224.573 193.414 226.885 192.522 229.041C191.629 231.198 190.32 233.157 188.67 234.808C187.02 236.459 185.061 237.768 182.905 238.661C180.749 239.555 178.437 240.014 176.103 240.014Z" fill="#455A64"/>
<path d="M176.671 6.12152L160.805 6.04851C160.288 6.058 159.779 6.1693 159.305 6.37605C158.831 6.58279 158.403 6.88092 158.045 7.25336C157.686 7.62581 157.405 8.06526 157.216 8.54658C157.028 9.0279 156.937 9.54164 156.947 10.0584V12.9394C156.957 13.4571 156.865 13.9718 156.676 14.4538C156.487 14.9358 156.205 15.3758 155.845 15.7484C155.486 16.121 155.056 16.4189 154.581 16.625C154.106 16.8311 153.595 16.9413 153.077 16.9493L122.127 16.8033C121.61 16.7909 121.099 16.6764 120.626 16.4662C120.153 16.2561 119.725 15.9545 119.369 15.5787C119.013 15.203 118.734 14.7605 118.549 14.2767C118.364 13.793 118.277 13.2774 118.291 12.7597V9.87867C118.306 9.36098 118.219 8.84543 118.034 8.36166C117.849 7.87788 117.57 7.43541 117.214 7.05966C116.858 6.68392 116.43 6.38231 115.957 6.17216C115.484 5.962 114.973 5.84746 114.456 5.8351H108.879L94.9904 5.77332C93.3504 5.76593 91.7251 6.08172 90.2072 6.70266C88.6893 7.3236 87.3086 8.23752 86.144 9.3922C84.9794 10.5469 84.0537 11.9197 83.4199 13.4322C82.786 14.9447 82.4563 16.5673 82.4497 18.2073L81.6016 218.454C81.5957 221.762 82.903 224.938 85.2364 227.283C87.5699 229.628 90.7387 230.951 94.0469 230.961L175.716 231.338C177.356 231.346 178.981 231.031 180.499 230.41C182.017 229.79 183.397 228.877 184.562 227.722C185.727 226.568 186.652 225.196 187.286 223.683C187.92 222.171 188.25 220.549 188.257 218.909L189.105 18.6566C189.111 17.0171 188.795 15.3924 188.174 13.8751C187.552 12.3579 186.638 10.9779 185.484 9.81387C184.329 8.64987 182.957 7.7247 181.444 7.09116C179.932 6.45763 178.31 6.12814 176.671 6.12152Z" fill="#F5F5F5"/>
<path d="M142.014 193.496C141.918 195.917 141.829 198.186 141.755 200.067H153.487L152.05 192.862L142.014 193.496Z" fill="#F5F5F5"/>
<path d="M94.3333 196.512L94.4344 200.067H140.582C140.66 198.073 140.75 195.855 140.834 193.575L94.3333 196.512Z" fill="#F5F5F5"/>
<path d="M152.639 192.828L154.083 200.067H175.71L175.452 191.385L152.639 192.828Z" fill="#F5F5F5"/>
<path d="M143.182 91.5702L147.27 67.8591L136.561 67.0672V91.5702H143.182Z" fill="#EBEBEB"/>
<path d="M93.3673 183.354L81.742 187.908L81.7083 196.142L93.7155 195.378L93.3673 183.354Z" fill="#F5F5F5"/>
<path d="M93.3168 181.5L92.6822 159.418H92.671V151.628L81.8937 152.769L81.7533 186.016L93.3112 181.489L93.3168 181.5Z" fill="#EBEBEB"/>
<path d="M92.6709 134.241L81.9779 132.831L81.8993 151.005L92.6709 149.865V134.241Z" fill="#F5F5F5"/>
<path d="M172.38 151.954L171.931 158.284L159.3 159.648L160.277 164.652L174.615 163.574L174.402 156.391L175.547 151.634L172.38 151.954Z" fill="#F5F5F5"/>
<path d="M149.618 165.461L159.688 164.697L157.497 153.459L148.703 154.347L149.618 165.461Z" fill="#F5F5F5"/>
<path d="M149.713 166.623L150.483 175.997L151.848 188.852L152.409 191.666L175.418 190.211L174.649 164.748L149.713 166.623Z" fill="#EBEBEB"/>
<path d="M110.114 122.374L111.002 123.891L93.255 134.241V158.789L111.985 157.464L148.074 153.819L146.754 137.729L112.271 133.236L112.501 131.495L146.608 135.948L144.361 108.716L110.609 111.962L110.496 110.8L144.271 107.542L143.109 93.3337H110.637L82.124 98.5229L81.9836 131.063L92.7833 132.489L110.114 122.374ZM95.0746 156.447C95.0746 156.447 95.2094 136.201 95.0746 135.449L109.553 127.76L111.457 155.414L95.0746 156.447Z" fill="#F5F5F5"/>
<path d="M171.201 152.078L158.081 153.398L159.075 158.497L170.836 157.228L171.201 152.078Z" fill="#F5F5F5"/>
<path d="M142.177 189.161C142.137 190.222 142.098 191.284 142.059 192.323L151.819 191.705L151.32 189.189L142.177 189.161Z" fill="#F5F5F5"/>
<path d="M121.15 91.5702L122.869 83.775H135.977V67.0223L94.9904 63.9896V79.7146L82.1857 82.6125L82.1295 96.7313L110.48 91.5702H121.15Z" fill="#EBEBEB"/>
<path d="M148.523 44.9679L148.175 43.5302L163.827 37.3525L153.617 16.9044C153.431 16.9307 153.243 16.9457 153.055 16.9493L135.758 16.8651L136.229 45.4677L148.523 44.9679Z" fill="#F5F5F5"/>
<path d="M172.217 34.0054V6.09907L160.828 6.04852C160.309 6.05509 159.797 6.16423 159.32 6.36967C158.844 6.57511 158.413 6.87278 158.052 7.24552C157.692 7.61826 157.408 8.05871 157.219 8.54148C157.029 9.02425 156.937 9.53979 156.947 10.0584V12.9395C156.947 13.5839 156.794 14.2191 156.502 14.7931C156.209 15.3672 155.784 15.8636 155.262 16.2417L165.45 36.6899L172.217 34.0054Z" fill="#EBEBEB"/>
<path d="M113.377 35.2016L112.058 5.82389H108.89L96.5348 5.76773L91.2388 32.0229L113.377 35.2016ZM110.569 8.80603L110.991 32.7305L94.5355 30.3268L98.141 8.80603H110.569Z" fill="#F5F5F5"/>
<path d="M113.978 35.2914V35.5385C113.978 37.8299 114.057 41.9577 114.091 46.3719L135.645 45.4902L135.173 16.8482L122.127 16.8033C121.61 16.7909 121.099 16.6764 120.626 16.4662C120.153 16.2561 119.725 15.9545 119.369 15.5787C119.013 15.203 118.734 14.7605 118.549 14.2767C118.364 13.7929 118.277 13.2774 118.291 12.7597V9.87866C118.306 9.36096 118.219 8.84542 118.034 8.36164C117.849 7.87787 117.57 7.4354 117.214 7.05965C116.858 6.6839 116.43 6.38229 115.957 6.17214C115.484 5.96199 114.973 5.84745 114.456 5.83508H112.636L113.956 35.297L113.978 35.2914Z" fill="#F5F5F5"/>
<path d="M89.4979 31.7758L94.7208 5.7565C91.4595 5.81516 88.3506 7.1479 86.0594 9.46956C83.7681 11.7912 82.4765 14.9174 82.4609 18.1793L82.4048 31.1468L82.4609 30.7649L89.4979 31.7758Z" fill="#F5F5F5"/>
<path d="M93.2326 63.8604L82.27 63.0461L82.197 80.8098L93.2326 78.3162V63.8604Z" fill="#F5F5F5"/>
<path d="M89.3799 32.3486L82.4047 31.3489L82.2868 60.1145L83.7863 60.2268L89.3799 32.3486Z" fill="#F5F5F5"/>
<path d="M111.524 181.164L111.709 158.07L93.2662 159.373L93.9177 182L111.524 181.164Z" fill="#F5F5F5"/>
<path d="M114.916 175.834L141.037 188.346C141.351 180.169 141.626 172.526 141.598 172.06L142.16 172.026L142.435 171.465C142.811 171.65 142.811 171.65 142.615 177.227C142.508 180.338 142.351 184.477 142.194 188.616H151.23L149.899 176.058L148.124 154.409L113.995 157.857L114.916 175.834Z" fill="#F5F5F5"/>
<path d="M178.945 137.504L178.648 134.46L147.338 137.717L148.658 153.763L175.688 151.033L178.945 137.504Z" fill="#F5F5F5"/>
<path d="M135.977 85.5329H124.278L122.947 91.5702H135.977V85.5329Z" fill="#F5F5F5"/>
<path d="M174.11 87.5715L144.816 85.5441L143.626 92.4631L144.856 107.481L175.744 104.51L174.11 87.5715ZM145.895 92.4519L147.467 88.0826L172.908 89.6944L174.357 102.185L146.731 105.464L145.895 92.4519Z" fill="#F5F5F5"/>
<path d="M177.148 118.96L175.862 105.678L144.951 108.649L146.114 122.784L177.148 118.96Z" fill="#F5F5F5"/>
<path d="M93.7492 196.552L81.7589 197.31L81.7083 196.529L81.6915 200.067H93.8503L93.7492 196.552Z" fill="#F5F5F5"/>
<path d="M188.886 27.4121L189.06 27.8557L189.099 18.6566C189.112 15.3465 187.811 12.1665 185.48 9.81585C183.15 7.46522 179.981 6.13638 176.671 6.12152H172.784V33.7919L188.886 27.4121Z" fill="#EBEBEB"/>
<path d="M141.014 188.976L114.349 176.199L113.411 157.896L112.288 158.008L112.097 181.708L93.929 182.573V183.101L94.2828 195.322L140.868 192.373C140.924 191.267 140.969 190.099 141.014 188.976ZM95.0746 184.078L120.51 182.292L137.06 189.97L95.0746 192.216V184.078Z" fill="#F5F5F5"/>
<path d="M181.304 58.1208L182.393 51.6511C172.846 48.2365 172.172 38.268 172.2 35.2465L165.961 37.7176L175.356 56.582L181.304 58.1208Z" fill="#F5F5F5"/>
<path d="M147.197 135.971L160.193 134.617L157.632 123.133L146.254 124.537L147.197 135.971Z" fill="#F5F5F5"/>
<path d="M175.239 69.3979L150.96 69.3923L148.944 69.2462L146.203 85.1454L175.02 87.1391L174.351 80.2257L177.187 70.0156L175.239 69.3979Z" fill="#F5F5F5"/>
<path d="M173.559 65.1296L173.863 57.5423L164.315 38.3859L149.523 44.2434L154.577 65.1296H173.559ZM163.748 40.7109L172.487 57.3457L171.229 62.5294L156.262 61.9678L152.522 46.2428L163.748 40.7109Z" fill="#F5F5F5"/>
<path d="M177.339 156.694L177.783 171.605L188.302 171.01L188.335 171.594L177.805 172.189L178.339 190.026L188.285 189.397L188.358 190.565L178.372 191.199L178.642 200.067H188.33L188.543 150.326L178.631 151.325L177.339 156.694Z" fill="#F5F5F5"/>
<path d="M113.4 35.7969L91.1209 32.6014L85.5497 60.3673L113.495 62.4396C113.608 58.1545 113.512 45.0466 113.4 35.7969Z" fill="#EBEBEB"/>
<path d="M150.034 65.1353H153.409L148.635 45.5464L136.24 46.0518L136.538 64.13L150.034 65.1353Z" fill="#F5F5F5"/>
<path d="M114.068 62.4676L135.971 64.0907L135.679 46.0743L114.119 46.956C114.141 53.0663 114.158 59.5473 114.068 62.4676Z" fill="#F5F5F5"/>
<path d="M177.316 120.706L158.216 123.065L160.783 134.556L178.479 132.714L177.316 120.706Z" fill="#F5F5F5"/>
<path d="M182.495 51.0839L183.719 43.8223L188.992 44.2323L189.06 28.5971L172.773 35.0388C172.464 46.035 179.372 49.9045 182.495 51.0839Z" fill="#EBEBEB"/>
<path d="M176.233 79.1474L176.895 86.0046L188.813 86.8302L188.869 72.7057L178.895 69.5551L176.233 79.1474Z" fill="#F5F5F5"/>
<path d="M181.905 137.712L178.777 150.724L188.543 149.736L188.605 136.094C185.606 135.303 182.989 134.662 181.579 134.41L181.905 137.712Z" fill="#F5F5F5"/>
<path d="M175.306 65.3543L188.886 69.6393L188.919 61.9229L175.587 58.4746L175.306 65.3543Z" fill="#F5F5F5"/>
<path d="M181.411 132.601C182.506 132.77 184.578 133.208 188.61 134.286L188.734 104.459L178.777 105.414L181.411 132.601Z" fill="#F5F5F5"/>
<path d="M178.664 104.234L188.74 103.263L188.801 88.588L177.069 87.7737L178.664 104.234Z" fill="#F5F5F5"/>
<path d="M183.618 51.4545C185.533 52.0161 187.308 52.4823 188.953 52.8136L188.987 45.406L184.696 45.0746L183.618 51.4545Z" fill="#F5F5F5"/>
<path d="M182.444 58.4353L188.925 60.1201L188.953 53.4257C187.272 53.0963 185.462 52.6357 183.522 52.0442L182.444 58.4353Z" fill="#F5F5F5"/>
<path d="M188.358 190.565L188.285 189.397L178.339 190.026L177.805 172.189L188.335 171.594L188.307 171.032L177.783 171.627L177.339 156.722L178.631 151.348L188.543 150.348V149.758L178.777 150.747L181.905 137.734L181.579 134.415C182.989 134.685 185.606 135.325 188.605 136.1V134.275C184.572 133.213 182.5 132.775 181.405 132.59L178.771 105.386L188.728 104.431V103.252L178.653 104.223L177.058 87.7625L188.79 88.5768V86.8134L176.873 85.9934L176.21 79.1362L178.872 69.5439L188.869 72.7226V69.6562L175.289 65.3712L175.564 58.4915L188.897 61.9397V60.1257L182.416 58.4409L183.494 52.0386C185.437 52.6301 187.248 53.0907 188.925 53.4201V52.8192C187.279 52.4879 185.505 52.0386 183.59 51.4601L184.668 45.0803L188.959 45.4116V44.2379L183.685 43.8279L182.461 51.0895C179.338 49.9101 172.431 46.035 172.762 35.0443L189.048 28.6027V27.8557L188.874 27.4121L172.79 33.7751V6.10467H172.2V34.011L165.422 36.6955L155.262 16.2417C154.778 16.5895 154.218 16.8167 153.628 16.9044L163.799 37.3413L148.147 43.519L148.495 44.9567L136.229 45.4565L135.757 16.8538H135.196L135.668 45.4959L114.113 46.3776C114.079 41.9633 114.029 37.8355 114.001 35.5442V35.2971L112.681 5.8351H112.091L113.411 35.2128L91.2388 32.0229L96.5123 5.75085H95.0016H94.7208L89.4978 31.7702L82.4609 30.7593L82.4047 31.1412V31.3433L89.3799 32.343L83.7638 60.2212L82.2587 60.1089V63.0405L93.2213 63.8548V78.3387L82.1969 80.8098V82.6125L94.996 79.7146V63.9896L135.993 67.0279V83.7751H122.869L121.15 91.5758H110.48L82.1296 96.7314V98.5173L110.642 93.328H143.115L144.277 107.537L110.508 110.788L110.62 111.951L144.373 108.705L146.619 135.937L112.513 131.484L112.282 133.225L146.765 137.718L148.085 153.808L111.996 157.452L93.2662 158.778V134.241L111.013 123.891L110.126 122.374L92.7945 132.483L81.9948 131.057V132.815L92.6653 134.224V149.848L81.8937 150.971V152.735L92.6709 151.612V159.401L93.3055 181.484L81.7477 186.01V187.897L93.3729 183.348L93.7211 195.378L81.6915 196.142V196.529L81.742 197.31L93.7324 196.552L93.8335 200.067H94.3951L94.294 196.512L140.795 193.575C140.711 195.855 140.621 198.068 140.542 200.067H141.784C141.857 198.186 141.946 195.917 142.042 193.496L152.078 192.862L153.516 200.067H154.111L152.668 192.828L175.48 191.385L175.738 200.067H178.67L188.358 190.565ZM142.059 192.345C142.098 191.306 142.137 190.245 142.177 189.183L151.32 189.211L151.819 191.727L142.059 192.345ZM152.409 191.688L151.848 188.88L150.483 176.025L149.713 166.652L174.649 164.776L175.418 190.239L152.409 191.688ZM158.07 153.398L171.189 152.078L170.824 157.228L159.064 158.497L158.07 153.398ZM157.509 153.459L159.699 164.692L149.646 165.461L148.731 154.347L157.509 153.459ZM174.626 163.568L160.289 164.647L159.311 159.643L171.942 158.278L172.391 151.949L175.553 151.634L174.43 156.385L174.626 163.568ZM157.643 123.133L160.204 134.617L147.209 135.965L146.276 124.537L157.643 123.133ZM160.794 134.556L158.227 123.065L177.322 120.712L178.485 132.714L160.794 134.556ZM173.947 85.7968L145.131 83.8031L147.871 67.904L149.888 68.0556H174.166L176.115 68.6678L173.267 78.9003L173.947 85.7968ZM172.211 35.2521C172.183 38.2736 172.846 48.2421 182.405 51.6567L181.304 58.1208L175.356 56.582L165.961 37.7176L172.211 35.2521ZM164.349 38.369L173.896 57.5255L173.593 65.1128H154.611L149.556 44.2266L164.349 38.369ZM148.635 45.5464L153.409 65.1297H150.039L136.561 64.13L136.263 46.0518L148.635 45.5464ZM135.656 46.0743L135.948 64.0907L114.046 62.4677C114.136 59.5473 114.119 53.0495 114.046 46.956L135.656 46.0743ZM91.1209 32.5957L113.4 35.7913C113.512 45.041 113.608 58.1489 113.495 62.4227L85.5497 60.3672L91.1209 32.5957ZM147.282 67.8591L143.193 91.5702H136.561V67.0672L147.282 67.8591ZM124.289 85.5273H135.988V91.5702H122.958L124.289 85.5273ZM143.637 92.4575L144.827 85.5385L174.121 87.5659L175.761 104.504L144.872 107.475L143.637 92.4575ZM175.873 105.672L177.165 118.96L146.13 122.784L144.951 108.666L175.873 105.672ZM147.349 137.712L178.659 134.455L178.956 137.498L175.699 151.028L148.669 153.757L147.349 137.712ZM149.899 176.058L151.235 188.61H142.199C142.356 184.471 142.514 180.332 142.62 177.221C142.817 171.644 142.817 171.644 142.441 171.459L142.165 172.021L141.604 172.054C141.632 172.543 141.357 180.186 141.042 188.341L114.916 175.834L113.995 157.862L148.124 154.414L149.899 176.058ZM111.709 158.087L111.524 181.18L93.9177 182.017L93.2662 159.39L111.709 158.087ZM93.9458 183.14V182.612L112.114 181.748L112.305 158.048L113.428 157.935L114.366 176.238L141.014 188.975C140.969 190.099 140.924 191.256 140.885 192.384L94.2996 195.333L93.9458 183.14Z" fill="white"/>
<path d="M120.51 182.304L95.0746 184.089V192.255L137.055 189.981L120.51 182.304Z" fill="#E0E0E0"/>
<path d="M172.908 89.6944L147.467 88.0826L145.895 92.4519L146.754 105.464L174.379 102.185L172.908 89.6944Z" fill="#E0E0E0"/>
<path d="M81.6915 172.425L81.6297 214.321V218.814C81.7144 222.055 83.0581 225.137 85.3761 227.404C87.6941 229.672 90.8042 230.948 94.0469 230.961L175.716 231.338C177.356 231.346 178.981 231.031 180.499 230.41C182.017 229.79 183.397 228.877 184.562 227.722C185.727 226.568 186.652 225.196 187.286 223.683C187.92 222.171 188.25 220.549 188.257 218.909L188.335 172.425H81.6915Z" fill="white"/>
<path d="M111.479 34.2581L111.058 10.328H98.6296L95.0241 31.8488L111.479 34.2581Z" fill="#E0E0E0"/>
<path d="M171.229 62.5407L172.492 57.3514L163.748 40.7166L152.522 46.2372L156.267 61.9734L171.229 62.5407Z" fill="#EBEBEB"/>
<path d="M95.0746 135.449C95.2094 136.201 95.0746 156.447 95.0746 156.447L111.457 155.414L109.553 127.76L95.0746 135.449Z" fill="#E0E0E0"/>
<path d="M149.618 151.887L148.753 139.34L176.805 135.735V137.897L173.413 149.433L149.618 151.887Z" fill="#E0E0E0"/>
<path d="M175.772 183.848L175.418 175.665L150.769 176.862C150.126 176.89 149.487 176.755 148.91 176.468L113.933 158.8C113.536 158.599 113.198 158.296 112.954 157.922C112.711 157.548 112.57 157.117 112.546 156.672L107.789 64.349C107.775 64.1299 107.809 63.9104 107.889 63.7057C107.969 63.5011 108.092 63.3162 108.25 63.164C108.407 63.0117 108.594 62.8941 108.799 62.8186C109.004 62.7431 109.223 62.7116 109.441 62.726L124.43 63.8492V47.4502H126.188V64.0682C126.187 64.2801 126.142 64.4896 126.057 64.6836C125.972 64.8776 125.848 65.0522 125.693 65.1964C125.537 65.3406 125.354 65.4514 125.154 65.5221C124.955 65.5927 124.742 65.6216 124.531 65.607L109.553 64.4838L114.298 156.587C114.307 156.724 114.351 156.856 114.426 156.97C114.5 157.084 114.604 157.177 114.725 157.239L149.702 174.907C150.007 175.059 150.345 175.131 150.685 175.115L175.547 173.907C175.752 173.898 175.956 173.928 176.149 173.997C176.341 174.067 176.518 174.173 176.669 174.311C176.821 174.449 176.943 174.615 177.03 174.8C177.117 174.985 177.167 175.186 177.176 175.39L177.536 183.775L175.772 183.848Z" fill="white"/>
<path d="M173.655 79.1081C173.668 77.0298 173.201 74.9766 172.289 73.109C171.377 71.2414 170.046 69.6099 168.399 68.342C166.752 67.0742 164.834 66.2043 162.796 65.8005C160.757 65.3966 158.653 65.4696 156.647 66.0139C154.641 66.5581 152.788 67.5589 151.233 68.9378C149.678 70.3168 148.463 72.0367 147.683 73.963C146.903 75.8894 146.579 77.97 146.737 80.0424C146.894 82.1147 147.528 84.1226 148.59 85.9092L148.63 85.9597C149.146 86.8246 149.792 87.448 150.444 88.3634L158.261 98.7138C158.487 99.0149 158.78 99.2593 159.117 99.4276C159.454 99.5959 159.825 99.6835 160.202 99.6835C160.578 99.6835 160.949 99.5959 161.286 99.4276C161.623 99.2593 161.916 99.0149 162.142 98.7138L169.825 88.5319C170.524 87.706 171.176 86.8417 171.779 85.9428L171.807 85.9092C173.019 83.8478 173.657 81.4994 173.655 79.1081ZM160.176 84.9657C159.004 84.9657 157.859 84.6182 156.884 83.9671C155.91 83.3161 155.151 82.3907 154.702 81.3081C154.254 80.2254 154.136 79.0341 154.365 77.8848C154.594 76.7355 155.158 75.6797 155.987 74.8511C156.815 74.0225 157.871 73.4582 159.02 73.2296C160.17 73.0009 161.361 73.1183 162.444 73.5667C163.526 74.0152 164.452 74.7746 165.103 75.749C165.754 76.7233 166.101 77.8688 166.101 79.0407C166.103 80.6096 165.481 82.115 164.373 83.226C163.266 84.3369 161.762 84.9627 160.193 84.9657H160.176Z" fill="#FFB300"/>
<path d="M101.179 190.2C101.18 189.262 100.964 188.336 100.548 187.495C100.133 186.654 99.5294 185.92 98.7844 185.35C98.0395 184.78 97.1732 184.389 96.2527 184.208C95.3323 184.027 94.3826 184.061 93.4772 184.306C92.5719 184.552 91.7353 185.002 91.0323 185.623C90.3294 186.245 89.7791 187.019 89.424 187.888C89.069 188.756 88.9189 189.694 88.9852 190.63C89.0516 191.566 89.3327 192.474 89.8067 193.283C90.0426 193.682 90.3346 193.963 90.6323 194.406L94.176 199.101C94.2812 199.234 94.4151 199.342 94.5678 199.416C94.7206 199.49 94.8881 199.529 95.0578 199.529C95.2275 199.529 95.395 199.49 95.5477 199.416C95.7004 199.342 95.8344 199.234 95.9395 199.101L99.4215 194.479C99.7391 194.105 100.035 193.713 100.309 193.305C100.874 192.368 101.175 191.295 101.179 190.2ZM95.0746 192.856C94.5421 192.857 94.0212 192.7 93.578 192.405C93.1347 192.11 92.7891 191.69 92.5848 191.198C92.3805 190.706 92.3267 190.165 92.4303 189.643C92.5339 189.12 92.7903 188.64 93.1668 188.264C93.5434 187.887 94.0232 187.631 94.5456 187.527C95.0679 187.424 95.6093 187.478 96.1011 187.682C96.5928 187.886 97.0129 188.232 97.3081 188.675C97.6032 189.118 97.7602 189.639 97.7591 190.172C97.7591 190.884 97.4763 191.566 96.9728 192.07C96.4694 192.573 95.7866 192.856 95.0746 192.856Z" fill="#FFB300"/>
<path d="M174.868 194.592C174.868 194.67 159.631 194.738 140.84 194.738C122.049 194.738 106.807 194.67 106.807 194.592C106.807 194.513 122.043 194.446 140.84 194.446C159.637 194.446 174.868 194.479 174.868 194.592Z" fill="#263238"/>
<path d="M141.784 200.067C141.784 200.151 133.96 200.213 124.312 200.213C114.664 200.213 106.835 200.151 106.835 200.067C106.835 199.983 114.658 199.921 124.312 199.921C133.966 199.921 141.784 199.989 141.784 200.067Z" fill="#263238"/>
<path d="M109.94 181.843L111.109 184.219L113.726 184.601L111.833 186.443L112.282 189.054L109.94 187.824L107.598 189.054L108.042 186.443L106.15 184.601L108.767 184.219L109.94 181.843Z" fill="#FFB300"/>
<path d="M121.027 181.843L122.2 184.219L124.817 184.601L122.919 186.443L123.368 189.054L121.027 187.824L118.685 189.054L119.134 186.443L117.236 184.601L119.858 184.219L121.027 181.843Z" fill="#FFB300"/>
<path d="M132.113 181.843L133.286 184.219L135.904 184.601L134.011 186.443L134.455 189.054L132.113 187.824L129.771 189.054L130.22 186.443L128.327 184.601L130.945 184.219L132.113 181.843Z" fill="#FFB300"/>
<path d="M143.204 181.843L144.373 184.219L146.99 184.601L145.097 186.443L145.546 189.054L143.204 187.824L140.863 189.054L141.306 186.443L139.414 184.601L142.031 184.219L143.204 181.843Z" fill="#FFB300"/>
<path d="M154.291 181.843L155.464 184.219L158.081 184.601L156.189 186.443L156.632 189.054L154.291 187.824L151.949 189.054L152.398 186.443L150.5 184.601L153.122 184.219L154.291 181.843Z" fill="#E0E0E0"/>
<path d="M129.226 210.704C129.226 210.788 124.969 210.85 119.718 210.85C114.467 210.85 110.21 210.788 110.21 210.704C110.21 210.62 114.467 210.558 119.718 210.558C124.969 210.558 129.226 210.625 129.226 210.704Z" fill="#E0E0E0"/>
<path d="M178.086 215.495C178.086 215.573 162.889 215.641 144.148 215.641C125.407 215.641 110.21 215.573 110.21 215.495C110.21 215.416 125.373 215.343 144.148 215.343C162.922 215.343 178.086 215.41 178.086 215.495Z" fill="#E0E0E0"/>
<path d="M97.9388 218.802C101.14 218.802 103.735 216.208 103.735 213.007C103.735 209.806 101.14 207.211 97.9388 207.211C94.7379 207.211 92.143 209.806 92.143 213.007C92.143 216.208 94.7379 218.802 97.9388 218.802Z" fill="#F5F5F5"/>
<path d="M98.6184 212.844C98.9519 212.706 99.2369 212.473 99.4369 212.173C99.637 211.873 99.7431 211.52 99.7416 211.159C99.7453 210.936 99.705 210.714 99.623 210.507C99.541 210.299 99.419 210.11 99.2639 209.949C99.1087 209.789 98.9235 209.661 98.7188 209.572C98.5141 209.483 98.2939 209.436 98.0708 209.432C97.8477 209.428 97.6261 209.469 97.4185 209.551C97.211 209.633 97.0217 209.755 96.8613 209.91C96.7009 210.065 96.5727 210.25 96.4839 210.455C96.3951 210.659 96.3475 210.88 96.3439 211.103C96.3377 211.457 96.4354 211.806 96.6251 212.105C96.8147 212.404 97.0879 212.642 97.4109 212.788C94.7882 213.153 94.8781 215.994 94.8781 215.994L101.056 216.09C101.056 216.09 101.202 213.265 98.6184 212.844Z" fill="#E0E0E0"/>
<path d="M135.381 225.328C135.305 225.326 135.232 225.294 135.179 225.238L132.371 222.307C132.345 222.281 132.324 222.25 132.31 222.216C132.295 222.181 132.288 222.145 132.288 222.108C132.288 222.07 132.295 222.034 132.31 222C132.324 221.965 132.345 221.934 132.371 221.908C132.397 221.882 132.427 221.861 132.461 221.847C132.495 221.833 132.531 221.826 132.568 221.826C132.604 221.826 132.64 221.833 132.674 221.847C132.708 221.861 132.739 221.882 132.764 221.908L135.376 224.626L137.937 221.959C137.99 221.907 138.062 221.878 138.136 221.878C138.21 221.878 138.282 221.907 138.335 221.959C138.362 221.985 138.383 222.016 138.397 222.05C138.411 222.084 138.418 222.121 138.418 222.158C138.418 222.195 138.411 222.232 138.397 222.266C138.383 222.3 138.362 222.331 138.335 222.357L135.606 225.238C135.578 225.27 135.543 225.294 135.504 225.31C135.465 225.326 135.423 225.332 135.381 225.328Z" fill="#263238"/>
<path d="M45.0129 39.9023C44.1341 37.8298 43.4406 35.6836 42.9406 33.4887C42.4368 31.2866 42.4889 28.9937 43.0922 26.8168C43.1933 26.4911 44.0806 24.2896 44.4232 24.3064C44.6647 24.3064 44.1536 26.345 44.2884 26.5528C45.5137 28.5482 46.1015 30.8698 45.9732 33.2079C45.9019 35.4684 45.5779 37.7138 45.0073 39.9023" fill="#263238"/>
<path d="M53.0495 62.1251C49.5619 62.2486 45.6981 55.7789 45.4959 52.3025L44.2884 31.3489C43.783 25.7329 46.6359 20.757 52.2633 20.4088H52.7855C55.3224 20.3994 57.77 21.3441 59.6427 23.0555C61.5153 24.7669 62.6761 27.1198 62.8945 29.6473C63.3045 34.5164 63.692 39.9079 63.6695 42.5193C63.6246 47.9332 58.2107 48.7925 58.2107 48.7925C58.2107 48.7925 58.2556 50.0505 58.3286 51.6342C58.4915 55.2004 58.2444 63.428 54.6782 63.5403L53.0495 62.1251Z" fill="#AD6359"/>
<path d="M58.1995 48.7869C55.7001 48.7901 53.2521 48.0767 51.1457 46.7314C51.1457 46.7314 52.881 50.6627 58.2781 50.1572L58.1995 48.7869Z" fill="#C17267"/>
<path d="M61.1423 34.1176C61.1454 34.3189 61.0695 34.5133 60.9309 34.6592C60.7923 34.8051 60.6021 34.891 60.401 34.8983C60.3027 34.9059 60.2038 34.8939 60.1103 34.8628C60.0167 34.8318 59.9302 34.7824 59.856 34.7176C59.7817 34.6527 59.7211 34.5737 59.6778 34.4852C59.6344 34.3966 59.6092 34.3003 59.6035 34.2019C59.6005 34.1008 59.6174 34.0002 59.6534 33.9057C59.6893 33.8112 59.7435 33.7247 59.8129 33.6512C59.8822 33.5776 59.9654 33.5185 60.0576 33.4771C60.1499 33.4357 60.2494 33.4129 60.3504 33.41C60.4493 33.4024 60.5488 33.4148 60.6427 33.4466C60.7367 33.4784 60.8233 33.5289 60.8973 33.595C60.9712 33.6611 61.0311 33.7414 61.0732 33.8313C61.1153 33.9211 61.1388 34.0185 61.1423 34.1176Z" fill="#263238"/>
<path d="M61.732 31.8937C61.6365 31.9948 61.0524 31.5624 60.2212 31.568C59.3901 31.5736 58.7779 31.9892 58.6881 31.8881C58.5982 31.787 58.7442 31.6634 59.0082 31.4669C59.3676 31.2174 59.7949 31.0841 60.2325 31.085C60.6634 31.0817 61.0843 31.2154 61.4343 31.4669C61.6927 31.6634 61.7825 31.8488 61.732 31.8937Z" fill="#263238"/>
<path d="M53.6111 34.4041C53.6114 34.606 53.5339 34.8002 53.3949 34.9466C53.2558 35.093 53.0658 35.1802 52.8642 35.1903C52.7659 35.198 52.6671 35.1859 52.5735 35.1549C52.4799 35.1239 52.3934 35.0745 52.3192 35.0096C52.2449 34.9448 52.1843 34.8658 52.141 34.7772C52.0976 34.6887 52.0724 34.5924 52.0667 34.4939C52.0622 34.2923 52.1376 34.0971 52.2764 33.9508C52.4153 33.8046 52.6064 33.7192 52.808 33.7133C52.9063 33.7049 53.0053 33.7162 53.0992 33.7465C53.1931 33.7768 53.28 33.8256 53.3547 33.8899C53.4295 33.9542 53.4907 34.0329 53.5348 34.1211C53.5788 34.2094 53.6047 34.3056 53.6111 34.4041Z" fill="#263238"/>
<path d="M53.6111 32.2868C53.5156 32.3879 52.9259 31.9555 52.0948 31.9611C51.2636 31.9667 50.657 32.3823 50.5672 32.2812C50.4773 32.1801 50.6177 32.0565 50.8817 31.86C51.2403 31.6088 51.6682 31.4754 52.106 31.4781C52.5387 31.4748 52.9614 31.6084 53.3135 31.86C53.5493 32.0285 53.6111 32.2138 53.6111 32.2868Z" fill="#263238"/>
<path d="M56.5933 38.6386C57.0295 38.4964 57.4828 38.4133 57.9411 38.3915C58.1545 38.3915 58.3567 38.3241 58.3904 38.1781C58.4081 37.9591 58.3592 37.7398 58.25 37.5491C58.0478 37.038 57.8344 36.4989 57.6154 35.9317C56.7337 33.6347 56.0934 31.7421 56.1889 31.7084C56.2844 31.6747 57.0706 33.5111 57.9524 35.8081C58.1601 36.3697 58.3679 36.9313 58.5589 37.4368C58.6916 37.6924 58.7314 37.9863 58.6712 38.268C58.6406 38.3426 58.5934 38.4093 58.533 38.4628C58.4726 38.5164 58.4008 38.5554 58.323 38.5768C58.2059 38.6099 58.0852 38.6287 57.9636 38.633C57.5087 38.6895 57.0486 38.6914 56.5933 38.6386Z" fill="#263238"/>
<path d="M54.1727 39.2227C54.3075 39.2227 54.3075 40.1156 55.0825 40.7559C55.8576 41.3961 56.8235 41.3175 56.8291 41.4129C56.8348 41.5084 56.6157 41.5927 56.2057 41.6039C55.6772 41.6136 55.1621 41.4366 54.7512 41.1041C54.3585 40.7824 54.1051 40.3218 54.0436 39.818C53.9874 39.4417 54.0885 39.2171 54.1727 39.2227Z" fill="#263238"/>
<path d="M53.5325 28.8835C53.4483 29.1081 52.6171 29.0014 51.6455 29.125C50.6739 29.2485 49.8764 29.5125 49.7473 29.3103C49.6911 29.2148 49.8259 29.0014 50.146 28.7824C50.568 28.5083 51.0494 28.3388 51.55 28.2882C52.0488 28.2244 52.5555 28.2822 53.0271 28.4566C53.3865 28.597 53.5662 28.7768 53.5325 28.8835Z" fill="#263238"/>
<path d="M61.3781 29.1306C61.2321 29.3159 60.6593 29.1306 59.9741 29.1306C59.289 29.1306 58.6993 29.2598 58.5645 29.0632C58.5083 28.9677 58.5982 28.7768 58.8509 28.5971C59.1846 28.3803 59.5764 28.2706 59.9741 28.2826C60.3781 28.2909 60.7699 28.4222 61.0973 28.6588C61.3613 28.8442 61.4736 29.0351 61.3781 29.1306Z" fill="#263238"/>
<path d="M44.7546 35.3532C44.6647 35.3139 41.0311 34.2693 41.1659 37.9703C41.3007 41.6713 44.9848 40.7783 44.9848 40.666C44.9848 40.5537 44.7546 35.3532 44.7546 35.3532Z" fill="#C17267"/>
<path d="M43.8054 39.3069C43.8054 39.3069 43.7437 39.3519 43.637 39.408C43.4815 39.4677 43.3094 39.4677 43.154 39.408C42.9102 39.2634 42.709 39.0567 42.5709 38.8092C42.4328 38.5616 42.3627 38.2818 42.3677 37.9984C42.3451 37.6824 42.3951 37.3655 42.5137 37.0717C42.5431 36.9547 42.6011 36.8467 42.6824 36.7575C42.7638 36.6683 42.866 36.6007 42.9799 36.5607C43.0533 36.5388 43.1321 36.5431 43.2028 36.5728C43.2734 36.6025 43.3316 36.6558 43.3674 36.7235C43.4235 36.8246 43.4011 36.8976 43.4179 36.9033C43.4348 36.9089 43.4966 36.8415 43.4629 36.6898C43.4385 36.5973 43.383 36.5159 43.3056 36.4596C43.2539 36.4234 43.1955 36.3978 43.1338 36.3843C43.0721 36.3708 43.0083 36.3696 42.9462 36.381C42.7962 36.4173 42.6579 36.4909 42.544 36.5949C42.4301 36.699 42.3443 36.8302 42.2947 36.9763C42.1513 37.303 42.0878 37.6591 42.1094 38.0152C42.1035 38.345 42.1946 38.6693 42.3713 38.9479C42.548 39.2264 42.8025 39.4469 43.1034 39.5821C43.2001 39.6024 43.2999 39.6024 43.3966 39.5821C43.4933 39.5618 43.5847 39.5217 43.665 39.4642C43.7998 39.3968 43.8167 39.3126 43.8054 39.3069Z" fill="#EB996E"/>
<path d="M60.2212 23.6213C60.7828 23.2618 58.9183 21.4029 57.4132 20.8132C55.1668 19.9034 51.7241 19.4317 49.7023 20.1056C47.2649 20.9143 45.2656 22.2341 44.1255 24.5311C43.0352 26.8728 42.5856 29.4619 42.8226 32.0342C42.8248 32.8254 43.0401 33.6014 43.446 34.2806C44.0076 35.0781 45.0129 35.5442 45.0185 36.6787C45.0117 36.8853 45.0465 37.0912 45.1208 37.2841C45.1951 37.4771 45.3073 37.6531 45.4509 37.8019C46.1586 38.487 46.956 37.8019 47.3099 37.083C48.0568 35.5948 48.0736 33.865 48.068 32.2026C48.132 31.0193 48.0011 29.8335 47.6805 28.6926C47.4727 28.0861 47.1582 27.5132 46.9841 26.8955C46.8768 26.5912 46.8372 26.2672 46.8683 25.9461C46.8993 25.625 47.0002 25.3145 47.1638 25.0365C47.2487 24.9225 47.3447 24.8172 47.4503 24.722C47.9456 24.2494 48.5578 23.917 49.2239 23.7591C49.8901 23.6012 50.5863 23.6234 51.2411 23.8235C53.3584 24.4693 56.9639 25.4128 57.8625 24.6659C58.5066 24.1978 59.0444 23.5987 59.4406 22.908L60.2212 23.6213Z" fill="#263238"/>
<path d="M49.8764 19.5833C50.8727 19.1795 51.9392 18.9775 53.0142 18.9891C54.0891 19.0007 55.151 19.2256 56.1384 19.6507C56.6668 19.8655 57.1465 20.1846 57.5489 20.5889C57.9512 20.9932 58.268 21.4744 58.4803 22.0038C58.8341 23.0877 58.4297 24.4581 57.3907 24.9298L57.3234 24.9803C55.7677 25.5813 54.7343 25.4128 53.1338 24.941C51.7915 24.5423 50.5784 23.7785 49.2025 23.3854C47.7618 22.9645 46.2278 22.986 44.7995 23.4472C46.123 21.7356 47.8741 20.403 49.8764 19.5833Z" fill="#263238"/>
<path d="M45.2263 22.8911C45.7803 22.6182 46.3842 22.4615 47.001 22.4306C47.6698 22.4171 48.3351 22.5314 48.961 22.7676C49.7291 23.0714 50.4711 23.4377 51.1794 23.8627C51.9003 24.2904 52.651 24.6658 53.4258 24.9859C54.0723 25.2457 54.7621 25.381 55.4588 25.3847C55.9294 25.3887 56.3963 25.3029 56.8348 25.132C56.9985 25.0765 57.1494 24.9887 57.2784 24.8736C56.6988 25.0905 56.0832 25.1954 55.4644 25.1825C54.7957 25.1499 54.1379 24.9997 53.5213 24.7388C52.762 24.4126 52.0248 24.0374 51.3142 23.6156C50.6012 23.1843 49.849 22.8214 49.0677 22.5317C48.4087 22.299 47.71 22.1997 47.0122 22.2397C46.5427 22.2677 46.0839 22.3919 45.6644 22.6047C45.4986 22.6658 45.3488 22.7638 45.2263 22.8911Z" fill="#455A64"/>
<path d="M46.7314 21.6163C47.2597 21.4169 47.818 21.3086 48.3825 21.2962C48.9907 21.3079 49.5925 21.4218 50.1628 21.6331C50.8644 21.9026 51.5348 22.2471 52.1622 22.6609C52.8417 23.0877 53.4819 23.5257 54.0997 23.8739C54.6316 24.1925 55.1965 24.4524 55.7845 24.649C56.1902 24.7791 56.6113 24.8546 57.0369 24.8736C57.1931 24.8912 57.3511 24.8798 57.5031 24.8399C56.9432 24.7576 56.391 24.6298 55.8519 24.458C55.277 24.2418 54.7241 23.971 54.2008 23.6493C53.6055 23.2899 52.9765 22.8518 52.2857 22.4194C51.6472 21.9945 50.9611 21.6458 50.2415 21.3804C49.6391 21.1703 49.0035 21.0713 48.3657 21.0884C47.937 21.1046 47.5147 21.1978 47.1189 21.3636C46.9736 21.42 46.8416 21.5061 46.7314 21.6163Z" fill="#455A64"/>
<path d="M55.3353 20.0606C55.3353 20.0606 55.5262 20.3246 55.8632 20.6952C56.3154 21.1636 56.7027 21.6906 57.0145 22.2621C57.3161 22.8298 57.4615 23.4675 57.4357 24.1098C57.4076 24.604 57.2784 24.8961 57.3177 24.9129C57.3571 24.9298 57.548 24.6602 57.6379 24.1323C57.7273 23.4435 57.5976 22.744 57.2672 22.133C56.9443 21.5368 56.5184 21.0025 56.0092 20.5548C55.6273 20.2123 55.3633 20.0325 55.3353 20.0606Z" fill="#455A64"/>
<path d="M57.9861 21.7174C58.0697 22.275 58.0848 22.8409 58.031 23.4022C57.8869 23.9556 57.6717 24.4879 57.3907 24.9859C57.3907 24.9859 57.5873 24.9017 57.7951 24.6377C58.0561 24.2877 58.2329 23.8822 58.3118 23.4527C58.392 23.0226 58.3669 22.5794 58.2388 22.161C58.1377 21.869 58.0141 21.7005 57.9861 21.7174Z" fill="#455A64"/>
<path d="M42.7103 32.1689C42.5911 32.6921 42.6066 33.237 42.7552 33.7526C42.8191 34.2926 43.06 34.7962 43.4404 35.1848C43.5078 35.1398 43.2045 34.5221 43.036 33.6909C42.982 33.1734 42.8728 32.6632 42.7103 32.1689Z" fill="#FFB300"/>
<path d="M38.9138 203.173L39.4754 215.332C39.4754 215.332 27.2998 219.954 27.1762 222.206L50.7637 222.02L50.7132 203.049L38.9138 203.173Z" fill="#455A64"/>
<path d="M46.737 214.248C46.9741 214.312 47.178 214.463 47.3074 214.672C47.4367 214.88 47.4818 215.13 47.4334 215.371C47.376 215.602 47.2317 215.801 47.0308 215.927C46.8299 216.054 46.5878 216.098 46.3551 216.051C46.1143 215.979 45.9087 215.82 45.7781 215.605C45.6474 215.391 45.6009 215.135 45.6475 214.888C45.7371 214.658 45.912 214.471 46.1359 214.366C46.3597 214.262 46.6152 214.248 46.8494 214.326" fill="#E0E0E0"/>
<path d="M50.7525 222.02L50.6739 220.111L28.0748 220.987C28.0748 220.987 27.0246 221.453 27.1481 222.189L50.7525 222.02Z" fill="white"/>
<path d="M39.0655 215.214C39.0655 215.326 39.6271 215.377 40.2168 215.742C40.8065 216.107 41.0929 216.59 41.194 216.545C41.2951 216.5 41.1266 215.832 40.4246 215.422C39.7226 215.012 39.0374 215.107 39.0655 215.214Z" fill="#263238"/>
<path d="M36.5944 216.253C36.5944 216.365 37.0718 216.562 37.4649 217.045C37.858 217.528 37.9759 218.044 38.0939 218.039C38.2118 218.033 38.2736 217.376 37.7738 216.786C37.2739 216.197 36.6 216.146 36.5944 216.253Z" fill="#263238"/>
<path d="M35.2128 219.229C35.3195 219.229 35.4712 218.668 35.1735 218.044C34.8759 217.421 34.3311 217.174 34.2806 217.269C34.23 217.365 34.5726 217.696 34.8085 218.218C35.0443 218.741 35.078 219.218 35.2128 219.229Z" fill="#263238"/>
<path d="M39.2508 212.428C39.3014 212.535 39.8124 212.372 40.4807 212.428C41.1491 212.484 41.6377 212.67 41.6994 212.569C41.7612 212.468 41.267 212.063 40.4976 212.007C39.7282 211.951 39.1947 212.338 39.2508 212.428Z" fill="#263238"/>
<path d="M74.5647 203.173L74.0368 215.332C74.0368 215.332 86.2125 219.954 86.3304 222.206L62.7429 222.02L62.799 203.049L74.5647 203.173Z" fill="#455A64"/>
<path d="M66.7471 214.248C66.5189 214.315 66.3234 214.463 66.198 214.666C66.0726 214.868 66.0262 215.109 66.0676 215.343C66.1275 215.573 66.2731 215.772 66.4746 215.898C66.6761 216.024 66.9182 216.069 67.1515 216.023C67.3923 215.951 67.5979 215.792 67.7286 215.577C67.8592 215.362 67.9057 215.107 67.8591 214.86C67.7695 214.63 67.5946 214.443 67.3707 214.338C67.1469 214.234 66.8914 214.219 66.6573 214.298" fill="#E0E0E0"/>
<path d="M62.726 222.02L62.8103 220.111L85.4094 220.987C85.4094 220.987 86.4539 221.453 86.3304 222.189L62.726 222.02Z" fill="white"/>
<path d="M74.4187 215.214C74.4187 215.326 73.8571 215.377 73.2674 215.742C72.6777 216.107 72.3913 216.59 72.2846 216.545C72.1779 216.5 72.3576 215.832 73.054 215.422C73.7504 215.012 74.4468 215.107 74.4187 215.214Z" fill="#263238"/>
<path d="M76.8898 216.253C76.8898 216.365 76.4124 216.562 76.0193 217.045C75.6261 217.528 75.5026 218.044 75.3903 218.039C75.278 218.033 75.2049 217.376 75.7104 216.786C76.2158 216.197 76.8841 216.146 76.8898 216.253Z" fill="#263238"/>
<path d="M78.2713 219.229C78.1646 219.229 78.0074 218.668 78.3106 218.044C78.6139 217.421 79.153 217.174 79.198 217.269C79.2429 217.365 78.9115 217.696 78.6701 218.218C78.4286 218.741 78.3836 219.218 78.2713 219.229Z" fill="#263238"/>
<path d="M74.2334 212.428C74.1828 212.535 73.6717 212.372 73.0034 212.428C72.3351 212.484 71.8409 212.67 71.7847 212.569C71.7286 212.468 72.2172 212.063 72.9866 212.007C73.756 211.951 74.2895 212.338 74.2334 212.428Z" fill="#263238"/>
<path d="M33.8762 111.558C33.8762 112.299 38.6555 212.322 38.6555 212.322L51.067 212.439L55.0994 127.373C55.0994 127.373 60.2886 172.071 60.2886 173.059C60.2886 174.048 61.7601 212.934 61.7601 212.934H74.8568V120.212L66.4326 106.633L33.8762 111.558Z" fill="#263238"/>
<path d="M68.1736 212.922C68.1648 212.848 68.1648 212.772 68.1736 212.698C68.1736 212.535 68.1736 212.316 68.1736 212.035C68.1736 211.434 68.1736 210.58 68.1736 209.485C68.1399 207.267 68.0725 204.06 67.9602 200.101C67.7187 192.177 67.2694 181.242 66.7134 169.162C66.1574 157.082 65.5902 146.136 65.2083 138.223C65.0174 134.292 64.8601 131.079 64.7534 128.85C64.7085 127.755 64.6748 126.895 64.6467 126.3C64.6467 126.019 64.6467 125.8 64.6467 125.637C64.6393 125.561 64.6393 125.484 64.6467 125.407C64.6641 125.481 64.6735 125.556 64.6748 125.632C64.6748 125.795 64.6748 126.014 64.7253 126.294C64.759 126.895 64.8152 127.749 64.8826 128.844C65.0117 131.09 65.1971 134.269 65.4442 138.212C65.8879 146.125 66.4663 157.059 67.0335 169.145C67.6008 181.231 68.0107 192.171 68.1961 200.095C68.2859 204.06 68.3196 207.267 68.3196 209.48C68.3196 210.603 68.3196 211.434 68.3196 212.035C68.3196 212.316 68.3196 212.535 68.3196 212.698C68.2801 212.778 68.2311 212.854 68.1736 212.922Z" fill="#455A64"/>
<path d="M45.3049 125.418C45.3836 125.418 45.378 144.884 45.3049 168.898C45.2319 192.912 45.0803 212.383 45.0017 212.383C44.9231 212.383 44.9287 192.918 45.0017 168.898C45.0747 144.878 45.2263 125.413 45.3049 125.418Z" fill="#455A64"/>
<path d="M56.0934 122.593C55.9178 122.704 55.7292 122.793 55.5318 122.857C55.1443 123.003 54.5771 123.211 53.8807 123.458L53.7515 123.503V123.363C53.6729 122.133 53.5774 120.487 53.4932 118.685C53.3977 116.73 53.3303 114.961 53.2966 113.681C53.2966 113.04 53.2966 112.518 53.2966 112.164C53.2706 111.978 53.2706 111.789 53.2966 111.603C53.3453 111.786 53.3736 111.975 53.3809 112.164C53.4146 112.518 53.4539 113.035 53.4988 113.675C53.5831 114.956 53.6841 116.725 53.774 118.679C53.8639 120.482 53.9256 122.127 53.9593 123.357L53.8189 123.262C54.5266 123.037 55.0994 122.863 55.5038 122.745C55.6935 122.671 55.8915 122.62 56.0934 122.593Z" fill="#455A64"/>
<path d="M54.9871 111.962C54.9871 111.962 55.032 111.884 55.178 111.827C55.3933 111.765 55.6244 111.787 55.8239 111.889C55.9825 111.962 56.1147 112.082 56.2022 112.233C56.2897 112.384 56.3283 112.558 56.3125 112.732C56.2948 112.945 56.2104 113.147 56.0712 113.309C55.9321 113.471 55.7453 113.586 55.5374 113.636C55.3265 113.67 55.1103 113.638 54.9176 113.546C54.7249 113.454 54.565 113.305 54.4591 113.119C54.3918 112.997 54.3511 112.862 54.3398 112.722C54.3284 112.583 54.3467 112.443 54.3934 112.312C54.4401 112.18 54.5142 112.06 54.6107 111.959C54.7072 111.858 54.824 111.779 54.9534 111.726C55.0994 111.67 55.1836 111.681 55.1892 111.726C55.1949 111.771 54.8579 111.844 54.6557 112.288C54.5963 112.404 54.5681 112.533 54.574 112.663C54.5799 112.793 54.6197 112.919 54.6894 113.029C54.7722 113.16 54.891 113.264 55.0315 113.329C55.172 113.393 55.3282 113.416 55.4813 113.394C55.6287 113.355 55.7609 113.273 55.861 113.157C55.9611 113.042 56.0245 112.9 56.0429 112.748C56.0574 112.623 56.0349 112.496 55.978 112.383C55.9211 112.27 55.8323 112.177 55.7228 112.114C55.5022 111.98 55.2424 111.927 54.9871 111.962Z" fill="#455A64"/>
<path d="M61.6814 113.012C61.6028 113.012 61.4961 112.574 61.4399 112.024C61.3838 111.474 61.4006 111.013 61.4792 111.002C61.5579 110.991 61.6646 111.44 61.7263 111.99C61.7881 112.541 61.7657 113.001 61.6814 113.012Z" fill="#455A64"/>
<path d="M62.6979 112.911C62.6137 112.911 62.5519 112.439 62.5463 111.855C62.5407 111.271 62.6081 110.8 62.6867 110.8C62.7653 110.8 62.8327 111.271 62.8327 111.855C62.8327 112.439 62.7765 112.911 62.6979 112.911Z" fill="#455A64"/>
<path d="M45.1084 113.613C44.8304 112.844 44.7399 112.02 44.8444 111.21C45.1223 111.978 45.2128 112.802 45.1084 113.613Z" fill="#455A64"/>
<path d="M46.3102 113.72C46.0539 113.357 45.9291 112.917 45.9564 112.473C45.8908 112.034 45.9802 111.585 46.2091 111.204C46.2638 111.621 46.2751 112.043 46.2428 112.462C46.3107 112.878 46.3333 113.299 46.3102 113.72Z" fill="#455A64"/>
<path d="M28.0636 226.081L32.1689 229.838C33.7283 231.27 35.7693 232.062 37.8861 232.056H75.4127C77.5237 232.057 79.558 231.266 81.1131 229.838L85.2184 226.081H28.0636Z" fill="#FFB300"/>
<path d="M86.8695 221.768H26.9347V226.21H86.8695V221.768Z" fill="#FFB300"/>
<path d="M22.0263 208.368H21.0379C18.876 208.368 17.1234 210.12 17.1234 212.282V236.802C17.1234 238.964 18.876 240.716 21.0379 240.716H22.0263C24.1882 240.716 25.9407 238.964 25.9407 236.802V212.282C25.9407 210.12 24.1882 208.368 22.0263 208.368Z" fill="#263238"/>
<path d="M21.8746 240.284C21.796 240.284 21.5995 233.348 21.4422 224.784C21.285 216.219 21.2232 209.283 21.3074 209.283C21.3917 209.283 21.577 216.219 21.7342 224.778C21.8915 233.337 21.9533 240.284 21.8746 240.284Z" fill="#455A64"/>
<path d="M21.5995 237.869C20.7789 236.993 20.0278 236.054 19.353 235.061C18.5926 234.12 17.9125 233.117 17.32 232.062C18.1406 232.938 18.8917 233.877 19.5664 234.87C20.3246 235.813 21.0045 236.816 21.5995 237.869Z" fill="#455A64"/>
<path d="M21.8409 234.118C20.9868 233.15 20.2041 232.121 19.499 231.04C18.714 230.016 18.0098 228.933 17.393 227.799C18.2471 228.767 19.0298 229.796 19.7349 230.877C20.5186 231.902 21.2227 232.985 21.8409 234.118Z" fill="#455A64"/>
<path d="M21.3074 229.321C20.4877 228.286 19.748 227.189 19.0947 226.042C18.3488 224.95 17.6843 223.805 17.1066 222.616C17.936 223.65 18.6869 224.744 19.353 225.89C20.0861 226.985 20.7393 228.132 21.3074 229.321Z" fill="#455A64"/>
<path d="M21.3074 225.413C21.0383 225.112 20.8098 224.778 20.6279 224.419C20.2404 223.784 19.7237 222.897 19.1677 221.914C18.6117 220.931 18.1231 220.027 17.7861 219.37C17.5736 219.03 17.4074 218.664 17.2919 218.28C17.5545 218.595 17.7824 218.938 17.9715 219.302C18.359 219.937 18.8757 220.819 19.426 221.801C19.9764 222.784 20.465 223.677 20.8076 224.334C21.0136 224.674 21.1813 225.036 21.3074 225.413Z" fill="#455A64"/>
<path d="M21.2232 221.116C20.3578 220.116 19.6202 219.013 19.0273 217.831C18.4657 216.876 18.0445 216 17.7356 215.36C17.5407 215.024 17.3915 214.663 17.2919 214.287C18.0186 215.383 18.6823 216.519 19.28 217.69C19.8136 218.634 20.3021 219.488 20.6672 220.1C20.8877 220.418 21.0741 220.759 21.2232 221.116Z" fill="#455A64"/>
<path d="M20.7121 216.657C20.1235 215.782 19.6124 214.858 19.1845 213.894C18.6723 212.971 18.2456 212.003 17.9097 211.002C18.5054 211.873 19.0187 212.798 19.4429 213.765C19.956 214.687 20.3809 215.655 20.7121 216.657Z" fill="#455A64"/>
<path d="M25.5644 231.528C25.1211 232.649 24.5897 233.732 23.9751 234.769C23.4438 235.85 22.8259 236.887 22.1274 237.869C22.5741 236.749 23.1074 235.666 23.7223 234.629C24.2521 233.547 24.8681 232.511 25.5644 231.528Z" fill="#455A64"/>
<path d="M25.4633 226.873C25.1363 228.084 24.651 229.248 24.02 230.332C23.5426 231.248 23.0877 232.062 22.7395 232.646C22.5794 232.978 22.3734 233.287 22.1274 233.562C22.5973 232.404 23.1433 231.278 23.7617 230.192C24.239 229.276 24.6546 228.445 24.9523 227.839C25.0853 227.498 25.2567 227.174 25.4633 226.873Z" fill="#455A64"/>
<path d="M25.5644 220.673C25.1292 222.017 24.6038 223.33 23.9919 224.604C23.4677 225.911 22.856 227.181 22.1611 228.406C22.597 227.061 23.1242 225.748 23.7392 224.475C24.2589 223.167 24.8687 221.896 25.5644 220.673Z" fill="#455A64"/>
<path d="M25.0927 217.168C24.8063 218.251 24.4306 219.309 23.9694 220.33C23.5936 221.386 23.1277 222.409 22.5767 223.385C22.8569 222.3 23.2327 221.242 23.6999 220.223C24.0757 219.167 24.5417 218.145 25.0927 217.168Z" fill="#455A64"/>
<path d="M24.6939 213.012C24.533 214.117 24.2094 215.192 23.7336 216.202C23.346 217.252 22.8047 218.238 22.1274 219.128C22.0544 219.083 22.762 217.775 23.464 216.09C24.166 214.405 24.6097 212.99 24.6939 213.012Z" fill="#455A64"/>
<path d="M18.2298 208.07L26.9347 223.514V210.67C26.9425 210.044 26.7057 209.44 26.2746 208.986C25.8435 208.531 25.2522 208.263 24.6265 208.239L18.2298 208.07Z" fill="#FFB300"/>
<path d="M26.9347 215.607H25.4633V227.631H26.9347V215.607Z" fill="#FFB300"/>
<path d="M92.4126 240.705H93.401C95.5629 240.705 97.3154 238.953 97.3154 236.791V212.277C97.3154 210.115 95.5629 208.362 93.401 208.362H92.4126C90.2507 208.362 88.4982 210.115 88.4982 212.277V236.791C88.4982 238.953 90.2507 240.705 92.4126 240.705Z" fill="#263238"/>
<path d="M92.5643 240.273C92.48 240.273 92.5643 233.331 92.7047 224.772C92.8451 216.213 93.0528 209.266 93.1315 209.272C93.2101 209.278 93.1315 216.213 92.9911 224.778C92.8507 233.342 92.6429 240.278 92.5643 240.273Z" fill="#455A64"/>
<path d="M92.845 237.835C94.1212 235.781 95.5598 233.831 97.147 232.006C96.5506 233.065 95.8708 234.076 95.1139 235.027C94.433 236.022 93.6743 236.961 92.845 237.835Z" fill="#455A64"/>
<path d="M92.5923 234.106C93.2132 232.975 93.9171 231.892 94.6984 230.866C95.4021 229.782 96.1868 228.753 97.0459 227.788C96.4226 228.921 95.7169 230.006 94.9343 231.034C94.2326 232.116 93.4497 233.143 92.5923 234.106Z" fill="#455A64"/>
<path d="M93.1315 229.31C93.7043 228.121 94.3612 226.974 95.0971 225.879C95.7529 224.734 96.4925 223.64 97.3098 222.605C96.0847 224.94 94.6881 227.181 93.1315 229.31Z" fill="#455A64"/>
<path d="M93.1315 225.401C93.2543 225.02 93.4221 224.654 93.6313 224.312C93.9683 223.655 94.4569 222.756 95.0072 221.773C95.5576 220.791 96.0799 219.909 96.4618 219.274C96.6472 218.913 96.8774 218.578 97.147 218.275C97.023 218.653 96.8573 219.017 96.6528 219.358C96.3102 220.016 95.8216 220.914 95.2656 221.903C94.7096 222.891 94.1929 223.773 93.8054 224.407C93.624 224.766 93.3975 225.1 93.1315 225.401Z" fill="#455A64"/>
<path d="M93.2157 221.105C93.368 220.748 93.5562 220.408 93.7773 220.089C94.1367 219.476 94.6253 218.623 95.1589 217.679C95.7571 216.507 96.4228 215.371 97.1526 214.276C97.0498 214.651 96.9008 215.011 96.7089 215.349C96.3944 215.989 95.9451 216.871 95.4116 217.82C94.8152 219 94.0779 220.103 93.2157 221.105Z" fill="#455A64"/>
<path d="M93.7212 216.646C94.0571 215.645 94.4838 214.677 94.996 213.754C95.4213 212.789 95.9325 211.864 96.5236 210.99C96.1912 211.992 95.7663 212.96 95.2543 213.883C94.8286 214.849 94.3154 215.773 93.7212 216.646Z" fill="#455A64"/>
<path d="M88.8689 231.517C90.1839 233.527 91.3334 235.64 92.3059 237.835C91.6065 236.855 90.9904 235.818 90.4638 234.735C89.8499 233.705 89.3167 232.629 88.8689 231.517Z" fill="#455A64"/>
<path d="M88.9924 226.862C89.2002 227.165 89.3735 227.491 89.5091 227.833C89.8011 228.44 90.2224 229.271 90.6941 230.186C91.3152 231.271 91.8613 232.397 92.3284 233.556C92.0852 233.279 91.8794 232.971 91.7162 232.64C91.3737 232.079 90.9131 231.242 90.4358 230.327C89.8072 229.239 89.322 228.074 88.9924 226.862Z" fill="#455A64"/>
<path d="M88.8689 220.661C89.5692 221.887 90.1846 223.159 90.7109 224.469C91.3257 225.741 91.8511 227.055 92.2834 228.4C91.5864 227.174 90.9728 225.902 90.447 224.593C89.832 223.32 89.3048 222.006 88.8689 220.661Z" fill="#455A64"/>
<path d="M89.3406 217.157C89.8957 218.131 90.3618 219.154 90.7334 220.212C91.1958 221.233 91.5715 222.29 91.8566 223.374C91.3056 222.397 90.8396 221.375 90.4638 220.319C90.0005 219.299 89.6247 218.241 89.3406 217.157Z" fill="#455A64"/>
<path d="M89.745 213.001C89.8236 213.001 90.2616 214.399 90.9693 216.079C91.6769 217.758 92.3789 219.072 92.3059 219.117C91.0357 217.279 90.1635 215.196 89.745 213.001Z" fill="#455A64"/>
<path d="M95.5857 207.728L86.8695 222.891V210.317C86.8692 209.698 87.1101 209.103 87.541 208.658C87.9719 208.214 88.5589 207.954 89.1777 207.935L95.5857 207.728Z" fill="#FFB300"/>
<path d="M88.4982 214.967H86.8695V226.21H88.4982V214.967Z" fill="#FFB300"/>
<path d="M88.5094 226.244C88.5094 226.322 74.3345 226.39 56.8572 226.39C39.38 226.39 25.1994 226.322 25.1994 226.244C25.1994 226.165 39.3687 226.098 56.8572 226.098C74.3457 226.098 88.5094 226.165 88.5094 226.244Z" fill="#263238"/>
<path d="M30.9334 134.393C30.9334 134.393 30.5515 128.277 25.5363 128.911C20.5212 129.546 20.3864 134.056 20.3864 134.056L18.2298 133.674C18.2298 133.674 19.0273 127.283 26.0923 127.463C33.1573 127.642 33.0169 134.825 33.0169 134.825L30.9334 134.393Z" fill="#455A64"/>
<g opacity="0.3">
<path opacity="0.3" d="M30.9334 134.393C30.9334 134.393 30.5515 128.277 25.5363 128.911C20.5212 129.546 20.3864 134.056 20.3864 134.056L18.2298 133.674C18.2298 133.674 19.0273 127.283 26.0923 127.463C33.1573 127.642 33.0169 134.825 33.0169 134.825L30.9334 134.393Z" fill="black"/>
</g>
<path d="M7.3683 132.618L6.26755 161.496L44.4625 162.198L45.114 133.663L7.3683 132.618Z" fill="#455A64"/>
<path d="M45.114 133.663C45.114 133.663 45.114 133.708 45.0466 133.781L44.8163 134.101C44.5917 134.404 44.2884 134.808 43.9121 135.325C43.1147 136.381 41.9802 137.92 40.4976 139.767C38.7979 141.966 36.866 143.975 34.7355 145.76C33.4637 146.795 32.0699 147.67 30.5852 148.366C28.9651 149.128 27.2122 149.569 25.424 149.663C23.6426 149.718 21.8704 149.386 20.2291 148.691C18.7069 148.049 17.2907 147.18 16.0283 146.114C13.9227 144.284 12.1532 142.1 10.7997 139.661C9.87402 138.036 9.03055 136.366 8.2725 134.657L7.66034 133.264L7.50871 132.899C7.47501 132.815 7.46378 132.77 7.4694 132.77C7.4946 132.807 7.51712 132.847 7.53679 132.888L7.7165 133.241L8.3792 134.612C8.94081 135.797 9.77761 137.527 10.9794 139.554C12.3457 141.952 14.1121 144.098 16.2024 145.9C17.4486 146.942 18.8437 147.792 20.3415 148.422C21.9398 149.093 23.6631 149.415 25.3959 149.365C27.1346 149.279 28.8399 148.856 30.4167 148.118C31.8937 147.441 33.2819 146.585 34.5501 145.569C36.6719 143.804 38.6031 141.822 40.3122 139.655C41.8173 137.83 42.9799 136.313 43.7998 135.275L44.7489 134.09L45.0073 133.781C45.0389 133.738 45.0746 133.698 45.114 133.663Z" fill="#263238"/>
<path d="M39.2339 162.103C39.1497 162.103 40.3122 155.869 41.823 148.214C43.3337 140.559 44.631 134.365 44.704 134.382C44.777 134.398 43.6257 140.615 42.115 148.27C40.6043 155.925 39.3126 162.119 39.2339 162.103Z" fill="#263238"/>
<path d="M44.9511 133.882C44.9608 133.977 44.9608 134.073 44.9511 134.168C44.9511 134.393 44.9511 134.668 44.9511 134.999C44.923 135.718 44.8556 136.752 44.7658 138.038C44.5805 140.599 44.2547 144.137 43.856 148.034C43.4572 151.932 43.1203 155.425 42.8619 158.025C42.744 159.272 42.6485 160.272 42.5811 161.052L42.4969 161.878C42.4936 161.975 42.4765 162.072 42.4463 162.164C42.4305 162.068 42.4305 161.969 42.4463 161.872C42.4463 161.648 42.4463 161.378 42.4463 161.047C42.4463 160.328 42.5418 159.289 42.6317 158.008C42.817 155.442 43.1427 151.909 43.5415 148.006C43.9402 144.103 44.2772 140.615 44.5355 138.021C44.6535 136.774 44.7489 135.774 44.8163 134.988C44.8556 134.662 44.8837 134.387 44.9062 134.168C44.9068 134.071 44.922 133.974 44.9511 133.882Z" fill="#263238"/>
<path d="M24.9434 148.584L23.8035 148.603L23.8398 150.726L24.9797 150.706L24.9434 148.584Z" fill="#263238"/>
<path d="M45.114 133.663C44.987 133.676 44.859 133.676 44.7321 133.663H43.6089L39.5709 133.607L26.2664 133.298L12.9619 132.899L8.92958 132.742L7.80636 132.686C7.67988 132.686 7.55371 132.673 7.43008 132.646C7.55703 132.633 7.68504 132.633 7.81198 132.646H8.93519L12.9675 132.708L26.2776 133.017L39.5821 133.416L43.6145 133.573L44.7377 133.629C44.864 133.627 44.9902 133.638 45.114 133.663Z" fill="#263238"/>
<path d="M24.1829 117.612C24.1829 117.612 21.6781 124.548 21.5995 125.649C21.5208 126.749 20.4088 128.507 21.6725 128.917C21.6725 128.917 21.4591 129.771 22.7957 130.08C22.7957 130.08 22.7957 131.534 24.5591 131.377C24.5591 131.377 25.7666 132.562 26.7606 131.939C26.7606 131.939 28.2994 132.702 28.9284 131.579C29.4155 130.642 29.8395 129.674 30.1977 128.681L31.1973 129.467C31.5553 128.664 31.6592 127.771 31.495 126.907C31.203 125.559 29.4957 123.851 29.8776 122.167C29.9761 121.558 30.1477 120.965 30.3886 120.398L24.1829 117.612Z" fill="#AD6359"/>
<g opacity="0.3">
<path opacity="0.3" d="M37.375 143.165C35.9576 146.502 33.7136 149.422 30.8548 151.651C28.8386 153.28 26.3282 154.577 23.7504 154.307C21.504 154.072 19.5271 152.679 17.8872 151.112C14.5645 147.947 12.1386 143.96 10.8559 139.554C10.8559 139.554 17.0336 149.753 24.385 149.612C31.012 149.455 37.375 143.165 37.375 143.165Z" fill="black"/>
</g>
<path d="M63.3494 52.5047C63.3494 52.5047 73.4078 54.5827 74.649 56.1046C75.643 57.3177 80.9221 69.6225 80.9221 69.6225L85.1791 77.1705C86.0747 77.8969 86.7319 78.875 87.0661 79.9786C87.5967 82.4533 87.8528 84.9789 87.8299 87.5097C87.8299 87.5097 87.0717 92.4743 83.966 92.6821C82.5031 92.7413 81.0431 92.5097 79.6703 92.0007C78.2976 91.4917 77.0394 90.7154 75.9687 89.7168C74.1547 88.0938 69.718 77.0919 69.8753 76.5303L63.3494 52.5047Z" fill="#FFB300"/>
<path d="M44.923 50.2583L45.3611 49.7529L49.9438 54.9421L53.6223 58.9688L58.2331 49.2193L59.5698 50.2021C59.5698 50.2021 64.5344 87.7793 64.4501 88.2174C64.3659 88.6554 66.3708 109.165 66.3708 109.165C66.3708 109.165 55.807 111.266 52.7462 110.289C49.6855 109.311 42.8788 110.85 42.9237 110.536C42.9686 110.221 40.0033 97.6636 40.0033 97.6636L40.8738 63.2258L44.923 50.2583Z" fill="#FAFAFA"/>
<path d="M64.5793 104.571C64.3201 104.536 64.0646 104.477 63.8155 104.397C63.3326 104.268 62.6362 104.06 61.7825 103.768C59.5644 103.015 57.4055 102.097 55.324 101.022C53.2431 99.9458 51.244 98.7182 49.3429 97.3491C48.6128 96.8212 48.0344 96.3775 47.6581 96.0574C47.4545 95.9017 47.2665 95.7268 47.0965 95.5351C47.3248 95.6616 47.5427 95.8062 47.7479 95.9675C48.1523 96.2596 48.7476 96.6808 49.4833 97.1862C51.4128 98.4951 53.4174 99.6897 55.4869 100.764C57.5598 101.829 59.6961 102.767 61.8836 103.572C62.7204 103.881 63.4056 104.133 63.8773 104.285C64.1194 104.359 64.3544 104.455 64.5793 104.571Z" fill="#263238"/>
<path d="M53.6111 58.9688C53.6258 59.1107 53.6258 59.2537 53.6111 59.3956C53.6111 59.6989 53.6111 60.1089 53.6111 60.6143C53.6111 61.7095 53.6111 63.237 53.5774 65.1072C53.5774 68.9037 53.5494 74.1491 53.6224 79.9393C53.6954 85.7294 53.8358 90.9805 53.9481 94.7713C54.0043 96.6471 54.0492 98.1747 54.0829 99.2642C54.0829 99.7696 54.0829 100.18 54.0829 100.483C54.0988 100.625 54.0988 100.768 54.0829 100.91C54.0562 100.771 54.0412 100.63 54.038 100.488C54.038 100.18 53.9874 99.7752 53.9593 99.2642C53.8919 98.2084 53.8189 96.6696 53.7347 94.7713C53.5718 90.9748 53.3977 85.7294 53.3191 79.9336C53.2405 74.1378 53.2854 68.8924 53.364 65.096C53.4033 63.1977 53.4427 61.6589 53.4876 60.6031C53.4876 60.092 53.5269 59.6877 53.5381 59.3788C53.5499 59.2402 53.5744 59.103 53.6111 58.9688Z" fill="#263238"/>
<path d="M55.953 108.952C55.7712 107.649 55.683 106.336 55.689 105.021C55.5945 103.712 55.5945 102.398 55.689 101.089C55.8709 102.392 55.9591 103.706 55.953 105.021C56.0475 106.329 56.0475 107.643 55.953 108.952Z" fill="#263238"/>
<path d="M44.6534 50.7244L41.2557 54.4423C41.2557 54.4423 36.9706 55.4869 32.1296 57.0987C31.1569 57.5015 30.2881 58.1196 29.5887 58.9066C28.8893 59.6935 28.3775 60.6288 28.0916 61.6421C27.7266 62.872 33.8987 92.6709 33.8987 92.6709L32.8316 101.252L29.5406 126.002C29.5406 126.002 35.2465 128.035 38.9082 128.181C40.9693 128.266 41.3119 120.195 42.1824 114.602C43.0192 109.199 45.187 91.9015 45.187 87.0829C45.187 82.2643 44.1817 59.0418 44.1817 58.542C44.1817 58.0422 44.6534 50.7244 44.6534 50.7244Z" fill="#FFB300"/>
<path d="M44.5243 94.2828C44.4667 94.139 44.4216 93.9906 44.3895 93.8391C44.3053 93.519 44.1986 93.0978 44.0582 92.5642C43.7774 91.441 43.3786 89.818 42.8956 87.8523C41.9353 83.8425 40.6492 78.3499 39.1666 72.2846C38.7622 70.5604 38.3635 68.8868 37.9872 67.2806V67.2357V67.1964L40.7952 60.2549L40.9019 60.4178H38.1444H37.9591L38.0546 60.2605C39.1778 58.3455 40.1045 56.7898 40.7615 55.6834L41.5085 54.4479C41.5892 54.2993 41.6832 54.1584 41.7893 54.0267C41.7219 54.1829 41.645 54.3348 41.559 54.4816L40.857 55.7452C40.228 56.8684 39.335 58.4353 38.2399 60.3673L38.1444 60.21H40.9019H41.0817L41.0143 60.3785C40.1999 62.4564 39.2733 64.804 38.2792 67.3368V67.2526C38.6611 68.8531 39.0542 70.5267 39.4642 72.2509L43.1091 87.8355C43.5583 89.8124 43.9234 91.4242 44.1817 92.5699C44.2997 93.1315 44.3951 93.5414 44.4625 93.8615C44.4927 94.0004 44.5133 94.1411 44.5243 94.2828Z" fill="#263238"/>
<path d="M59.5473 50.0505L61.7263 52.033L74.2221 55.5711L74.3906 75.5307L72.5261 95.5408L76.3506 125.413C72.015 127.8 65.5453 127.288 65.5453 127.288L62.5744 109.834C62.1082 106.576 60.4852 84.6231 60.4852 84.6231L59.5473 50.0505Z" fill="#FFB300"/>
<path d="M64.0402 90.593C64.0409 90.444 64.056 90.2954 64.0851 90.1493C64.1356 89.8404 64.1974 89.4192 64.2761 88.8969C64.4502 87.7737 64.6916 86.218 64.9893 84.2973C65.5509 80.411 66.3315 75.0308 66.9998 69.0721C67.3312 66.09 67.612 63.2483 67.8479 60.648C67.9602 59.3563 68.0613 58.1264 68.1624 56.9695C68.2073 56.4079 68.2972 55.8126 67.9827 55.4419C67.8 55.2871 67.5808 55.1816 67.3459 55.1354C67.1109 55.0892 66.8681 55.1039 66.6404 55.178C66.179 55.2899 65.7056 55.3446 65.2308 55.3408C64.8007 55.3058 64.3859 55.165 64.0233 54.9309C63.4635 54.5448 62.9831 54.0548 62.6081 53.4875C62.2936 53.0326 62.0465 52.6676 61.9341 52.4149C61.8513 52.2914 61.7817 52.1597 61.7263 52.0217C61.8191 52.1373 61.9036 52.2593 61.9791 52.3868C62.1419 52.6226 62.3722 52.9821 62.6979 53.4201C63.0784 53.9607 63.5565 54.4255 64.1076 54.7905C64.4469 55.0013 64.8323 55.1266 65.2308 55.1555C65.6914 55.1526 66.1498 55.0923 66.5955 54.9758C66.8523 54.9245 67.1148 54.9075 67.3761 54.9252C67.6694 54.9441 67.9436 55.0772 68.1399 55.2959C68.3296 55.531 68.431 55.8251 68.4263 56.1271C68.4319 56.4158 68.4207 56.7046 68.3926 56.992C68.2972 58.1433 68.2017 59.3788 68.1006 60.6705C67.8816 63.2651 67.6064 66.1125 67.275 69.0946C66.6067 75.0589 65.8149 80.4391 65.1802 84.3198C64.8545 86.2574 64.5793 87.8242 64.3771 88.9081C64.276 89.4248 64.1918 89.8404 64.13 90.1493C64.1145 90.2997 64.0844 90.4483 64.0402 90.593Z" fill="#263238"/>
<path d="M72.498 69.5495C71.8252 69.7092 71.1328 69.7697 70.4425 69.7292C69.7536 69.7891 69.0597 69.7513 68.3814 69.6169C69.0572 69.4648 69.7507 69.4063 70.4425 69.4428C71.1293 69.3823 71.8212 69.4182 72.498 69.5495Z" fill="#263238"/>
<g opacity="0.3">
<path opacity="0.3" d="M74.7276 80.0235C75.5675 78.9063 76.7816 78.1288 78.1478 77.8333C78.4791 77.7659 78.9172 77.7771 79.0463 78.086C79.0786 78.2145 79.0741 78.3495 79.0334 78.4756C78.9927 78.6017 78.9174 78.7138 78.8161 78.7992L78.3949 79.3103C77.084 80.5534 76.2563 82.2209 76.0586 84.0166C75.8025 83.1894 75.8116 82.3028 76.0845 81.4811C76.3574 80.6593 76.8805 79.9435 77.5805 79.4338C76.2439 79.7034 75.2274 80.7536 74.3007 81.7533C74.2198 81.4524 74.2165 81.1359 74.2911 80.8334C74.3658 80.5308 74.5159 80.2522 74.7276 80.0235Z" fill="black"/>
</g>
<path d="M73.7841 82.225C73.7841 82.225 73.9413 81.9779 74.2277 81.6129C74.5965 81.1311 75.0313 80.7039 75.5194 80.3436C76.0094 79.9859 76.5461 79.6968 77.1144 79.4844C77.5525 79.3271 77.8333 79.2654 77.8333 79.2429C77.8333 79.2204 77.7546 79.2429 77.6255 79.2429C77.4358 79.2768 77.2483 79.3218 77.0639 79.3777C75.8805 79.7631 74.8526 80.5193 74.1323 81.5343C74.0258 81.6876 73.9282 81.847 73.8402 82.0116C73.829 82.152 73.7728 82.2194 73.7841 82.225Z" fill="#263238"/>
<path d="M76.2271 85.196C76.2271 85.196 76.2271 84.8028 76.2271 84.1738C76.249 83.8079 76.2959 83.4439 76.3675 83.0843C76.4637 82.6433 76.5913 82.2098 76.7494 81.787C76.9209 81.3699 77.1237 80.9662 77.3559 80.5795C77.5494 80.2663 77.7632 79.9661 77.9961 79.681C78.3949 79.198 78.6925 78.9453 78.6813 78.9228C78.6019 78.9723 78.5284 79.0308 78.4623 79.0969C78.3949 79.1531 78.3106 79.2261 78.2208 79.3159C78.1309 79.4058 78.0298 79.5012 77.9287 79.6248C77.6813 79.9046 77.456 80.2031 77.2548 80.5178C77.0155 80.9081 76.8088 81.3176 76.637 81.7421C76.4711 82.1699 76.3434 82.6115 76.2552 83.0618C76.1866 83.4326 76.1471 83.8082 76.1372 84.1851C76.1285 84.3272 76.1285 84.4697 76.1372 84.6119C76.1302 84.7203 76.1302 84.8291 76.1372 84.9376C76.1565 85.0271 76.1867 85.1138 76.2271 85.196Z" fill="#263238"/>
<path d="M74.2109 63.6695C74.2267 63.7718 74.2267 63.876 74.2109 63.9783C74.2109 64.2198 74.2109 64.5119 74.2109 64.8713C74.1772 65.6913 74.1323 66.8032 74.0761 68.1567C73.9301 70.9647 73.7335 74.7724 73.5145 78.9845C73.2955 83.1966 73.0315 86.9987 72.863 89.8067C72.7676 91.1546 72.6946 92.2665 72.6328 93.0809C72.6328 93.4403 72.5766 93.7379 72.5598 93.9738C72.5569 94.0786 72.5399 94.1825 72.5092 94.2827C72.5012 94.178 72.5012 94.0729 72.5092 93.9682C72.5092 93.7323 72.5092 93.4066 72.5092 93.0753C72.5429 92.2553 72.5935 91.1433 72.6496 89.7898C72.7957 86.9818 72.9922 83.1741 73.2112 78.962C73.4303 74.75 73.6886 70.9535 73.8571 68.1455C73.9526 66.792 74.0312 65.6856 74.0874 64.8657C74.1211 64.5063 74.1435 64.2142 74.166 63.9783C74.1693 63.874 74.1844 63.7704 74.2109 63.6695Z" fill="#263238"/>
<path d="M31.3602 57.8456C31.3602 57.8456 28.5185 58.8958 27.7435 63.2258C26.9684 67.5558 22.1274 120.543 22.1274 120.543L30.3156 121.015L34.3424 92.1767L31.3602 57.8456Z" fill="#FFB300"/>
<path d="M34.3423 92.7832C34.4266 92.7832 33.528 99.5225 32.3374 107.829C31.1468 116.135 30.091 122.841 30.0404 122.824C29.9899 122.807 30.8604 116.084 32.0454 107.784C33.2304 99.4832 34.2637 92.772 34.3423 92.7832Z" fill="#263238"/>
<path d="M32.1184 67.5389C32.2026 67.5389 32.7642 73.155 33.3764 80.147C33.9885 87.1391 34.4266 92.7776 34.3423 92.7888C34.2581 92.8001 33.7021 87.1728 33.0843 80.1751C32.4666 73.1775 32.0397 67.5446 32.1184 67.5389Z" fill="#263238"/>
<path d="M53.6111 59.244C53.3937 59.0989 53.1906 58.9334 53.0046 58.7498L51.4265 57.3233L51.6006 57.2784C51.0951 58.7217 50.3931 60.648 49.6125 62.7653L49.5226 63.0124L49.3597 62.8102L49.2474 62.6642C47.9246 61.018 46.7941 59.2261 45.8778 57.3233C45.524 56.5932 45.2712 55.9867 45.114 55.5655C45.0181 55.3494 44.9465 55.1234 44.9006 54.8915C45.0263 55.091 45.1335 55.3015 45.2207 55.5205C45.4116 55.9305 45.6868 56.5146 46.0631 57.2054C47.0299 59.0657 48.1773 60.8264 49.4889 62.462L49.6012 62.6024L49.3485 62.6417C50.1348 60.5245 50.8592 58.6094 51.4096 57.1829L51.4714 57.0313L51.5837 57.1436L53.0944 58.6375C53.289 58.8195 53.4623 59.023 53.6111 59.244Z" fill="#263238"/>
<path d="M59.6372 53.5212C59.6644 53.7413 59.6644 53.9639 59.6372 54.1839C59.5922 54.6669 59.5361 55.2678 59.4687 55.9755C59.3114 57.4918 59.0699 59.581 58.7947 61.8892V62.0689L58.7442 62.4452L58.5252 62.1307C57.211 60.2437 56.0429 58.5308 55.2173 57.3009H55.3746L54.1446 58.5308C54.0009 58.6894 53.8409 58.8325 53.6673 58.9576C53.7785 58.7748 53.9125 58.6069 54.066 58.4578L55.2285 57.1605L55.3128 57.0706L55.3858 57.1717C56.2563 58.3735 57.4525 60.064 58.7554 61.9566L58.4915 62.0184V61.8443C58.7723 59.5361 59.0531 57.4525 59.2496 55.9418C59.3563 55.2341 59.4406 54.6388 59.5136 54.1559C59.5314 53.9404 59.5728 53.7276 59.6372 53.5212Z" fill="#263238"/>
<path d="M28.7656 116.528C28.7656 116.528 28.8723 116.494 29.0576 116.528C29.3226 116.607 29.5476 116.783 29.6866 117.022C29.7827 117.185 29.8475 117.364 29.8776 117.55C29.9121 117.776 29.8768 118.007 29.7765 118.213C29.6637 118.446 29.4875 118.643 29.268 118.781C29.0485 118.919 28.7946 118.993 28.5353 118.993C28.2769 118.954 28.0372 118.835 27.8499 118.653C27.6626 118.471 27.537 118.234 27.4907 117.977C27.4479 117.777 27.4563 117.568 27.5152 117.372C27.5741 117.176 27.6816 116.998 27.8277 116.854C28.015 116.656 28.265 116.529 28.5353 116.494C28.7263 116.494 28.8274 116.494 28.8217 116.534C28.4981 116.591 28.2021 116.752 27.9793 116.994C27.8682 117.122 27.7893 117.274 27.7493 117.438C27.7092 117.602 27.7091 117.773 27.7491 117.938C27.7925 118.134 27.8931 118.312 28.038 118.451C28.1829 118.59 28.3658 118.683 28.5634 118.718C28.7654 118.713 28.9623 118.654 29.1333 118.546C29.3043 118.438 29.4431 118.286 29.535 118.106C29.6118 117.957 29.6519 117.791 29.6519 117.623C29.6519 117.455 29.6118 117.29 29.535 117.14C29.2205 116.584 28.7431 116.573 28.7656 116.528Z" fill="#263238"/>
<path d="M73.6212 106.088C73.6212 106.088 66.1237 106.649 66.4495 106.531L68.606 110.597L75.5924 110.103L73.6212 106.088Z" fill="#FFB300"/>
<path d="M73.6212 106.088C73.6821 106.168 73.7348 106.255 73.7784 106.346L74.194 107.127C74.5759 107.868 75.087 108.856 75.6991 110.053L75.7722 110.204H75.6037L68.6173 110.732H68.5218L68.4769 110.648L68.3982 110.502C67.6682 109.109 66.9661 107.789 66.3259 106.571L66.4888 106.638C66.4888 106.638 66.5449 106.638 66.5281 106.492C66.5112 106.346 66.4382 106.419 66.4495 106.413H66.7752H67.1571L67.904 106.374L69.2856 106.301L71.5657 106.178L73.0484 106.11C73.2259 106.097 73.4043 106.097 73.5819 106.11C73.4098 106.159 73.2326 106.187 73.054 106.194L71.5769 106.335L69.3024 106.52L67.9153 106.621L67.1683 106.672H66.7864H66.5843H66.354C66.354 106.672 66.354 106.7 66.2697 106.582C66.1855 106.464 66.3259 106.436 66.3091 106.436H66.3484L66.4551 106.402L66.5112 106.503L68.6004 110.435L68.679 110.586L68.5386 110.508L75.5307 110.041L75.4352 110.21L74.0593 107.284L73.683 106.458C73.6476 106.338 73.6268 106.213 73.6212 106.088Z" fill="#263238"/>
<path d="M39.2283 107.048L32.4329 106.088L30.9951 110.597L37.9366 111.603L39.2283 107.048Z" fill="#FFB300"/>
<path d="M39.2283 107.048C39.2201 107.151 39.1994 107.253 39.1665 107.351L38.9419 108.261C38.7397 109.053 38.4421 110.216 38.0489 111.631V111.726H37.9422L31.0738 110.76H30.9951H30.8267L30.8772 110.592C31.3939 108.986 31.8881 107.464 32.3318 106.099L32.3655 105.992H32.4722C34.5108 106.29 36.2237 106.554 37.4143 106.756L38.7903 106.986C38.9465 107.003 39.1007 107.035 39.2508 107.082C39.2508 107.082 39.0542 107.082 38.6892 107.037L37.2739 106.874C36.0721 106.728 34.3873 106.526 32.4104 106.256L32.5564 106.166C32.1184 107.537 31.6354 109.064 31.1299 110.659L31.012 110.468H31.0906L37.9535 111.474L37.8243 111.558C38.223 110.204 38.5712 109.087 38.8183 108.295C38.9307 107.93 39.0261 107.627 39.1104 107.374C39.1409 107.262 39.1804 107.153 39.2283 107.048Z" fill="#263238"/>
<path d="M86.5157 61.4905C86.6427 61.5576 86.7546 61.65 86.8444 61.762C86.9342 61.8741 87.0001 62.0034 87.038 62.1419C87.0872 62.3574 87.0615 62.5833 86.965 62.7822L83.8706 69.6731L81.8544 73.7279L75.9013 72.2902L79.7483 62.6867C79.7483 62.6867 80.0628 61.3613 81.2759 61.3613H86.0047C86.1834 61.3587 86.3597 61.4032 86.5157 61.4905Z" fill="#455A64"/>
<path d="M85.1679 63.2258H85.9429C85.9996 63.2246 86.0549 63.2084 86.1033 63.1788C86.1516 63.1492 86.1913 63.1073 86.2181 63.0573C86.2435 63.01 86.2561 62.957 86.2547 62.9033C86.2533 62.8497 86.238 62.7973 86.2102 62.7514C86.1824 62.7055 86.1432 62.6676 86.0963 62.6415C86.0494 62.6154 85.9966 62.6019 85.9429 62.6024H85.1679C85.1088 62.6024 85.0509 62.6193 85.0012 62.6512C84.9514 62.683 84.9118 62.7285 84.8871 62.7822C84.8657 62.8296 84.8564 62.8816 84.8601 62.9335C84.8638 62.9854 84.8802 63.0356 84.9081 63.0796C84.9359 63.1235 84.9742 63.1599 85.0195 63.1854C85.0649 63.211 85.1159 63.2248 85.1679 63.2258Z" fill="white"/>
<path d="M86.1844 80.6974C86.3978 80.2481 85.6228 79.5742 85.6228 79.5742C85.6228 79.5742 84.6793 75.0196 85.0612 74.2446C85.443 73.4695 85.2521 72.5148 85.3195 70.9086C85.3869 69.3024 85.971 68.7296 85.971 68.7296C85.971 68.7296 86.0215 67.7018 86.1507 66.8706C86.217 66.3476 86.0803 65.819 85.7688 65.3936L83.8818 69.6955L83.5729 69.308C82.7469 68.069 81.7089 66.9853 80.5065 66.1069C79.9 65.7811 79.4395 66.3877 79.2654 66.8594C79.0913 67.3312 79.7877 68.1511 80.2201 68.4488C80.6525 68.7464 81.3433 70.6559 81.596 71.3523C81.8488 72.0487 81.596 72.2003 81.158 72.4755C80.7199 72.7507 79.0519 71.3523 78.2432 71.0209C77.5221 70.6175 76.8684 70.104 76.3057 69.499C76.1529 69.3823 75.9708 69.3101 75.7795 69.2903C75.5883 69.2705 75.3953 69.3038 75.2218 69.3866C74.5872 69.6731 74.8736 70.9086 74.8736 70.9086C73.8683 71.6724 74.3906 73.155 74.3906 73.155C74.3906 73.155 73.3853 73.2337 73.3179 73.5706C73.2505 73.9076 73.5931 75.716 74.1547 76.154C74.7163 76.5921 77.12 78.2769 77.12 78.2769C77.6566 79.0922 78.4064 79.7448 79.2878 80.1639L79.7596 82.5283C80.79 82.83 81.8854 82.83 82.9158 82.5283C84.1369 82.1903 85.2583 81.5622 86.1844 80.6974Z" fill="#AD6359"/>
<path d="M74.8792 70.7682C74.8792 70.7682 74.8792 70.7682 74.8792 70.83C74.8717 70.8878 74.8717 70.9463 74.8792 71.0041C74.9151 71.2188 74.9996 71.4224 75.1263 71.5994C75.3121 71.8579 75.5377 72.0854 75.7946 72.2734C76.081 72.4868 76.4068 72.6946 76.7606 72.908C77.3622 73.2625 77.9892 73.5722 78.6364 73.8346C78.8835 73.9301 79.0913 74.0031 79.2317 74.048L79.4563 74.1098C79.4563 74.1098 79.153 73.975 78.67 73.756C78.0339 73.4749 77.415 73.1561 76.8167 72.8013C76.2009 72.491 75.65 72.0659 75.1937 71.5489C75.0206 71.3217 74.912 71.052 74.8792 70.7682Z" fill="#EB996E"/>
<path d="M74.4299 73.1606C74.5453 73.3486 74.685 73.5205 74.8455 73.6717C75.2158 74.0559 75.6284 74.3969 76.0754 74.6882C76.5234 74.9795 77.0041 75.217 77.5075 75.3958C77.7123 75.4819 77.9276 75.5404 78.1478 75.5699C78.1478 75.5699 77.9119 75.4745 77.5412 75.3172C77.053 75.1189 76.5847 74.8744 76.1428 74.5871C75.7023 74.3015 75.2887 73.9763 74.9073 73.6155C74.6096 73.3347 74.4412 73.1494 74.4299 73.1606Z" fill="#EB996E"/>
<path d="M84.1514 73.1831C84.2982 73.0668 84.398 72.9012 84.4322 72.717C84.5096 72.2811 84.4981 71.8341 84.3985 71.4028C84.3327 70.9704 84.2389 70.5427 84.1177 70.1224C84.0782 69.9447 84.0159 69.7729 83.9323 69.6113C83.9521 69.7919 83.9878 69.9705 84.039 70.1448C84.112 70.4706 84.2075 70.9198 84.2861 71.4197C84.3787 71.84 84.3996 72.2729 84.3479 72.7001C84.3052 72.8695 84.2391 73.0321 84.1514 73.1831Z" fill="#EB996E"/>
<path d="M81.7702 75.1937C81.7702 75.1937 81.8432 75.1937 81.9611 75.1937C82.1124 75.1432 82.2401 75.0394 82.3205 74.9017C82.3995 74.764 82.4273 74.6029 82.3991 74.4468C82.3991 74.3288 82.3261 74.267 82.3093 74.2783C82.3319 74.4702 82.3008 74.6646 82.2194 74.8399C82.051 75.1151 81.7589 75.16 81.7702 75.1937Z" fill="#EB996E"/>
<path d="M79.7764 76.9909C79.7764 76.9909 79.8663 77.0358 80.0179 76.9909C80.2159 76.9626 80.3982 76.8675 80.5346 76.7213C80.671 76.5756 80.7524 76.3869 80.7649 76.1878C80.7649 76.0361 80.7649 75.9463 80.7255 75.9519C80.6862 75.9575 80.7256 76.0417 80.6862 76.1765C80.6484 76.3494 80.5672 76.5098 80.4504 76.6427C80.3252 76.7683 80.1708 76.8609 80.0011 76.9122C79.9236 76.9304 79.8483 76.9568 79.7764 76.9909Z" fill="#EB996E"/>
<path d="M78.0467 78.0578C78.0467 78.0578 78.1197 78.0915 78.2376 78.0578C78.3896 78.0094 78.523 77.9153 78.6195 77.7883C78.7171 77.6609 78.7703 77.5051 78.7711 77.3446C78.7711 77.221 78.7318 77.1536 78.7206 77.1593C78.6991 77.3591 78.6318 77.5512 78.524 77.7209C78.3933 77.8688 78.2298 77.9842 78.0467 78.0578Z" fill="#EB996E"/>
<path d="M79.2991 80.2706C79.4241 80.3541 79.5629 80.415 79.709 80.4503C80.0526 80.5638 80.4035 80.6539 80.7592 80.7199C81.1139 80.7823 81.4722 80.8217 81.8319 80.8378C81.9808 80.861 82.1323 80.861 82.2812 80.8378C82.2812 80.8041 81.6017 80.7761 80.7817 80.6244C79.9618 80.4728 79.3103 80.2369 79.2991 80.2706Z" fill="#EB996E"/>
<path d="M77.4458 70.5941L77.5075 70.4537L77.6648 70.0381L78.2264 68.4993C78.7038 67.1852 79.3496 65.388 80.0572 63.4111C80.1924 62.9244 80.4822 62.4947 80.8828 62.1868C81.3069 61.9824 81.7791 61.8989 82.2475 61.9454L84.6793 61.9734H86.3192H86.746C86.7981 61.9816 86.8511 61.9816 86.9032 61.9734H86.746H86.3023L84.6624 61.9285L82.2307 61.878C81.9951 61.8613 81.7586 61.8613 81.523 61.878C81.2706 61.9019 81.0267 61.9825 80.8098 62.1138C80.3828 62.4295 80.0727 62.8778 79.9281 63.3887C79.2204 65.3824 78.5858 67.1852 78.1309 68.4937L77.603 70.0437C77.5412 70.2178 77.4963 70.3582 77.4626 70.4649C77.4511 70.507 77.4454 70.5505 77.4458 70.5941Z" fill="#263238"/>
<path d="M230.776 240.323C230.776 240.402 179.108 240.469 115.394 240.469C51.6792 240.469 0 240.402 0 240.323C0 240.245 51.6679 240.172 115.394 240.172C179.119 240.172 230.776 240.239 230.776 240.323Z" fill="#263238"/>
</svg>
