<svg width="185" height="146" viewBox="0 0 185 146" fill="none" xmlns="http://www.w3.org/2000/svg">
<path d="M34.3069 132.204C68.6258 150.131 124.264 150.131 158.583 132.204C192.901 114.276 192.897 85.2083 158.583 67.2809C124.268 49.3535 68.6258 49.3535 34.3069 67.2809C-0.0120592 85.2083 -0.00796223 114.289 34.3069 132.204Z" fill="#F5F5F5"/>
<path d="M166.696 101.096C161.54 103.554 153.18 103.554 148.015 101.096C142.85 98.6386 142.855 94.6493 148.015 92.1918C153.176 89.7343 161.532 89.7343 166.696 92.1918C171.861 94.6493 171.857 98.6345 166.696 101.096Z" fill="#E0E0E0"/>
<path d="M56.8504 55.4644C50.3175 59.2367 45.0257 68.4072 45.0257 75.9436C45.0257 83.4799 50.3175 86.5395 56.8504 82.7713C63.3832 79.0031 68.675 69.8285 68.675 62.2922C68.675 54.7558 63.3791 51.6922 56.8504 55.4644ZM55.851 76.9143C55.0452 77.4223 54.1234 77.7169 53.1723 77.7703C50.8786 77.7703 50.6288 75.0629 50.6288 73.8997C50.6288 69.3534 53.9546 63.5987 57.8907 61.3255C58.6944 60.8163 59.6152 60.5216 60.5653 60.4695C62.863 60.4695 63.1088 63.1769 63.1088 64.3401C63.0883 68.8823 59.7666 74.6411 55.851 76.9143Z" fill="#455A64"/>
<path d="M60.8725 60.4942C60.7639 60.4794 60.6544 60.4712 60.5448 60.4696C59.9695 60.4892 59.4028 60.6156 58.8737 60.8423C58.926 61.21 58.952 61.5809 58.9515 61.9523C58.9515 66.4946 55.6257 72.2533 51.6896 74.5224C51.3681 74.7091 51.0326 74.8707 50.6862 75.0057C50.7614 75.6899 51.0033 76.3453 51.3906 76.9144C51.5919 77.1901 51.8577 77.4123 52.1647 77.5615C52.4718 77.7108 52.8107 77.7825 53.1518 77.7704C54.1033 77.719 55.0256 77.4243 55.8305 76.9144C59.7666 74.6412 63.0883 68.8824 63.0883 64.3402C63.0883 63.2343 62.8631 60.7399 60.8725 60.4942Z" fill="#263238"/>
<path d="M65.1935 54.6289L59.3283 51.2417C57.178 49.9843 54.2126 50.1563 50.9359 52.0322C44.3826 55.8044 39.1113 64.975 39.1113 72.5113C39.1113 76.2385 40.4056 78.8639 42.5026 80.1173L42.56 80.1582H42.5927L48.376 83.4963H48.4047C47.3983 82.8693 46.5914 81.9685 46.0783 80.8996C45.6285 79.9796 45.3285 78.9938 45.1895 77.9792C45.0827 77.2908 45.0279 76.5952 45.0256 75.8986C45.0256 68.3581 50.3175 59.1876 56.8503 55.4194C57.4546 55.073 58.0845 54.7731 58.7344 54.5224C59.6828 54.136 60.6864 53.9024 61.708 53.8302C62.9198 53.7349 64.1331 53.9969 65.1976 54.5839L65.1935 54.6289Z" fill="#37474F"/>
<path d="M55.6871 26.1015L50.17 22.9149L41.8596 27.7111L22.5723 96.2057L28.0935 99.3922L36.2893 94.6574L55.6871 26.1015Z" fill="#37474F"/>
<path d="M36.2893 94.6574L28.0935 99.3922L47.4094 30.8813L55.6871 26.1014L36.2893 94.6574Z" fill="#455A64"/>
<path d="M28.0935 99.3923L47.4094 30.8814L41.8596 27.7112L22.5723 96.2057L28.0935 99.3923Z" fill="#263238"/>
<path d="M24.7227 44.4263C18.1939 48.1985 12.898 57.3691 12.898 64.9054C12.898 72.4417 18.2021 75.5054 24.7227 71.7372C31.2432 67.9691 36.5473 58.7944 36.5473 51.2581C36.5473 43.7218 31.276 40.6581 24.7227 44.4263ZM23.7151 65.8761C22.9096 66.3849 21.9876 66.6795 21.0364 66.7321C18.7387 66.7321 18.4929 64.0248 18.4929 62.8616C18.4929 58.3193 21.8146 52.5606 25.7507 50.2874C26.5556 49.7775 27.478 49.4827 28.4294 49.4314C30.7231 49.4314 30.9729 52.1387 30.9729 53.3019C30.9729 57.8442 27.6471 63.6029 23.7151 65.8761Z" fill="#455A64"/>
<path d="M28.7571 49.4559C28.6484 49.4412 28.539 49.433 28.4294 49.4313C27.8523 49.4508 27.284 49.5786 26.7542 49.8081C26.8064 50.1744 26.8324 50.544 26.832 50.914C26.832 55.4562 23.5103 61.215 19.5742 63.4841C19.2548 63.6695 18.9222 63.8311 18.5789 63.9674C18.6536 64.6537 18.897 65.3108 19.2875 65.8801C19.4892 66.1551 19.7552 66.3765 20.0622 66.525C20.3692 66.6735 20.7079 66.7446 21.0487 66.7321C21.9999 66.6794 22.9219 66.3848 23.7274 65.876C27.6594 63.6028 30.9852 57.8441 30.9852 53.3018C30.9729 52.196 30.7435 49.7016 28.7571 49.4559Z" fill="#263238"/>
<path d="M33.0781 43.5906L27.2129 40.2034C25.0708 38.9541 22.1054 39.1262 18.8288 41.0225C12.2754 44.7907 7 53.9613 7 61.5017C7 65.2289 8.29838 67.8543 10.3913 69.1076L10.4487 69.1486H10.4815L16.2566 72.5113H16.2893C15.2819 71.8861 14.4735 70.9868 13.9588 69.9186C13.5097 68.997 13.2097 68.0099 13.07 66.9942C12.9631 66.3057 12.9083 65.6102 12.9062 64.9135C12.9062 57.3731 18.2021 48.2025 24.7308 44.4344C25.336 44.0895 25.9657 43.7897 26.6149 43.5374C27.5647 43.151 28.5697 42.9173 29.5926 42.8452C30.8031 42.7502 32.015 43.0122 33.0781 43.5988V43.5906Z" fill="#37474F"/>
<path d="M117.063 120.695L120.934 128.006C124.015 127.518 126.985 126.487 129.707 124.963L120.348 122.861C119.394 123.406 118.263 120.486 117.063 120.695Z" fill="#01B6EB"/>
<path opacity="0.2" d="M117.063 120.695L120.934 128.006C124.015 127.518 126.985 126.487 129.707 124.963L120.348 122.861C119.394 123.406 118.263 120.486 117.063 120.695Z" fill="black"/>
<path d="M109.13 116.374C111.001 115.292 113.565 114.87 115.99 115.092L118.058 103.214L115.99 99.5275L105.316 100.928L93.848 117.721L94.2044 118.233L106.844 119.151C107.049 118.135 107.786 117.156 109.13 116.374Z" fill="#01B6EB"/>
<path opacity="0.7" d="M109.13 116.374C111.001 115.292 113.565 114.87 115.99 115.092L118.058 103.214L115.99 99.5275L105.316 100.928L93.848 117.721L94.2044 118.233L106.844 119.151C107.049 118.135 107.786 117.156 109.13 116.374Z" fill="black"/>
<path d="M118.058 95.1409V93.0438L115.99 100.572L115.994 102.669L118.058 95.1409Z" fill="#01B6EB"/>
<path opacity="0.7" d="M118.058 95.1409V93.0438L115.99 100.572L115.994 102.669L118.058 95.1409Z" fill="black"/>
<path d="M109.13 101.854C111.001 100.777 113.565 100.351 115.99 100.572L118.058 93.0438C106.516 91.9911 95.6788 96.5334 93.8521 103.197C93.7989 103.386 93.7415 103.644 93.7087 103.832L106.848 104.631C107.049 103.615 107.786 102.632 109.13 101.854Z" fill="#01B6EB"/>
<path opacity="0.6" d="M109.13 101.854C111.001 100.777 113.565 100.351 115.99 100.572L118.058 93.0438C106.516 91.9911 95.6788 96.5334 93.8521 103.197C93.7989 103.386 93.7415 103.644 93.7087 103.832L106.848 104.631C107.049 103.615 107.786 102.632 109.13 101.854Z" fill="black"/>
<path d="M106.848 113.195V104.631L93.7087 103.832V112.397L106.848 113.195Z" fill="#01B6EB"/>
<path opacity="0.8" d="M106.848 113.195V104.631L93.7087 103.832V112.397L106.848 113.195Z" fill="black"/>
<path d="M120.36 103.951C121.949 104.873 122.719 106.081 122.674 107.285L135.9 107.42C136.088 101.256 128.605 96.1075 118.058 95.1327L115.99 102.661C117.522 102.777 119.011 103.217 120.36 103.951Z" fill="#01B6EB"/>
<path opacity="0.8" d="M120.36 103.951C121.949 104.873 122.719 106.081 122.674 107.285L135.9 107.42C136.088 101.256 128.605 96.1075 118.058 95.1327L115.99 102.661C117.522 102.777 119.011 103.217 120.36 103.951Z" fill="white"/>
<path d="M122.674 107.285V116.406L135.9 116.541V107.42L122.674 107.285Z" fill="#01B6EB"/>
<path opacity="0.6" d="M122.674 107.285V116.406L135.9 116.541V107.42L122.674 107.285Z" fill="white"/>
<path d="M122.679 107.285V116.337C122.679 115.165 121.909 113.99 120.36 113.093C119.132 112.38 117.592 115.26 115.994 115.112V102.669C119.607 102.976 122.744 104.799 122.679 107.285Z" fill="#01B6EB"/>
<path opacity="0.6" d="M122.679 107.285V116.337C122.679 115.165 121.909 113.99 120.36 113.093C119.132 112.38 117.592 115.26 115.994 115.112V102.669C119.607 102.976 122.744 104.799 122.679 107.285Z" fill="white"/>
<path d="M122.683 111.348H106.807V122.022H122.683V111.348Z" fill="#E0E0E0"/>
<path d="M109.129 114.645C106.029 112.855 106.029 109.951 109.129 108.161C112.23 106.372 117.26 106.372 120.36 108.161C123.461 109.951 123.457 112.855 120.36 114.645C117.264 116.435 112.23 116.435 109.129 114.645Z" fill="#FAFAFA"/>
<path d="M122.674 116.406C122.633 117.549 121.855 121.985 120.36 122.853L129.719 124.954C133.815 122.595 135.814 119.871 135.912 116.533L122.674 116.406Z" fill="#37474F"/>
<path d="M135.9 109.419V116.541L129.707 124.962V117.844L135.9 109.419Z" fill="#37474F"/>
<path d="M122.674 109.284C122.633 110.426 121.855 111.561 120.36 112.433L129.719 117.836C133.815 115.477 135.814 112.753 135.912 109.415L122.674 109.284Z" fill="#455A64"/>
<path d="M129.707 117.844V124.963L120.348 119.56L120.36 112.433L129.707 117.844Z" fill="#263238"/>
<path d="M129.707 120.093L120.934 123.136V128.006L129.707 124.963V120.093Z" fill="#01B6EB"/>
<path opacity="0.2" d="M129.707 120.093L120.934 123.136V128.006L129.707 124.963V120.093Z" fill="black"/>
<path d="M117.063 115.825L120.934 123.136C124.015 122.648 126.985 121.617 129.707 120.093L120.348 114.698C119.326 115.259 118.214 115.64 117.063 115.825Z" fill="#01B6EB"/>
<path d="M117.059 115.825V118.045L120.934 128.006V123.136L117.059 115.825Z" fill="#01B6EB"/>
<path opacity="0.4" d="M117.059 115.825V118.045L120.934 128.006V123.136L117.059 115.825Z" fill="black"/>
<path d="M111.001 122.071C109.248 121.055 106.615 120.486 106.848 119.163L93.59 112.802C93.59 112.802 93.59 115.956 93.59 116.394C93.6186 122.538 101.687 127.834 112.537 128.489C115.345 128.682 118.165 128.525 120.934 128.022V124.455C118.218 124.913 113.148 123.3 111.001 122.071Z" fill="#01B6EB"/>
<path opacity="0.5" d="M111.001 122.071C109.248 121.055 106.615 120.486 106.848 119.163L93.59 112.802C93.59 112.802 93.59 115.956 93.59 116.394C93.6186 122.538 101.687 127.834 112.537 128.489C115.345 128.682 118.165 128.525 120.934 128.022V124.455C118.218 124.913 113.148 123.3 111.001 122.071Z" fill="black"/>
<path d="M109.129 115.985C107.376 114.973 106.615 113.601 106.848 112.278L93.7087 111.479C92.48 118.188 100.917 124.201 112.55 124.905C115.357 125.096 118.177 124.94 120.946 124.438L117.075 117.127C114.348 117.602 111.276 117.226 109.129 115.985Z" fill="#01B6EB"/>
<path opacity="0.3" d="M109.129 115.985C107.376 114.973 106.615 113.601 106.848 112.278L93.7087 111.479C92.48 118.188 100.917 124.201 112.55 124.905C115.357 125.096 118.177 124.94 120.946 124.438L117.075 117.127C114.348 117.602 111.276 117.226 109.129 115.985Z" fill="black"/>
<path d="M61.1756 97.4959C61.5175 94.957 61.3673 92.3761 60.7332 89.894C60.0533 87.1867 58.6853 85.3026 57.0675 84.3114C55.4496 83.3202 52.5047 84.3606 54.8557 87.5266C57.2067 90.6927 59.5946 94.723 59.8485 97.7662L61.1756 97.4959Z" fill="#37474F"/>
<path d="M60.7209 97.7908C60.694 97.7902 60.6675 97.7844 60.6428 97.7736C60.6182 97.7628 60.5959 97.7473 60.5773 97.7279C60.5587 97.7085 60.544 97.6856 60.5342 97.6606C60.5244 97.6355 60.5197 97.6088 60.5202 97.5819C60.6349 91.9829 58.0095 86.3511 55.6052 85.0568C55.5569 85.0313 55.5207 84.9876 55.5045 84.9354C55.4884 84.8832 55.4937 84.8267 55.5192 84.7783C55.5447 84.73 55.5884 84.6938 55.6407 84.6776C55.6929 84.6615 55.7494 84.6668 55.7977 84.6923C58.3249 86.0439 61.065 91.8477 60.9462 97.5901C60.9464 97.6186 60.9405 97.6469 60.9289 97.673C60.9173 97.6991 60.9003 97.7224 60.879 97.7414C60.8577 97.7604 60.8325 97.7747 60.8053 97.7832C60.778 97.7917 60.7493 97.7943 60.7209 97.7908Z" fill="white"/>
<path d="M61.3763 107.4C58.7959 108.899 55.8633 107.522 55.3554 104.643C55.1793 103.64 55.0032 102.595 54.0734 102.026C53.2952 101.543 52.2467 101.481 51.579 100.834C50.6288 99.9083 51.1695 98.7164 51.7674 97.7785C52.3245 96.9266 52.775 95.9313 52.2508 94.9565C51.9292 94.445 51.6745 93.8944 51.493 93.3181C51.4047 93.0305 51.3927 92.725 51.458 92.4313C51.5233 92.1376 51.6638 91.866 51.8657 91.6429C52.3572 91.176 53.1314 91.1965 53.7908 91.3562C54.86 91.6422 55.8438 92.1833 56.6579 92.9331C57.2354 93.4287 57.563 93.9325 58.3945 94.0841C59.0089 94.1947 59.6478 94.0841 60.254 94.2274C60.6361 94.3309 60.9917 94.515 61.2969 94.7672C61.602 95.0193 61.8497 95.3339 62.0234 95.6896C62.6255 96.8651 62.433 98.2331 62.3388 99.4988C62.2446 100.764 62.1258 101.907 61.9784 103.107C61.8555 104.123 61.7162 105.155 61.5688 106.15C61.5442 106.306 61.5155 107.326 61.3763 107.4Z" fill="#455A64"/>
<path d="M61.622 105.982C61.573 105.982 61.5258 105.964 61.489 105.932C61.4522 105.899 61.4282 105.855 61.4213 105.806C60.5243 99.3758 55.1096 93.3918 53.0945 92.3638C53.0706 92.3514 53.0493 92.3344 53.0319 92.3138C53.0145 92.2932 53.0014 92.2694 52.9932 92.2438C52.985 92.2181 52.982 92.191 52.9842 92.1642C52.9865 92.1374 52.9941 92.1112 53.0064 92.0873C53.0188 92.0634 53.0358 92.0421 53.0564 92.0247C53.0769 92.0073 53.1008 91.9942 53.1264 91.986C53.1521 91.9778 53.1791 91.9748 53.206 91.977C53.2328 91.9793 53.259 91.9869 53.2829 91.9992C55.4168 93.0887 60.897 99.0809 61.8268 105.753C61.8338 105.807 61.8191 105.861 61.7861 105.904C61.7531 105.947 61.7044 105.975 61.6507 105.982H61.622Z" fill="white"/>
<path d="M53.6187 99.0195C53.5644 99.0303 53.508 99.0192 53.4619 98.9884C53.4158 98.9577 53.3838 98.91 53.373 98.8556C53.3621 98.8013 53.3733 98.7449 53.404 98.6988C53.4347 98.6527 53.4825 98.6208 53.5368 98.6099C55.1612 97.9804 56.9102 97.7392 58.6443 97.9054C58.6711 97.9074 58.6971 97.9148 58.721 97.9271C58.7449 97.9394 58.766 97.9564 58.7832 97.977C58.8004 97.9977 58.8132 98.0215 58.821 98.0472C58.8288 98.0729 58.8314 98.0999 58.8286 98.1266C58.826 98.1535 58.8182 98.1797 58.8054 98.2036C58.7927 98.2275 58.7754 98.2486 58.7544 98.2657C58.7335 98.2829 58.7093 98.2957 58.6834 98.3034C58.6575 98.3112 58.6302 98.3137 58.6033 98.3109C56.9327 98.1668 55.2512 98.4078 53.6883 99.0154C53.6654 99.0195 53.642 99.0209 53.6187 99.0195Z" fill="white"/>
<path d="M61.9497 108.915C61.5856 108.67 61.2845 108.342 61.071 107.958C60.8575 107.575 60.7376 107.146 60.7209 106.707V44.8112C60.7444 44.3589 60.8746 43.9186 61.101 43.5263C61.3274 43.134 61.6435 42.801 62.0234 42.5544L135.171 0.326443C135.558 0.121449 135.988 0.00987081 136.426 0.000625575C136.864 -0.00861966 137.298 0.0847222 137.694 0.273195C138.058 0.515367 138.36 0.840777 138.573 1.22252C138.787 1.60427 138.907 2.03138 138.923 2.46856V64.3852C138.899 64.8375 138.769 65.2778 138.543 65.6701C138.316 66.0624 138 66.3954 137.62 66.642L64.4727 108.87C64.0851 109.075 63.6548 109.185 63.2166 109.193C62.7783 109.201 62.3444 109.106 61.9497 108.915Z" fill="#01B6EB"/>
<path d="M68.0606 47.5267L61.0977 43.5128C60.8624 43.9017 60.7312 44.3446 60.7168 44.7989V106.707C60.7043 107.15 60.8118 107.588 61.0278 107.975C61.2439 108.362 61.5604 108.683 61.944 108.904C62.3276 109.126 62.764 109.24 63.2069 109.234C63.6499 109.228 64.083 109.102 64.4604 108.87L68.0483 106.797L68.0606 47.5267Z" fill="#01B6EB"/>
<path opacity="0.2" d="M68.0606 47.5267L61.0977 43.5128C60.8624 43.9017 60.7312 44.3446 60.7168 44.7989V106.707C60.7043 107.15 60.8118 107.588 61.0278 107.975C61.2439 108.362 61.5604 108.683 61.944 108.904C62.3276 109.126 62.764 109.24 63.2069 109.234C63.6499 109.228 64.083 109.102 64.4604 108.87L68.0483 106.797L68.0606 47.5267Z" fill="black"/>
<path d="M64.4727 43.9675L137.612 1.71899C138.333 1.30941 138.914 1.64117 138.914 2.46853V64.3852C138.891 64.8375 138.761 65.2778 138.534 65.6701C138.308 66.0623 137.992 66.3954 137.612 66.642L64.4727 108.87C63.7559 109.28 63.1743 108.948 63.1743 108.116V46.2243C63.1973 45.7723 63.3269 45.3322 63.5526 44.94C63.7782 44.5477 64.0935 44.2145 64.4727 43.9675Z" fill="#01B6EB"/>
<g opacity="0.5">
<path opacity="0.5" d="M64.4727 43.9675L137.612 1.71899C138.333 1.30941 138.914 1.64117 138.914 2.46853V64.3852C138.891 64.8375 138.761 65.2778 138.534 65.6701C138.308 66.0623 137.992 66.3954 137.612 66.642L64.4727 108.87C63.7559 109.28 63.1743 108.948 63.1743 108.116V46.2243C63.1973 45.7723 63.3269 45.3322 63.5526 44.94C63.7782 44.5477 64.0935 44.2145 64.4727 43.9675Z" fill="white"/>
</g>
<path opacity="0.4" d="M70.5017 94.1004C70.5763 89.6361 70.8894 85.179 71.4397 80.748C72.009 75.9354 73.1763 67.8134 77.821 65.1348C82.4656 62.4561 84.2063 67.2974 84.874 69.6852C85.7464 72.7776 90.2846 70.8198 90.9194 65.7164C91.5543 60.613 91.9598 44.373 97.399 41.2315C102.838 38.09 104.599 45.6509 105.218 47.7603C106.447 51.9052 110.01 50.7625 111.177 48.0142C112.345 45.2659 115.519 44.5983 116.719 48.4606C117.919 52.323 118.665 56.7588 122.556 54.4815C125.967 52.4827 124.399 48.8415 127.729 47.109C128.699 46.6093 130.633 46.8878 131.067 49.7385C131.463 52.7525 131.637 55.7917 131.587 58.8313L70.5017 94.1004Z" fill="white"/>
<path d="M70.5018 94.4035C70.4221 94.4024 70.346 94.37 70.2901 94.3133C70.2341 94.2565 70.2028 94.1801 70.2028 94.1004C70.2777 89.6211 70.5908 85.149 71.1407 80.7029C71.5994 76.8242 72.6766 67.7437 77.6695 64.8603C79.1481 64.0083 80.4833 63.8158 81.6424 64.2868C83.1865 64.9135 84.3375 66.6501 85.1648 69.6114C85.4106 70.4797 85.984 70.9303 86.7745 70.8688C88.3637 70.746 90.2355 68.7759 90.6205 65.6876C90.7229 64.8685 90.8212 63.7462 90.9317 62.4478C91.5379 55.4317 92.5701 43.6889 97.2516 40.9775C98.6892 40.1583 100.008 39.9699 101.18 40.445C103.756 41.4895 104.866 45.401 105.394 47.281C105.435 47.4325 105.472 47.5677 105.509 47.6905C105.963 49.2429 106.803 50.148 107.872 50.1931C109.048 50.2709 110.309 49.3043 110.899 47.9117C111.554 46.3676 112.832 45.4133 114.11 45.4788C115.388 45.5443 116.453 46.6011 117.006 48.3909C117.137 48.8005 117.264 49.2388 117.387 49.6647C118.071 51.9871 118.71 54.1702 120.029 54.7026C120.663 54.9525 121.442 54.8009 122.404 54.2398C124.01 53.2977 124.452 51.9994 124.886 50.6232C125.32 49.247 125.816 47.7848 127.589 46.8632C127.915 46.7036 128.273 46.6226 128.635 46.6269C128.997 46.6312 129.353 46.7205 129.674 46.8878C130.297 47.2031 131.095 47.9527 131.362 49.7139C131.76 52.7456 131.936 55.8025 131.886 58.8599C131.887 58.8997 131.879 58.9391 131.864 58.9758C131.848 59.0125 131.825 59.0456 131.796 59.0729C131.767 59.1003 131.733 59.1213 131.696 59.1347C131.658 59.1481 131.618 59.1535 131.579 59.1507C131.499 59.1485 131.423 59.1151 131.368 59.0576C131.313 59.0001 131.283 58.9232 131.284 58.8435C131.336 55.8217 131.164 52.8002 130.768 49.804C130.538 48.2926 129.899 47.6742 129.404 47.4243C129.168 47.3006 128.906 47.2339 128.639 47.2296C128.372 47.2254 128.108 47.2836 127.868 47.3997C126.312 48.2189 125.898 49.4722 125.46 50.8116C124.993 52.2328 124.509 53.7032 122.707 54.76C121.573 55.4194 120.626 55.5791 119.807 55.2596C118.218 54.6289 117.534 52.2984 116.809 49.8327C116.686 49.4231 116.563 48.9848 116.432 48.5671C115.957 47.0352 115.097 46.13 114.081 46.0768C113.066 46.0236 112.001 46.8591 111.452 48.1493C110.756 49.7876 109.273 50.8771 107.835 50.7952C107.057 50.7501 105.648 50.3078 104.931 47.8626C104.894 47.7438 104.858 47.6045 104.813 47.453C104.309 45.6672 103.256 41.9441 100.95 41.0103C99.963 40.6007 98.8203 40.7768 97.5506 41.5059C93.1271 44.0616 92.0909 56.0624 91.5338 62.5093C91.4191 63.8117 91.3209 64.9381 91.2185 65.7859C90.8089 69.1814 88.6504 71.3521 86.8195 71.4914C85.7423 71.5733 84.9068 70.9385 84.5873 69.7957C83.8132 67.0474 82.777 65.4419 81.413 64.8807C80.4382 64.4712 79.2791 64.6637 77.9685 65.4173C73.2378 68.1492 72.1851 77.0208 71.7387 80.8094C71.1918 85.2283 70.8801 89.673 70.8048 94.125C70.7987 94.201 70.764 94.2719 70.7078 94.3236C70.6516 94.3752 70.5781 94.4037 70.5018 94.4035Z" fill="#F5F5F5"/>
<path d="M79.1604 65.0774C79.1093 65.0774 79.0604 65.0571 79.0243 65.021C78.9882 64.9849 78.9679 64.936 78.9679 64.8849V64.5081C78.9638 64.4808 78.9658 64.4529 78.9735 64.4263C78.9812 64.3998 78.9946 64.3752 79.0126 64.3543C79.0307 64.3333 79.0531 64.3166 79.0782 64.3051C79.1034 64.2935 79.1307 64.2876 79.1583 64.2876C79.186 64.2876 79.2133 64.2935 79.2384 64.3051C79.2636 64.3166 79.2859 64.3333 79.304 64.3543C79.3221 64.3752 79.3354 64.3998 79.3432 64.4263C79.3509 64.4529 79.3528 64.4808 79.3488 64.5081V64.8849C79.3488 64.9353 79.3291 64.9836 79.2939 65.0196C79.2586 65.0556 79.2107 65.0764 79.1604 65.0774Z" fill="#F5F5F5"/>
<path d="M79.1604 87.8052C79.1351 87.8052 79.1101 87.8002 79.0867 87.7905C79.0633 87.7809 79.0421 87.7667 79.0243 87.7488C79.0064 87.7309 78.9922 87.7097 78.9825 87.6863C78.9728 87.663 78.9679 87.638 78.9679 87.6127V86.8468C78.9746 86.801 78.9975 86.7593 79.0325 86.7291C79.0675 86.6989 79.1121 86.6823 79.1583 86.6823C79.2045 86.6823 79.2492 86.6989 79.2842 86.7291C79.3191 86.7593 79.3421 86.801 79.3488 86.8468V87.6045C79.3499 87.6301 79.3458 87.6557 79.3369 87.6797C79.328 87.7038 79.3143 87.7258 79.2968 87.7445C79.2792 87.7632 79.2581 87.7782 79.2347 87.7886C79.2113 87.799 79.186 87.8047 79.1604 87.8052ZM79.1604 86.2897C79.1093 86.2897 79.0604 86.2694 79.0243 86.2333C78.9882 86.1972 78.9679 86.1483 78.9679 86.0972V85.3395C78.9746 85.2938 78.9975 85.252 79.0325 85.2218C79.0675 85.1916 79.1121 85.175 79.1583 85.175C79.2045 85.175 79.2492 85.1916 79.2842 85.2218C79.3191 85.252 79.3421 85.2938 79.3488 85.3395V86.0972C79.3488 86.1476 79.3291 86.1959 79.2939 86.2319C79.2586 86.2679 79.2107 86.2887 79.1604 86.2897ZM79.1604 84.7743C79.1351 84.7743 79.1101 84.7693 79.0867 84.7596C79.0633 84.7499 79.0421 84.7358 79.0243 84.7179C79.0064 84.7 78.9922 84.6788 78.9825 84.6554C78.9728 84.6321 78.9679 84.607 78.9679 84.5818V83.8281C78.9638 83.8008 78.9658 83.7729 78.9735 83.7463C78.9812 83.7198 78.9946 83.6952 79.0126 83.6743C79.0307 83.6534 79.0531 83.6366 79.0782 83.6251C79.1034 83.6136 79.1307 83.6076 79.1583 83.6076C79.186 83.6076 79.2133 83.6136 79.2384 83.6251C79.2636 83.6366 79.2859 83.6534 79.304 83.6743C79.3221 83.6952 79.3354 83.7198 79.3432 83.7463C79.3509 83.7729 79.3528 83.8008 79.3488 83.8281V84.5818C79.3488 84.6321 79.3291 84.6805 79.2939 84.7165C79.2586 84.7524 79.2107 84.7732 79.1604 84.7743ZM79.1604 83.2588C79.11 83.2588 79.0617 83.2391 79.0257 83.2039C78.9897 83.1687 78.9689 83.1207 78.9679 83.0704V82.3127C78.9638 82.2853 78.9658 82.2574 78.9735 82.2309C78.9812 82.2043 78.9946 82.1798 79.0126 82.1588C79.0307 82.1379 79.0531 82.1211 79.0782 82.1096C79.1034 82.0981 79.1307 82.0922 79.1583 82.0922C79.186 82.0922 79.2133 82.0981 79.2384 82.1096C79.2636 82.1211 79.2859 82.1379 79.304 82.1588C79.3221 82.1798 79.3354 82.2043 79.3432 82.2309C79.3509 82.2574 79.3528 82.2853 79.3488 82.3127V83.0704C79.3477 83.12 79.3275 83.1674 79.2924 83.2025C79.2573 83.2376 79.21 83.2578 79.1604 83.2588ZM79.1604 81.7434C79.11 81.7434 79.0617 81.7236 79.0257 81.6884C78.9897 81.6532 78.9689 81.6053 78.9679 81.5549V80.7972C78.9638 80.7699 78.9658 80.742 78.9735 80.7154C78.9812 80.6889 78.9946 80.6643 79.0126 80.6434C79.0307 80.6225 79.0531 80.6057 79.0782 80.5942C79.1034 80.5827 79.1307 80.5767 79.1583 80.5767C79.186 80.5767 79.2133 80.5827 79.2384 80.5942C79.2636 80.6057 79.2859 80.6225 79.304 80.6434C79.3221 80.6643 79.3354 80.6889 79.3432 80.7154C79.3509 80.742 79.3528 80.7699 79.3488 80.7972V81.5549C79.3477 81.6046 79.3275 81.6519 79.2924 81.687C79.2573 81.7221 79.21 81.7423 79.1604 81.7434ZM79.1604 80.2279C79.11 80.2279 79.0617 80.2082 79.0257 80.173C78.9897 80.1378 78.9689 80.0898 78.9679 80.0395V79.2818C78.9638 79.2544 78.9658 79.2265 78.9735 79.2C78.9812 79.1734 78.9946 79.1489 79.0126 79.1279C79.0307 79.107 79.0531 79.0902 79.0782 79.0787C79.1034 79.0672 79.1307 79.0613 79.1583 79.0613C79.186 79.0613 79.2133 79.0672 79.2384 79.0787C79.2636 79.0902 79.2859 79.107 79.304 79.1279C79.3221 79.1489 79.3354 79.1734 79.3432 79.2C79.3509 79.2265 79.3528 79.2544 79.3488 79.2818V80.0395C79.3477 80.0891 79.3275 80.1364 79.2924 80.1716C79.2573 80.2067 79.21 80.2268 79.1604 80.2279ZM79.1604 78.7124C79.11 78.7125 79.0617 78.6927 79.0257 78.6575C78.9897 78.6223 78.9689 78.5744 78.9679 78.524V77.7663C78.9638 77.7389 78.9658 77.711 78.9735 77.6845C78.9812 77.658 78.9946 77.6334 79.0126 77.6125C79.0307 77.5915 79.0531 77.5748 79.0782 77.5633C79.1034 77.5518 79.1307 77.5458 79.1583 77.5458C79.186 77.5458 79.2133 77.5518 79.2384 77.5633C79.2636 77.5748 79.2859 77.5915 79.304 77.6125C79.3221 77.6334 79.3354 77.658 79.3432 77.6845C79.3509 77.711 79.3528 77.7389 79.3488 77.7663V78.524C79.3477 78.5737 79.3275 78.621 79.2924 78.6561C79.2573 78.6912 79.21 78.7114 79.1604 78.7124ZM79.1604 77.197C79.1353 77.1975 79.1103 77.1931 79.087 77.1838C79.0637 77.1746 79.0424 77.1608 79.0245 77.1433C79.0066 77.1257 78.9923 77.1048 78.9826 77.0816C78.9729 77.0585 78.9679 77.0337 78.9679 77.0086V76.2508C78.9638 76.2235 78.9658 76.1956 78.9735 76.1691C78.9812 76.1425 78.9946 76.1179 79.0126 76.097C79.0307 76.0761 79.0531 76.0593 79.0782 76.0478C79.1034 76.0363 79.1307 76.0303 79.1583 76.0303C79.186 76.0303 79.2133 76.0363 79.2384 76.0478C79.2636 76.0593 79.2859 76.0761 79.304 76.097C79.3221 76.1179 79.3354 76.1425 79.3432 76.1691C79.3509 76.1956 79.3528 76.2235 79.3488 76.2508V77.0168C79.3467 77.0653 79.3259 77.1111 79.2908 77.1447C79.2557 77.1783 79.209 77.197 79.1604 77.197ZM79.1604 75.6815C79.1353 75.6821 79.1103 75.6776 79.087 75.6684C79.0637 75.6592 79.0424 75.6454 79.0245 75.6278C79.0066 75.6103 78.9923 75.5893 78.9826 75.5662C78.9729 75.543 78.9679 75.5182 78.9679 75.4931V74.7354C78.9638 74.708 78.9658 74.6801 78.9735 74.6536C78.9812 74.627 78.9946 74.6025 79.0126 74.5816C79.0307 74.5606 79.0531 74.5438 79.0782 74.5323C79.1034 74.5208 79.1307 74.5149 79.1583 74.5149C79.186 74.5149 79.2133 74.5208 79.2384 74.5323C79.2636 74.5438 79.2859 74.5606 79.304 74.5816C79.3221 74.6025 79.3354 74.627 79.3432 74.6536C79.3509 74.6801 79.3528 74.708 79.3488 74.7354V75.4931C79.3488 75.5179 79.3439 75.5424 79.3344 75.5652C79.325 75.5881 79.3111 75.6088 79.2936 75.6263C79.2761 75.6438 79.2553 75.6577 79.2325 75.6672C79.2096 75.6767 79.1851 75.6815 79.1604 75.6815ZM79.1604 74.1661C79.1353 74.1666 79.1103 74.1621 79.087 74.1529C79.0637 74.1437 79.0424 74.1299 79.0245 74.1124C79.0066 74.0948 78.9923 74.0739 78.9826 74.0507C78.9729 74.0276 78.9679 74.0028 78.9679 73.9777V73.2199C78.9746 73.1742 78.9975 73.1325 79.0325 73.1023C79.0675 73.0721 79.1121 73.0554 79.1583 73.0554C79.2045 73.0554 79.2492 73.0721 79.2842 73.1023C79.3191 73.1325 79.3421 73.1742 79.3488 73.2199V73.9777C79.3447 74.0247 79.323 74.0685 79.2881 74.1004C79.2532 74.1323 79.2076 74.1499 79.1604 74.1497V74.1661ZM79.1604 72.6547C79.1093 72.6547 79.0604 72.6344 79.0243 72.5983C78.9882 72.5622 78.9679 72.5133 78.9679 72.4622V71.6922C78.9746 71.6465 78.9975 71.6047 79.0325 71.5745C79.0675 71.5443 79.1121 71.5277 79.1583 71.5277C79.2045 71.5277 79.2492 71.5443 79.2842 71.5745C79.3191 71.6047 79.3421 71.6465 79.3488 71.6922V72.4499C79.3504 72.4759 79.3468 72.5019 79.3382 72.5264C79.3295 72.5509 79.316 72.5734 79.2983 72.5926C79.2807 72.6117 79.2594 72.6271 79.2357 72.6378C79.212 72.6484 79.1864 72.6542 79.1604 72.6547ZM79.1604 71.1392C79.1093 71.1392 79.0604 71.119 79.0243 71.0829C78.9882 71.0468 78.9679 70.9978 78.9679 70.9467V70.189C78.9746 70.1433 78.9975 70.1015 79.0325 70.0713C79.0675 70.0411 79.1121 70.0245 79.1583 70.0245C79.2045 70.0245 79.2492 70.0411 79.2842 70.0713C79.3191 70.1015 79.3421 70.1433 79.3488 70.189V70.9467C79.3488 70.9971 79.3291 71.0455 79.2939 71.0814C79.2586 71.1174 79.2107 71.1382 79.1604 71.1392ZM79.1604 69.6238C79.1093 69.6238 79.0604 69.6035 79.0243 69.5674C78.9882 69.5313 78.9679 69.4823 78.9679 69.4313V68.6736C78.9746 68.6279 78.9975 68.5861 79.0325 68.5559C79.0675 68.5257 79.1121 68.5091 79.1583 68.5091C79.2045 68.5091 79.2492 68.5257 79.2842 68.5559C79.3191 68.5861 79.3421 68.6279 79.3488 68.6736V69.4313C79.3516 69.4579 79.3489 69.4848 79.3408 69.5103C79.3326 69.5358 79.3193 69.5593 79.3016 69.5793C79.2838 69.5994 79.2621 69.6155 79.2378 69.6267C79.2135 69.6379 79.1871 69.6439 79.1604 69.6443V69.6238ZM79.1604 68.1083C79.1093 68.1083 79.0604 68.0881 79.0243 68.052C78.9882 68.0159 78.9679 67.9669 78.9679 67.9158V67.1581C78.9746 67.1124 78.9975 67.0706 79.0325 67.0404C79.0675 67.0102 79.1121 66.9936 79.1583 66.9936C79.2045 66.9936 79.2492 67.0102 79.2842 67.0404C79.3191 67.0706 79.3421 67.1124 79.3488 67.1581V67.9158C79.3488 67.9662 79.3291 68.0145 79.2939 68.0505C79.2586 68.0865 79.2107 68.1073 79.1604 68.1083ZM79.1604 66.5929C79.1093 66.5929 79.0604 66.5726 79.0243 66.5365C78.9882 66.5004 78.9679 66.4514 78.9679 66.4004V65.6426C78.9746 65.5969 78.9975 65.5552 79.0325 65.525C79.0675 65.4948 79.1121 65.4781 79.1583 65.4781C79.2045 65.4781 79.2492 65.4948 79.2842 65.525C79.3191 65.5552 79.3421 65.5969 79.3488 65.6426V66.4004C79.3488 66.4507 79.3291 66.4991 79.2939 66.5351C79.2586 66.5711 79.2107 66.5918 79.1604 66.5929Z" fill="#F5F5F5"/>
<path d="M79.1604 88.9437C79.1351 88.9437 79.1101 88.9388 79.0867 88.9291C79.0634 88.9194 79.0422 88.9052 79.0243 88.8873C79.0064 88.8695 78.9922 88.8483 78.9825 88.8249C78.9729 88.8015 78.9679 88.7765 78.9679 88.7512V88.3703C78.9746 88.3246 78.9976 88.2828 79.0325 88.2526C79.0675 88.2224 79.1121 88.2058 79.1584 88.2058C79.2046 88.2058 79.2492 88.2224 79.2842 88.2526C79.3191 88.2828 79.3421 88.3246 79.3488 88.3703V88.7512C79.3488 88.8016 79.3291 88.8499 79.2939 88.8859C79.2587 88.9219 79.2107 88.9427 79.1604 88.9437Z" fill="#F5F5F5"/>
<path d="M98.8122 41.2889C98.7625 41.2878 98.7152 41.2676 98.6801 41.2325C98.645 41.1974 98.6248 41.1501 98.6238 41.1004V40.7195C98.6197 40.6922 98.6217 40.6643 98.6294 40.6377C98.6371 40.6112 98.6505 40.5866 98.6685 40.5657C98.6866 40.5448 98.709 40.528 98.7341 40.5165C98.7592 40.505 98.7866 40.499 98.8142 40.499C98.8419 40.499 98.8692 40.505 98.8943 40.5165C98.9195 40.528 98.9418 40.5448 98.9599 40.5657C98.978 40.5866 98.9913 40.6112 98.999 40.6377C99.0068 40.6643 99.0087 40.6922 99.0047 40.7195V41.1004C99.0036 41.1508 98.9828 41.1987 98.9468 41.2339C98.9109 41.2691 98.8625 41.2889 98.8122 41.2889Z" fill="#F5F5F5"/>
<path d="M98.8122 76.816C98.7618 76.815 98.7139 76.7942 98.6787 76.7582C98.6435 76.7222 98.6237 76.6739 98.6238 76.6235V75.8535C98.6197 75.8262 98.6217 75.7983 98.6294 75.7717C98.6371 75.7452 98.6505 75.7206 98.6685 75.6997C98.6866 75.6788 98.709 75.662 98.7341 75.6505C98.7592 75.639 98.7866 75.633 98.8142 75.633C98.8419 75.633 98.8692 75.639 98.8943 75.6505C98.9195 75.662 98.9418 75.6788 98.9599 75.6997C98.978 75.7206 98.9913 75.7452 98.999 75.7717C99.0068 75.7983 99.0087 75.8262 99.0047 75.8535V76.6072C99.0069 76.6338 99.0036 76.6606 98.995 76.6859C98.9863 76.7111 98.9725 76.7343 98.9544 76.754C98.9363 76.7736 98.9143 76.7893 98.8898 76.8C98.8653 76.8107 98.8389 76.8161 98.8122 76.816ZM98.8122 75.2719C98.7618 75.2708 98.7139 75.2501 98.6787 75.2141C98.6435 75.1781 98.6237 75.1298 98.6238 75.0794V74.3053C98.6305 74.2596 98.6534 74.2178 98.6884 74.1876C98.7233 74.1574 98.768 74.1408 98.8142 74.1408C98.8604 74.1408 98.9051 74.1574 98.94 74.1876C98.975 74.2178 98.9979 74.2596 99.0047 74.3053V75.0794C99.0047 75.1047 98.9997 75.1297 98.99 75.1531C98.9803 75.1764 98.9662 75.1977 98.9483 75.2155C98.9304 75.2334 98.9092 75.2476 98.8858 75.2573C98.8625 75.2669 98.8374 75.2719 98.8122 75.2719ZM98.8122 73.7237C98.7622 73.7237 98.7143 73.7038 98.6789 73.6685C98.6436 73.6332 98.6238 73.5852 98.6238 73.5353V72.7612C98.6305 72.7155 98.6534 72.6737 98.6884 72.6435C98.7233 72.6133 98.768 72.5967 98.8142 72.5967C98.8604 72.5967 98.9051 72.6133 98.94 72.6435C98.975 72.6737 98.9979 72.7155 99.0047 72.7612V73.5353C99.007 73.5617 99.0037 73.5883 98.995 73.6134C98.9863 73.6385 98.9724 73.6614 98.9543 73.6808C98.9361 73.7001 98.914 73.7154 98.8895 73.7256C98.8651 73.7358 98.8387 73.7407 98.8122 73.7401V73.7237ZM98.8122 72.1796C98.7625 72.1785 98.7152 72.1583 98.6801 72.1232C98.645 72.0881 98.6248 72.0408 98.6238 71.9911V71.217C98.6305 71.1713 98.6534 71.1296 98.6884 71.0994C98.7233 71.0692 98.768 71.0525 98.8142 71.0525C98.8604 71.0525 98.9051 71.0692 98.94 71.0994C98.975 71.1296 98.9979 71.1713 99.0047 71.217V71.9911C99.0036 72.0415 98.9828 72.0894 98.9468 72.1246C98.9109 72.1599 98.8625 72.1796 98.8122 72.1796ZM98.8122 70.6354C98.7625 70.6344 98.7152 70.6142 98.6801 70.5791C98.645 70.544 98.6248 70.4967 98.6238 70.447V69.6729C98.6305 69.6272 98.6534 69.5854 98.6884 69.5552C98.7233 69.525 98.768 69.5084 98.8142 69.5084C98.8604 69.5084 98.9051 69.525 98.94 69.5552C98.975 69.5854 98.9979 69.6272 99.0047 69.6729V70.4634C98.9996 70.5108 98.9771 70.5547 98.9415 70.5865C98.906 70.6183 98.8599 70.6357 98.8122 70.6354ZM98.8122 69.0913C98.7625 69.0903 98.7152 69.0701 98.6801 69.035C98.645 68.9999 98.6248 68.9525 98.6238 68.9029V68.1288C98.6305 68.0831 98.6534 68.0413 98.6884 68.0111C98.7233 67.9809 98.768 67.9643 98.8142 67.9643C98.8604 67.9643 98.9051 67.9809 98.94 68.0111C98.975 68.0413 98.9979 68.0831 99.0047 68.1288V68.9029C99.0036 68.9532 98.9828 69.0012 98.9468 69.0364C98.9109 69.0716 98.8625 69.0913 98.8122 69.0913ZM98.8122 67.5472C98.7618 67.5461 98.7139 67.5254 98.6787 67.4894C98.6435 67.4534 98.6237 67.405 98.6238 67.3547V66.5847C98.6197 66.5573 98.6217 66.5294 98.6294 66.5029C98.6371 66.4763 98.6505 66.4517 98.6685 66.4308C98.6866 66.4099 98.709 66.3931 98.7341 66.3816C98.7592 66.3701 98.7866 66.3641 98.8142 66.3641C98.8419 66.3641 98.8692 66.3701 98.8943 66.3816C98.9195 66.3931 98.9418 66.4099 98.9599 66.4308C98.978 66.4517 98.9913 66.4763 98.999 66.5029C99.0068 66.5294 99.0087 66.5573 99.0047 66.5847V67.3547C99.0047 67.38 98.9997 67.405 98.99 67.4283C98.9803 67.4517 98.9662 67.4729 98.9483 67.4908C98.9304 67.5087 98.9092 67.5229 98.8858 67.5325C98.8625 67.5422 98.8374 67.5472 98.8122 67.5472ZM98.8122 66.0031C98.7618 66.002 98.7139 65.9812 98.6787 65.9452C98.6435 65.9093 98.6237 65.8609 98.6238 65.8105V65.0405C98.6197 65.0132 98.6217 64.9853 98.6294 64.9587C98.6371 64.9322 98.6505 64.9076 98.6685 64.8867C98.6866 64.8658 98.709 64.849 98.7341 64.8375C98.7592 64.826 98.7866 64.82 98.8142 64.82C98.8419 64.82 98.8692 64.826 98.8943 64.8375C98.9195 64.849 98.9418 64.8658 98.9599 64.8867C98.978 64.9076 98.9913 64.9322 98.999 64.9587C99.0068 64.9853 99.0087 65.0132 99.0047 65.0405V65.8105C99.0047 65.8358 98.9997 65.8609 98.99 65.8842C98.9803 65.9076 98.9662 65.9288 98.9483 65.9467C98.9304 65.9645 98.9092 65.9787 98.8858 65.9884C98.8625 65.9981 98.8374 66.0031 98.8122 66.0031ZM98.8122 64.4589C98.7618 64.4579 98.7139 64.4371 98.6787 64.4011C98.6435 64.3651 98.6237 64.3168 98.6238 64.2664V63.5005C98.6197 63.4731 98.6217 63.4452 98.6294 63.4187C98.6371 63.3922 98.6505 63.3676 98.6685 63.3467C98.6866 63.3257 98.709 63.309 98.7341 63.2975C98.7592 63.2859 98.7866 63.28 98.8142 63.28C98.8419 63.28 98.8692 63.2859 98.8943 63.2975C98.9195 63.309 98.9418 63.3257 98.9599 63.3467C98.978 63.3676 98.9913 63.3922 98.999 63.4187C99.0068 63.4452 99.0087 63.4731 99.0047 63.5005V64.2705C99.0036 64.3209 98.9828 64.3688 98.9468 64.404C98.9109 64.4392 98.8625 64.4589 98.8122 64.4589ZM98.8122 62.9148C98.7618 62.9137 98.7139 62.893 98.6787 62.857C98.6435 62.821 98.6237 62.7726 98.6238 62.7223V61.9523C98.6197 61.9249 98.6217 61.897 98.6294 61.8705C98.6371 61.8439 98.6505 61.8194 98.6685 61.7984C98.6866 61.7775 98.709 61.7607 98.7341 61.7492C98.7592 61.7377 98.7866 61.7318 98.8142 61.7318C98.8419 61.7318 98.8692 61.7377 98.8943 61.7492C98.9195 61.7607 98.9418 61.7775 98.9599 61.7984C98.978 61.8194 98.9913 61.8439 98.999 61.8705C99.0068 61.897 99.0087 61.9249 99.0047 61.9523V62.7223C99.0047 62.7476 98.9997 62.7726 98.99 62.796C98.9803 62.8193 98.9662 62.8405 98.9483 62.8584C98.9304 62.8763 98.9092 62.8905 98.8858 62.9001C98.8625 62.9098 98.8374 62.9148 98.8122 62.9148ZM98.8122 61.3707C98.7618 61.3696 98.7139 61.3488 98.6787 61.3129C98.6435 61.2769 98.6237 61.2285 98.6238 61.1782V60.4081C98.6197 60.3808 98.6217 60.3529 98.6294 60.3264C98.6371 60.2998 98.6505 60.2752 98.6685 60.2543C98.6866 60.2334 98.709 60.2166 98.7341 60.2051C98.7592 60.1936 98.7866 60.1876 98.8142 60.1876C98.8419 60.1876 98.8692 60.1936 98.8943 60.2051C98.9195 60.2166 98.9418 60.2334 98.9599 60.2543C98.978 60.2752 98.9913 60.2998 98.999 60.3264C99.0068 60.3529 99.0087 60.3808 99.0047 60.4081V61.1782C99.0047 61.2034 98.9997 61.2285 98.99 61.2518C98.9803 61.2752 98.9662 61.2964 98.9483 61.3143C98.9304 61.3322 98.9092 61.3463 98.8858 61.356C98.8625 61.3657 98.8374 61.3707 98.8122 61.3707ZM98.8122 59.8224C98.7622 59.8224 98.7143 59.8026 98.6789 59.7673C98.6436 59.7319 98.6238 59.684 98.6238 59.634V58.8599C98.6305 58.8142 98.6534 58.7724 98.6884 58.7422C98.7233 58.712 98.768 58.6954 98.8142 58.6954C98.8604 58.6954 98.9051 58.712 98.94 58.7422C98.975 58.7724 98.9979 58.8142 99.0047 58.8599V59.634C99.0025 59.6833 98.9812 59.7297 98.9452 59.7634C98.9092 59.7971 98.8615 59.8154 98.8122 59.8143V59.8224ZM98.8122 58.2783C98.7622 58.2783 98.7143 58.2585 98.6789 58.2231C98.6436 58.1878 98.6238 58.1399 98.6238 58.0899V57.3158C98.6305 57.2701 98.6534 57.2283 98.6884 57.1981C98.7233 57.1679 98.768 57.1513 98.8142 57.1513C98.8604 57.1513 98.9051 57.1679 98.94 57.1981C98.975 57.2283 98.9979 57.2701 99.0047 57.3158V58.0899C99.0047 58.115 98.9997 58.1398 98.9899 58.163C98.9802 58.1861 98.966 58.2071 98.948 58.2246C98.9301 58.2422 98.9088 58.2559 98.8855 58.2652C98.8622 58.2744 98.8373 58.2789 98.8122 58.2783ZM98.8122 56.7342C98.7625 56.7331 98.7152 56.713 98.6801 56.6778C98.645 56.6427 98.6248 56.5954 98.6238 56.5458V55.7717C98.6305 55.726 98.6534 55.6842 98.6884 55.654C98.7233 55.6238 98.768 55.6072 98.8142 55.6072C98.8604 55.6072 98.9051 55.6238 98.94 55.654C98.975 55.6842 98.9979 55.726 99.0047 55.7717V56.5376C99.0052 56.5632 99.0006 56.5887 98.9912 56.6125C98.9818 56.6364 98.9677 56.6581 98.9497 56.6764C98.9318 56.6947 98.9104 56.7092 98.8868 56.7192C98.8632 56.7291 98.8378 56.7342 98.8122 56.7342ZM98.8122 55.1901C98.7625 55.189 98.7152 55.1688 98.6801 55.1337C98.645 55.0986 98.6248 55.0513 98.6238 55.0017V54.2275C98.6305 54.1818 98.6534 54.1401 98.6884 54.1099C98.7233 54.0797 98.768 54.063 98.8142 54.063C98.8604 54.063 98.9051 54.0797 98.94 54.1099C98.975 54.1401 98.9979 54.1818 99.0047 54.2275V55.0017C99.0036 55.052 98.9828 55.0999 98.9468 55.1351C98.9109 55.1704 98.8625 55.1901 98.8122 55.1901ZM98.8122 53.6459C98.7625 53.6449 98.7152 53.6247 98.6801 53.5896C98.645 53.5545 98.6248 53.5072 98.6238 53.4575V52.6834C98.6305 52.6377 98.6534 52.5959 98.6884 52.5657C98.7233 52.5355 98.768 52.5189 98.8142 52.5189C98.8604 52.5189 98.9051 52.5355 98.94 52.5657C98.975 52.5959 98.9979 52.6377 99.0047 52.6834V53.4575C99.0036 53.5079 98.9828 53.5558 98.9468 53.591C98.9109 53.6262 98.8625 53.6459 98.8122 53.6459ZM98.8122 52.1018C98.7618 52.1007 98.7139 52.08 98.6787 52.044C98.6435 52.008 98.6237 51.9597 98.6238 51.9093V51.1393C98.6197 51.1119 98.6217 51.084 98.6294 51.0575C98.6371 51.031 98.6505 51.0064 98.6685 50.9855C98.6866 50.9645 98.709 50.9477 98.7341 50.9362C98.7592 50.9247 98.7866 50.9188 98.8142 50.9188C98.8419 50.9188 98.8692 50.9247 98.8943 50.9362C98.9195 50.9477 98.9418 50.9645 98.9599 50.9855C98.978 51.0064 98.9913 51.031 98.999 51.0575C99.0068 51.084 99.0087 51.1119 99.0047 51.1393V51.9093C99.0047 51.9346 98.9997 51.9596 98.99 51.983C98.9803 52.0063 98.9662 52.0275 98.9483 52.0454C98.9304 52.0633 98.9092 52.0775 98.8858 52.0872C98.8625 52.0968 98.8374 52.1018 98.8122 52.1018ZM98.8122 50.5577C98.7618 50.5566 98.7139 50.5359 98.6787 50.4999C98.6435 50.4639 98.6237 50.4155 98.6238 50.3652V49.5952C98.6197 49.5678 98.6217 49.5399 98.6294 49.5134C98.6371 49.4868 98.6505 49.4623 98.6685 49.4413C98.6866 49.4204 98.709 49.4036 98.7341 49.3921C98.7592 49.3806 98.7866 49.3747 98.8142 49.3747C98.8419 49.3747 98.8692 49.3806 98.8943 49.3921C98.9195 49.4036 98.9418 49.4204 98.9599 49.4413C98.978 49.4623 98.9913 49.4868 98.999 49.5134C99.0068 49.5399 99.0087 49.5678 99.0047 49.5952V50.3652C99.0047 50.3905 98.9997 50.4155 98.99 50.4388C98.9803 50.4622 98.9662 50.4834 98.9483 50.5013C98.9304 50.5192 98.9092 50.5334 98.8858 50.543C98.8625 50.5527 98.8374 50.5577 98.8122 50.5577ZM98.8122 49.0136C98.7618 49.0125 98.7139 48.9917 98.6787 48.9557C98.6435 48.9198 98.6237 48.8714 98.6238 48.8211V48.051C98.6197 48.0237 98.6217 47.9958 98.6294 47.9692C98.6371 47.9427 98.6505 47.9181 98.6685 47.8972C98.6866 47.8763 98.709 47.8595 98.7341 47.848C98.7592 47.8365 98.7866 47.8305 98.8142 47.8305C98.8419 47.8305 98.8692 47.8365 98.8943 47.848C98.9195 47.8595 98.9418 47.8763 98.9599 47.8972C98.978 47.9181 98.9913 47.9427 98.999 47.9692C99.0068 47.9958 99.0087 48.0237 99.0047 48.051V48.8211C99.0047 48.8463 98.9997 48.8714 98.99 48.8947C98.9803 48.9181 98.9662 48.9393 98.9483 48.9572C98.9304 48.975 98.9092 48.9892 98.8858 48.9989C98.8625 49.0086 98.8374 49.0136 98.8122 49.0136ZM98.8122 47.4694C98.7618 47.4684 98.7139 47.4476 98.6787 47.4116C98.6435 47.3756 98.6237 47.3273 98.6238 47.2769V46.5069C98.6197 46.4796 98.6217 46.4517 98.6294 46.4251C98.6371 46.3986 98.6505 46.374 98.6685 46.3531C98.6866 46.3322 98.709 46.3154 98.7341 46.3039C98.7592 46.2924 98.7866 46.2864 98.8142 46.2864C98.8419 46.2864 98.8692 46.2924 98.8943 46.3039C98.9195 46.3154 98.9418 46.3322 98.9599 46.3531C98.978 46.374 98.9913 46.3986 98.999 46.4251C99.0068 46.4517 99.0087 46.4796 99.0047 46.5069V47.2769C99.0047 47.3022 98.9997 47.3272 98.99 47.3506C98.9803 47.3739 98.9662 47.3952 98.9483 47.413C98.9304 47.4309 98.9092 47.4451 98.8858 47.4548C98.8625 47.4644 98.8374 47.4694 98.8122 47.4694ZM98.8122 45.9253C98.7618 45.9242 98.7139 45.9035 98.6787 45.8675C98.6435 45.8315 98.6237 45.7831 98.6238 45.7328V44.9587C98.6305 44.913 98.6534 44.8712 98.6884 44.841C98.7233 44.8108 98.768 44.7942 98.8142 44.7942C98.8604 44.7942 98.9051 44.8108 98.94 44.841C98.975 44.8712 98.9979 44.913 99.0047 44.9587V45.7328C99.0047 45.7581 98.9997 45.7831 98.99 45.8065C98.9803 45.8298 98.9662 45.851 98.9483 45.8689C98.9304 45.8868 98.9092 45.901 98.8858 45.9107C98.8625 45.9203 98.8374 45.9253 98.8122 45.9253ZM98.8122 44.3771C98.7622 44.3771 98.7143 44.3572 98.6789 44.3219C98.6436 44.2866 98.6238 44.2386 98.6238 44.1887V43.4309C98.6305 43.3852 98.6534 43.3435 98.6884 43.3133C98.7233 43.2831 98.768 43.2664 98.8142 43.2664C98.8604 43.2664 98.9051 43.2831 98.94 43.3133C98.975 43.3435 98.9979 43.3852 99.0047 43.4309V44.2051C99.0005 44.2528 98.9783 44.2973 98.9425 44.3292C98.9067 44.3612 98.8601 44.3783 98.8122 44.3771ZM98.8122 42.8329C98.7622 42.8329 98.7143 42.8131 98.6789 42.7778C98.6436 42.7424 98.6238 42.6945 98.6238 42.6445V41.8704C98.6305 41.8247 98.6534 41.783 98.6884 41.7527C98.7233 41.7225 98.768 41.7059 98.8142 41.7059C98.8604 41.7059 98.9051 41.7225 98.94 41.7527C98.975 41.783 98.9979 41.8247 99.0047 41.8704V42.6445C99.0047 42.6696 98.9997 42.6945 98.9899 42.7176C98.9802 42.7407 98.966 42.7617 98.948 42.7792C98.9301 42.7968 98.9088 42.8106 98.8855 42.8198C98.8622 42.829 98.8373 42.8335 98.8122 42.8329Z" fill="#F5F5F5"/>
<path d="M98.8122 77.967C98.7625 77.9659 98.7152 77.9457 98.6801 77.9106C98.645 77.8755 98.6248 77.8282 98.6238 77.7785V77.3976C98.6197 77.3703 98.6217 77.3424 98.6294 77.3158C98.6371 77.2893 98.6505 77.2647 98.6685 77.2438C98.6866 77.2229 98.709 77.2061 98.7341 77.1946C98.7592 77.1831 98.7866 77.1771 98.8142 77.1771C98.8419 77.1771 98.8692 77.1831 98.8943 77.1946C98.9195 77.2061 98.9418 77.2229 98.9599 77.2438C98.978 77.2647 98.9913 77.2893 98.999 77.3158C99.0068 77.3424 99.0087 77.3703 99.0047 77.3976V77.7785C99.0036 77.8289 98.9828 77.8768 98.9468 77.912C98.9109 77.9472 98.8625 77.967 98.8122 77.967Z" fill="#F5F5F5"/>
<path d="M113.831 46.47C113.781 46.4689 113.733 46.4482 113.698 46.4122C113.663 46.3762 113.643 46.3278 113.643 46.2775V45.8884C113.65 45.8427 113.673 45.8009 113.708 45.7707C113.743 45.7405 113.787 45.7239 113.834 45.7239C113.88 45.7239 113.924 45.7405 113.959 45.7707C113.994 45.8009 114.017 45.8427 114.024 45.8884V46.298C114.019 46.3454 113.996 46.3892 113.961 46.421C113.925 46.4528 113.879 46.4703 113.831 46.47Z" fill="#F5F5F5"/>
<path d="M113.832 68.2025C113.782 68.2014 113.735 68.1812 113.699 68.1461C113.664 68.111 113.644 68.0637 113.643 68.0141V67.2359C113.65 67.1901 113.673 67.1484 113.708 67.1182C113.743 67.088 113.787 67.0714 113.834 67.0714C113.88 67.0714 113.924 67.088 113.959 67.1182C113.994 67.1484 114.017 67.1901 114.024 67.2359V68.0059C114.025 68.0315 114.02 68.057 114.011 68.0808C114.001 68.1046 113.987 68.1263 113.969 68.1446C113.951 68.163 113.93 68.1775 113.906 68.1874C113.883 68.1974 113.857 68.2025 113.832 68.2025ZM113.832 66.6502C113.782 66.6491 113.735 66.6289 113.699 66.5938C113.664 66.5587 113.644 66.5114 113.643 66.4617V65.6835C113.65 65.6378 113.673 65.5961 113.708 65.5659C113.743 65.5357 113.787 65.519 113.834 65.519C113.88 65.519 113.924 65.5357 113.959 65.5659C113.994 65.5961 114.017 65.6378 114.024 65.6835V66.4617C114.023 66.5121 114.002 66.56 113.966 66.5952C113.93 66.6304 113.882 66.6502 113.832 66.6502ZM113.832 65.0978C113.782 65.0968 113.735 65.0766 113.699 65.0415C113.664 65.0064 113.644 64.9591 113.643 64.9094V64.1312C113.65 64.0855 113.673 64.0437 113.708 64.0135C113.743 63.9833 113.787 63.9667 113.834 63.9667C113.88 63.9667 113.924 63.9833 113.959 64.0135C113.994 64.0437 114.017 64.0855 114.024 64.1312V64.9094C114.023 64.9598 114.002 65.0077 113.966 65.0429C113.93 65.0781 113.882 65.0978 113.832 65.0978ZM113.832 63.5455C113.782 63.5445 113.735 63.5243 113.699 63.4892C113.664 63.4541 113.644 63.4067 113.643 63.3571V62.5789C113.65 62.5332 113.673 62.4914 113.708 62.4612C113.743 62.431 113.787 62.4144 113.834 62.4144C113.88 62.4144 113.924 62.431 113.959 62.4612C113.994 62.4914 114.017 62.5332 114.024 62.5789V63.3571C114.023 63.4074 114.002 63.4554 113.966 63.4906C113.93 63.5258 113.882 63.5455 113.832 63.5455ZM113.832 61.9932C113.782 61.9922 113.735 61.972 113.699 61.9369C113.664 61.9017 113.644 61.8544 113.643 61.8048V61.043C113.65 60.9973 113.673 60.9555 113.708 60.9253C113.743 60.8951 113.787 60.8785 113.834 60.8785C113.88 60.8785 113.924 60.8951 113.959 60.9253C113.994 60.9555 114.017 60.9973 114.024 61.043V61.8212C114.019 61.8686 113.997 61.9125 113.961 61.9442C113.925 61.976 113.879 61.9935 113.832 61.9932ZM113.832 60.4409C113.782 60.4398 113.735 60.4196 113.699 60.3845C113.664 60.3494 113.644 60.3021 113.643 60.2525V59.4743C113.65 59.4286 113.673 59.3868 113.708 59.3566C113.743 59.3264 113.787 59.3098 113.834 59.3098C113.88 59.3098 113.924 59.3264 113.959 59.3566C113.994 59.3868 114.017 59.4286 114.024 59.4743V60.2525C114.023 60.3028 114.002 60.3507 113.966 60.3859C113.93 60.4212 113.882 60.4409 113.832 60.4409ZM113.832 58.8886C113.782 58.8875 113.735 58.8673 113.699 58.8322C113.664 58.7971 113.644 58.7498 113.643 58.7002V57.9219C113.65 57.8762 113.673 57.8345 113.708 57.8043C113.743 57.7741 113.787 57.7574 113.834 57.7574C113.88 57.7574 113.924 57.7741 113.959 57.8043C113.994 57.8345 114.017 57.8762 114.024 57.9219V58.7002C114.023 58.7505 114.002 58.7984 113.966 58.8336C113.93 58.8689 113.882 58.8886 113.832 58.8886ZM113.832 57.3362C113.782 57.3352 113.735 57.315 113.699 57.2799C113.664 57.2448 113.644 57.1975 113.643 57.1478V56.3696C113.65 56.3239 113.673 56.2821 113.708 56.2519C113.743 56.2217 113.787 56.2051 113.834 56.2051C113.88 56.2051 113.924 56.2217 113.959 56.2519C113.994 56.2821 114.017 56.3239 114.024 56.3696V57.1478C114.026 57.1745 114.023 57.2013 114.014 57.2265C114.006 57.2518 113.992 57.275 113.974 57.2947C113.956 57.3143 113.934 57.33 113.909 57.3407C113.885 57.3514 113.858 57.3568 113.832 57.3567V57.3362ZM113.832 55.7839C113.782 55.7829 113.735 55.7627 113.699 55.7276C113.664 55.6925 113.644 55.6452 113.643 55.5955V54.8173C113.65 54.7716 113.673 54.7298 113.708 54.6996C113.743 54.6694 113.787 54.6528 113.834 54.6528C113.88 54.6528 113.924 54.6694 113.959 54.6996C113.994 54.7298 114.017 54.7716 114.024 54.8173V55.5955C114.023 55.6459 114.002 55.6938 113.966 55.729C113.93 55.7642 113.882 55.7839 113.832 55.7839ZM113.832 54.2316C113.782 54.2306 113.735 54.2104 113.699 54.1753C113.664 54.1402 113.644 54.0928 113.643 54.0432V53.2609C113.65 53.2152 113.673 53.1734 113.708 53.1432C113.743 53.113 113.787 53.0964 113.834 53.0964C113.88 53.0964 113.924 53.113 113.959 53.1432C113.994 53.1734 114.017 53.2152 114.024 53.2609V54.0391C114.024 54.0644 114.019 54.0894 114.009 54.1128C114 54.1361 113.986 54.1573 113.968 54.1752C113.95 54.1931 113.929 54.2073 113.905 54.217C113.882 54.2266 113.857 54.2316 113.832 54.2316ZM113.832 52.6793C113.782 52.6782 113.735 52.6581 113.699 52.6229C113.664 52.5878 113.644 52.5405 113.643 52.4909V51.7127C113.65 51.667 113.673 51.6252 113.708 51.595C113.743 51.5648 113.787 51.5482 113.834 51.5482C113.88 51.5482 113.924 51.5648 113.959 51.595C113.994 51.6252 114.017 51.667 114.024 51.7127V52.4909C114.023 52.5412 114.002 52.5891 113.966 52.6244C113.93 52.6596 113.882 52.6793 113.832 52.6793ZM113.832 51.127C113.781 51.1259 113.733 51.1051 113.698 51.0692C113.663 51.0332 113.643 50.9848 113.643 50.9345V50.1603C113.639 50.133 113.641 50.1051 113.649 50.0786C113.657 50.052 113.67 50.0274 113.688 50.0065C113.706 49.9856 113.728 49.9688 113.754 49.9573C113.779 49.9458 113.806 49.9398 113.834 49.9398C113.861 49.9398 113.889 49.9458 113.914 49.9573C113.939 49.9688 113.961 49.9856 113.979 50.0065C113.997 50.0274 114.011 50.052 114.018 50.0786C114.026 50.1051 114.028 50.133 114.024 50.1603V50.9345C114.024 50.9855 114.004 51.0345 113.968 51.0706C113.932 51.1067 113.883 51.127 113.832 51.127ZM113.832 49.5746C113.781 49.5736 113.733 49.5528 113.698 49.5168C113.663 49.4809 113.643 49.4325 113.643 49.3821V48.608C113.639 48.5807 113.641 48.5528 113.649 48.5262C113.657 48.4997 113.67 48.4751 113.688 48.4542C113.706 48.4333 113.728 48.4165 113.754 48.405C113.779 48.3935 113.806 48.3875 113.834 48.3875C113.861 48.3875 113.889 48.3935 113.914 48.405C113.939 48.4165 113.961 48.4333 113.979 48.4542C113.997 48.4751 114.011 48.4997 114.018 48.5262C114.026 48.5528 114.028 48.5807 114.024 48.608V49.3821C114.024 49.4332 114.004 49.4822 113.968 49.5183C113.932 49.5544 113.883 49.5746 113.832 49.5746ZM113.832 48.0223C113.781 48.0213 113.733 48.0005 113.698 47.9645C113.663 47.9285 113.643 47.8802 113.643 47.8298V47.0557C113.639 47.0284 113.641 47.0005 113.649 46.9739C113.657 46.9474 113.67 46.9228 113.688 46.9019C113.706 46.881 113.728 46.8642 113.754 46.8527C113.779 46.8412 113.806 46.8352 113.834 46.8352C113.861 46.8352 113.889 46.8412 113.914 46.8527C113.939 46.8642 113.961 46.881 113.979 46.9019C113.997 46.9228 114.011 46.9474 114.018 46.9739C114.026 47.0005 114.028 47.0284 114.024 47.0557V47.8298C114.024 47.8809 114.004 47.9298 113.968 47.9659C113.932 48.002 113.883 48.0223 113.832 48.0223Z" fill="#F5F5F5"/>
<path d="M113.831 69.3616C113.781 69.3605 113.733 69.3397 113.698 69.3038C113.663 69.2678 113.643 69.2194 113.643 69.1691V68.7882C113.65 68.7424 113.673 68.7007 113.708 68.6705C113.743 68.6403 113.787 68.6237 113.834 68.6237C113.88 68.6237 113.924 68.6403 113.959 68.6705C113.994 68.7007 114.017 68.7424 114.024 68.7882V69.1691C114.024 69.1943 114.019 69.2194 114.009 69.2427C114 69.2661 113.985 69.2873 113.968 69.3052C113.95 69.3231 113.928 69.3372 113.905 69.3469C113.882 69.3566 113.857 69.3616 113.831 69.3616Z" fill="#F5F5F5"/>
<path d="M128.63 47.4858C128.579 47.4858 128.53 47.4656 128.494 47.4295C128.458 47.3934 128.437 47.3444 128.437 47.2933V46.9124C128.444 46.8667 128.467 46.8249 128.502 46.7947C128.537 46.7645 128.582 46.7479 128.628 46.7479C128.674 46.7479 128.719 46.7645 128.754 46.7947C128.789 46.8249 128.811 46.8667 128.818 46.9124V47.2933C128.818 47.3437 128.798 47.392 128.763 47.428C128.728 47.464 128.68 47.4848 128.63 47.4858Z" fill="#F5F5F5"/>
<path d="M128.63 59.6463C128.579 59.6463 128.53 59.626 128.494 59.5899C128.458 59.5538 128.437 59.5049 128.437 59.4538V58.6961C128.433 58.6687 128.435 58.6408 128.443 58.6143C128.451 58.5877 128.464 58.5632 128.482 58.5423C128.5 58.5213 128.522 58.5045 128.548 58.493C128.573 58.4815 128.6 58.4756 128.628 58.4756C128.655 58.4756 128.683 58.4815 128.708 58.493C128.733 58.5045 128.755 58.5213 128.773 58.5423C128.791 58.5632 128.805 58.5877 128.813 58.6143C128.82 58.6408 128.822 58.6687 128.818 58.6961V59.4538C128.818 59.5042 128.798 59.5525 128.763 59.5885C128.728 59.6245 128.68 59.6452 128.63 59.6463ZM128.63 58.1268C128.579 58.1268 128.53 58.1065 128.494 58.0704C128.458 58.0343 128.437 57.9853 128.437 57.9343V57.1765C128.433 57.1492 128.435 57.1213 128.443 57.0947C128.451 57.0682 128.464 57.0436 128.482 57.0227C128.5 57.0018 128.522 56.985 128.548 56.9735C128.573 56.962 128.6 56.956 128.628 56.956C128.655 56.956 128.683 56.962 128.708 56.9735C128.733 56.985 128.755 57.0018 128.773 57.0227C128.791 57.0436 128.805 57.0682 128.813 57.0947C128.82 57.1213 128.822 57.1492 128.818 57.1765V57.9343C128.818 57.9846 128.798 58.033 128.763 58.069C128.728 58.1049 128.68 58.1257 128.63 58.1268ZM128.63 56.6072C128.579 56.6072 128.53 56.5869 128.494 56.5508C128.458 56.5147 128.437 56.4658 128.437 56.4147V55.657C128.433 55.6296 128.435 55.6017 128.443 55.5752C128.451 55.5486 128.464 55.5241 128.482 55.5031C128.5 55.4822 128.522 55.4654 128.548 55.4539C128.573 55.4424 128.6 55.4365 128.628 55.4365C128.655 55.4365 128.683 55.4424 128.708 55.4539C128.733 55.4654 128.755 55.4822 128.773 55.5031C128.791 55.5241 128.805 55.5486 128.813 55.5752C128.82 55.6017 128.822 55.6296 128.818 55.657V56.4147C128.818 56.4651 128.798 56.5134 128.763 56.5494C128.728 56.5854 128.68 56.6061 128.63 56.6072ZM128.63 55.0877C128.579 55.0877 128.53 55.0674 128.494 55.0313C128.458 54.9952 128.437 54.9462 128.437 54.8952V54.1333C128.444 54.0876 128.467 54.0459 128.502 54.0157C128.537 53.9855 128.581 53.9688 128.628 53.9688C128.674 53.9688 128.719 53.9855 128.754 54.0157C128.788 54.0459 128.811 54.0876 128.818 54.1333V54.8993C128.817 54.9489 128.797 54.9962 128.762 55.0313C128.727 55.0664 128.679 55.0866 128.63 55.0877ZM128.63 53.564C128.605 53.5646 128.58 53.5601 128.556 53.5509C128.533 53.5416 128.512 53.5279 128.494 53.5103C128.476 53.4928 128.462 53.4718 128.452 53.4487C128.442 53.4255 128.437 53.4007 128.437 53.3756V52.6138C128.444 52.5681 128.467 52.5263 128.502 52.4961C128.537 52.4659 128.581 52.4493 128.628 52.4493C128.674 52.4493 128.719 52.4659 128.754 52.4961C128.788 52.5263 128.811 52.5681 128.818 52.6138V53.3756C128.818 53.4256 128.798 53.4735 128.763 53.5088C128.728 53.5442 128.68 53.564 128.63 53.564ZM128.63 52.0445C128.579 52.0445 128.531 52.0248 128.495 51.9895C128.459 51.9543 128.438 51.9064 128.437 51.8561V51.0942C128.444 51.0485 128.467 51.0068 128.502 50.9766C128.537 50.9464 128.581 50.9297 128.628 50.9297C128.674 50.9297 128.719 50.9464 128.754 50.9766C128.788 51.0068 128.811 51.0485 128.818 51.0942V51.8561C128.814 51.9035 128.793 51.9478 128.758 51.9803C128.723 52.0129 128.677 52.0313 128.63 52.0322V52.0445ZM128.63 50.5249C128.579 50.5249 128.531 50.5052 128.495 50.47C128.459 50.4348 128.438 50.3868 128.437 50.3365V49.5747C128.444 49.529 128.467 49.4872 128.502 49.457C128.537 49.4268 128.581 49.4102 128.628 49.4102C128.674 49.4102 128.719 49.4268 128.754 49.457C128.788 49.4872 128.811 49.529 128.818 49.5747V50.3365C128.817 50.3861 128.797 50.4335 128.762 50.4686C128.727 50.5037 128.679 50.5239 128.63 50.5249ZM128.63 49.0054C128.579 49.0054 128.531 48.9857 128.495 48.9504C128.459 48.9152 128.438 48.8673 128.437 48.8169V48.0551C128.444 48.0094 128.467 47.9676 128.502 47.9374C128.537 47.9072 128.581 47.8906 128.628 47.8906C128.674 47.8906 128.719 47.9072 128.754 47.9374C128.788 47.9676 128.811 48.0094 128.818 48.0551V48.8169C128.817 48.8666 128.797 48.9139 128.762 48.949C128.727 48.9841 128.679 49.0043 128.63 49.0054Z" fill="#F5F5F5"/>
<path d="M128.63 60.7849C128.605 60.7855 128.58 60.781 128.556 60.7718C128.533 60.7626 128.512 60.7488 128.494 60.7312C128.476 60.7137 128.462 60.6927 128.452 60.6696C128.442 60.6465 128.437 60.6216 128.437 60.5965V60.2238C128.433 60.1965 128.435 60.1686 128.443 60.142C128.451 60.1155 128.464 60.0909 128.482 60.07C128.5 60.049 128.522 60.0323 128.548 60.0208C128.573 60.0093 128.6 60.0033 128.628 60.0033C128.655 60.0033 128.683 60.0093 128.708 60.0208C128.733 60.0323 128.755 60.049 128.773 60.07C128.791 60.0909 128.805 60.1155 128.813 60.142C128.82 60.1686 128.822 60.1965 128.818 60.2238V60.6047C128.816 60.6532 128.795 60.6991 128.76 60.7327C128.725 60.7663 128.678 60.785 128.63 60.7849Z" fill="#F5F5F5"/>
<path d="M116.924 34.113C116.924 33.7402 116.662 33.5887 116.338 33.7771L110.944 36.8776C110.773 36.9898 110.631 37.1405 110.529 37.3177C110.428 37.4949 110.369 37.6935 110.358 37.8975V42.2636C110.358 42.6364 110.62 42.7879 110.944 42.5995L112.947 41.4445L113.786 42.9026C113.799 42.9234 113.817 42.9403 113.839 42.9511C113.861 42.962 113.885 42.9664 113.909 42.9638C113.933 42.9612 113.956 42.9517 113.975 42.9365C113.994 42.9213 114.008 42.901 114.016 42.878L114.905 40.314L116.338 39.4949C116.509 39.3841 116.652 39.2342 116.754 39.0576C116.855 38.881 116.914 38.6827 116.924 38.4791V34.113Z" fill="#F5F5F5"/>
<path d="M112.23 38.6879C112.176 38.6922 112.122 38.684 112.071 38.6642C112.021 38.6443 111.976 38.6132 111.939 38.5732C111.861 38.4718 111.823 38.3448 111.833 38.2169C111.833 38.05 111.869 37.8851 111.939 37.7336C112.011 37.5674 112.109 37.4139 112.23 37.2789C112.346 37.1422 112.485 37.0259 112.64 36.9349C112.763 36.858 112.904 36.8143 113.049 36.8079C113.103 36.8048 113.158 36.8138 113.208 36.8344C113.258 36.8549 113.303 36.8865 113.34 36.9267C113.42 37.0275 113.459 37.1546 113.451 37.283C113.448 37.4488 113.41 37.6121 113.34 37.7623C113.266 37.9284 113.168 38.0829 113.049 38.221C112.932 38.3544 112.793 38.4679 112.64 38.5569C112.517 38.6362 112.376 38.6815 112.23 38.6879ZM112.099 40.8956C112.1 40.8697 112.107 40.8445 112.119 40.8218L114.462 36.0584L114.524 35.9519C114.549 35.9249 114.578 35.9015 114.61 35.8823L115.089 35.6079C115.098 35.604 115.108 35.6021 115.118 35.6021C115.127 35.6021 115.137 35.604 115.146 35.6079C115.154 35.6098 115.161 35.6147 115.166 35.6215C115.17 35.6283 115.172 35.6366 115.171 35.6447C115.17 35.6725 115.162 35.6995 115.146 35.7225L112.783 40.4901C112.783 40.531 112.742 40.5597 112.73 40.5802C112.708 40.6041 112.681 40.6236 112.652 40.6375L112.169 40.9201C112.128 40.9734 112.099 40.9447 112.099 40.8956ZM112.918 37.8728C112.992 37.7666 113.033 37.6415 113.037 37.5124C113.044 37.466 113.036 37.4185 113.015 37.3766C112.994 37.3348 112.96 37.3006 112.918 37.2789C112.868 37.2641 112.816 37.2611 112.764 37.2704C112.713 37.2796 112.665 37.3008 112.623 37.3322C112.503 37.4024 112.402 37.5008 112.328 37.6189C112.254 37.7279 112.213 37.8558 112.21 37.9875C112.203 38.0328 112.211 38.079 112.232 38.1194C112.254 38.1599 112.287 38.1925 112.328 38.2128C112.378 38.2276 112.43 38.2309 112.481 38.2224C112.533 38.2139 112.581 38.1938 112.623 38.1636C112.75 38.0941 112.857 37.9941 112.935 37.8728H112.918ZM114.221 39.7078C114.166 39.7118 114.11 39.7033 114.059 39.6827C114.008 39.6621 113.963 39.63 113.926 39.589C113.846 39.4898 113.806 39.3639 113.815 39.2368C113.818 39.0723 113.856 38.9104 113.926 38.7616C113.999 38.5943 114.099 38.4395 114.221 38.3029C114.337 38.1671 114.475 38.0522 114.63 37.963C114.753 37.8836 114.894 37.8383 115.04 37.8319C115.094 37.829 115.149 37.8378 115.2 37.8575C115.25 37.8773 115.296 37.9077 115.335 37.9466C115.415 38.047 115.455 38.1744 115.445 38.3029C115.443 38.4687 115.405 38.6321 115.335 38.7821C115.259 38.9484 115.16 39.1029 115.04 39.2409C114.922 39.3755 114.784 39.4903 114.63 39.5808C114.511 39.6546 114.376 39.6982 114.237 39.7078H114.221ZM114.921 38.8886C114.996 38.7818 115.038 38.6548 115.04 38.5241C115.04 38.4053 115.003 38.3316 114.921 38.2988C114.871 38.2836 114.818 38.2805 114.767 38.2898C114.716 38.299 114.667 38.3204 114.626 38.3521C114.505 38.421 114.404 38.5197 114.331 38.6388C114.258 38.7453 114.217 38.8703 114.212 38.9992C114.212 39.1221 114.253 39.1999 114.331 39.2286C114.381 39.2416 114.434 39.2436 114.485 39.2344C114.535 39.2253 114.584 39.2051 114.626 39.1753C114.75 39.1084 114.857 39.0129 114.937 38.8968L114.921 38.8886Z" fill="#01B6EB"/>
<path opacity="0.4" d="M112.23 38.6879C112.176 38.6922 112.122 38.684 112.071 38.6642C112.021 38.6443 111.976 38.6132 111.939 38.5732C111.861 38.4718 111.823 38.3448 111.833 38.2169C111.833 38.05 111.869 37.8851 111.939 37.7336C112.011 37.5674 112.109 37.4139 112.23 37.2789C112.346 37.1422 112.485 37.0259 112.64 36.9349C112.763 36.858 112.904 36.8143 113.049 36.8079C113.103 36.8048 113.158 36.8138 113.208 36.8344C113.258 36.8549 113.303 36.8865 113.34 36.9267C113.42 37.0275 113.459 37.1546 113.451 37.283C113.448 37.4488 113.41 37.6121 113.34 37.7623C113.266 37.9284 113.168 38.0829 113.049 38.221C112.932 38.3544 112.793 38.4679 112.64 38.5569C112.517 38.6362 112.376 38.6815 112.23 38.6879ZM112.099 40.8956C112.1 40.8697 112.107 40.8445 112.119 40.8218L114.462 36.0584L114.524 35.9519C114.549 35.9249 114.578 35.9015 114.61 35.8823L115.089 35.6079C115.098 35.604 115.108 35.6021 115.118 35.6021C115.127 35.6021 115.137 35.604 115.146 35.6079C115.154 35.6098 115.161 35.6147 115.166 35.6215C115.17 35.6283 115.172 35.6366 115.171 35.6447C115.17 35.6725 115.162 35.6995 115.146 35.7225L112.783 40.4901C112.783 40.531 112.742 40.5597 112.73 40.5802C112.708 40.6041 112.681 40.6236 112.652 40.6375L112.169 40.9201C112.128 40.9734 112.099 40.9447 112.099 40.8956ZM112.918 37.8728C112.992 37.7666 113.033 37.6415 113.037 37.5124C113.044 37.466 113.036 37.4185 113.015 37.3766C112.994 37.3348 112.96 37.3006 112.918 37.2789C112.868 37.2641 112.816 37.2611 112.764 37.2704C112.713 37.2796 112.665 37.3008 112.623 37.3322C112.503 37.4024 112.402 37.5008 112.328 37.6189C112.254 37.7279 112.213 37.8558 112.21 37.9875C112.203 38.0328 112.211 38.079 112.232 38.1194C112.254 38.1599 112.287 38.1925 112.328 38.2128C112.378 38.2276 112.43 38.2309 112.481 38.2224C112.533 38.2139 112.581 38.1938 112.623 38.1636C112.75 38.0941 112.857 37.9941 112.935 37.8728H112.918ZM114.221 39.7078C114.166 39.7118 114.11 39.7033 114.059 39.6827C114.008 39.6621 113.963 39.63 113.926 39.589C113.846 39.4898 113.806 39.3639 113.815 39.2368C113.818 39.0723 113.856 38.9104 113.926 38.7616C113.999 38.5943 114.099 38.4395 114.221 38.3029C114.337 38.1671 114.475 38.0522 114.63 37.963C114.753 37.8836 114.894 37.8383 115.04 37.8319C115.094 37.829 115.149 37.8378 115.2 37.8575C115.25 37.8773 115.296 37.9077 115.335 37.9466C115.415 38.047 115.455 38.1744 115.445 38.3029C115.443 38.4687 115.405 38.6321 115.335 38.7821C115.259 38.9484 115.16 39.1029 115.04 39.2409C114.922 39.3755 114.784 39.4903 114.63 39.5808C114.511 39.6546 114.376 39.6982 114.237 39.7078H114.221ZM114.921 38.8886C114.996 38.7818 115.038 38.6548 115.04 38.5241C115.04 38.4053 115.003 38.3316 114.921 38.2988C114.871 38.2836 114.818 38.2805 114.767 38.2898C114.716 38.299 114.667 38.3204 114.626 38.3521C114.505 38.421 114.404 38.5197 114.331 38.6388C114.258 38.7453 114.217 38.8703 114.212 38.9992C114.212 39.1221 114.253 39.1999 114.331 39.2286C114.381 39.2416 114.434 39.2436 114.485 39.2344C114.535 39.2253 114.584 39.2051 114.626 39.1753C114.75 39.1084 114.857 39.0129 114.937 38.8968L114.921 38.8886Z" fill="black"/>
<path d="M131.489 34.8625C131.489 34.4897 131.227 34.3382 130.903 34.5225L125.509 37.6435C125.339 37.7553 125.197 37.9054 125.095 38.0818C124.993 38.2582 124.935 38.456 124.923 38.6593V43.0213C124.923 43.3982 125.185 43.5497 125.509 43.3613L127.528 42.2022L128.372 43.6603C128.381 43.6822 128.397 43.7009 128.417 43.714C128.437 43.7271 128.46 43.7341 128.484 43.7341C128.508 43.7341 128.532 43.7271 128.552 43.714C128.572 43.7009 128.587 43.6822 128.597 43.6603L129.486 41.0922L130.923 40.273C131.094 40.1613 131.235 40.0112 131.337 39.8348C131.439 39.6584 131.498 39.4606 131.509 39.2573L131.489 34.8625Z" fill="#F5F5F5"/>
<path d="M126.795 39.4376C126.74 39.441 126.685 39.4322 126.634 39.4116C126.583 39.391 126.537 39.3593 126.5 39.3188C126.422 39.2184 126.384 39.0931 126.393 38.9665C126.396 38.7999 126.432 38.6354 126.5 38.4832C126.573 38.3156 126.673 38.1607 126.795 38.0245C126.912 37.8899 127.05 37.7751 127.204 37.6845C127.327 37.6066 127.469 37.5628 127.614 37.5576C127.669 37.5535 127.724 37.5621 127.775 37.5827C127.826 37.6033 127.872 37.6353 127.909 37.6764C127.99 37.7766 128.03 37.9041 128.019 38.0327C128.017 38.1971 127.979 38.3591 127.909 38.5078C127.835 38.6752 127.736 38.83 127.614 38.9665C127.498 39.1023 127.359 39.2173 127.204 39.3065C127.082 39.3859 126.941 39.4311 126.795 39.4376ZM126.66 41.6452C126.661 41.6176 126.669 41.5907 126.684 41.5674L129.027 36.8039C129.043 36.766 129.064 36.7302 129.088 36.6975C129.111 36.6692 129.139 36.6456 129.17 36.6278L129.654 36.3493C129.678 36.3493 129.695 36.3288 129.711 36.3493C129.727 36.3698 129.731 36.3493 129.731 36.3862C129.732 36.4135 129.725 36.4405 129.711 36.464L127.356 41.252C127.341 41.2838 127.323 41.314 127.303 41.3421C127.282 41.3658 127.257 41.3853 127.229 41.3995L126.742 41.6821C126.709 41.6985 126.66 41.6903 126.66 41.6452ZM127.479 38.6225C127.552 38.516 127.593 38.391 127.598 38.2621C127.605 38.2156 127.597 38.1682 127.576 38.1263C127.554 38.0844 127.52 38.0503 127.479 38.0286C127.429 38.0137 127.376 38.0108 127.325 38.02C127.274 38.0293 127.225 38.0505 127.184 38.0818C127.065 38.1522 126.965 38.2506 126.893 38.3686C126.817 38.4767 126.776 38.6051 126.774 38.7372C126.767 38.7825 126.775 38.8289 126.796 38.8695C126.818 38.9101 126.852 38.9427 126.893 38.9624C126.942 38.9773 126.994 38.9802 127.045 38.971C127.095 38.9617 127.143 38.9405 127.184 38.9092C127.311 38.8426 127.418 38.7437 127.495 38.6225H127.479ZM128.781 40.4574C128.726 40.4606 128.671 40.4516 128.621 40.4311C128.57 40.4105 128.524 40.379 128.486 40.3386C128.41 40.2376 128.372 40.1127 128.38 39.9864C128.383 39.8211 128.419 39.6581 128.486 39.5072C128.562 39.3409 128.661 39.1864 128.781 39.0485C128.899 38.915 129.037 38.8016 129.191 38.7126C129.314 38.6344 129.455 38.5893 129.6 38.5815C129.655 38.5778 129.71 38.5862 129.761 38.606C129.812 38.6258 129.858 38.6566 129.895 38.6962C129.976 38.7952 130.015 38.9212 130.006 39.0485C130.004 39.2156 129.966 39.3804 129.895 39.5318C129.82 39.6973 129.721 39.8506 129.6 39.9864C129.484 40.1217 129.345 40.2366 129.191 40.3264C129.072 40.4011 128.937 40.4461 128.798 40.4574H128.781ZM129.486 39.6383C129.56 39.5293 129.601 39.4013 129.605 39.2696C129.61 39.2244 129.602 39.1785 129.581 39.1382C129.56 39.0979 129.526 39.0651 129.486 39.0444C129.435 39.0312 129.382 39.0296 129.33 39.0395C129.278 39.0494 129.229 39.0707 129.187 39.1017C129.068 39.17 128.968 39.2672 128.896 39.3843C128.82 39.4911 128.777 39.6179 128.773 39.7488C128.773 39.8717 128.814 39.9454 128.896 39.9782C128.945 39.9912 128.997 39.9932 129.047 39.984C129.098 39.9748 129.145 39.9546 129.187 39.925C129.312 39.8582 129.42 39.7628 129.502 39.6464L129.486 39.6383Z" fill="#01B6EB"/>
<path opacity="0.4" d="M126.795 39.4376C126.74 39.441 126.685 39.4322 126.634 39.4116C126.583 39.391 126.537 39.3593 126.5 39.3188C126.422 39.2184 126.384 39.0931 126.393 38.9665C126.396 38.7999 126.432 38.6354 126.5 38.4832C126.573 38.3156 126.673 38.1607 126.795 38.0245C126.912 37.8899 127.05 37.7751 127.204 37.6845C127.327 37.6066 127.469 37.5628 127.614 37.5576C127.669 37.5535 127.724 37.5621 127.775 37.5827C127.826 37.6033 127.872 37.6353 127.909 37.6764C127.99 37.7766 128.03 37.9041 128.019 38.0327C128.017 38.1971 127.979 38.3591 127.909 38.5078C127.835 38.6752 127.736 38.83 127.614 38.9665C127.498 39.1023 127.359 39.2173 127.204 39.3065C127.082 39.3859 126.941 39.4311 126.795 39.4376ZM126.66 41.6452C126.661 41.6176 126.669 41.5907 126.684 41.5674L129.027 36.8039C129.043 36.766 129.064 36.7302 129.088 36.6975C129.111 36.6692 129.139 36.6456 129.17 36.6278L129.654 36.3493C129.678 36.3493 129.695 36.3288 129.711 36.3493C129.727 36.3698 129.731 36.3493 129.731 36.3862C129.732 36.4135 129.725 36.4405 129.711 36.464L127.356 41.252C127.341 41.2838 127.323 41.314 127.303 41.3421C127.282 41.3658 127.257 41.3853 127.229 41.3995L126.742 41.6821C126.709 41.6985 126.66 41.6903 126.66 41.6452ZM127.479 38.6225C127.552 38.516 127.593 38.391 127.598 38.2621C127.605 38.2156 127.597 38.1682 127.576 38.1263C127.554 38.0844 127.52 38.0503 127.479 38.0286C127.429 38.0137 127.376 38.0108 127.325 38.02C127.274 38.0293 127.225 38.0505 127.184 38.0818C127.065 38.1522 126.965 38.2506 126.893 38.3686C126.817 38.4767 126.776 38.6051 126.774 38.7372C126.767 38.7825 126.775 38.8289 126.796 38.8695C126.818 38.9101 126.852 38.9427 126.893 38.9624C126.942 38.9773 126.994 38.9802 127.045 38.971C127.095 38.9617 127.143 38.9405 127.184 38.9092C127.311 38.8426 127.418 38.7437 127.495 38.6225H127.479ZM128.781 40.4574C128.726 40.4606 128.671 40.4516 128.621 40.4311C128.57 40.4105 128.524 40.379 128.486 40.3386C128.41 40.2376 128.372 40.1127 128.38 39.9864C128.383 39.8211 128.419 39.6581 128.486 39.5072C128.562 39.3409 128.661 39.1864 128.781 39.0485C128.899 38.915 129.037 38.8016 129.191 38.7126C129.314 38.6344 129.455 38.5893 129.6 38.5815C129.655 38.5778 129.71 38.5862 129.761 38.606C129.812 38.6258 129.858 38.6566 129.895 38.6962C129.976 38.7952 130.015 38.9212 130.006 39.0485C130.004 39.2156 129.966 39.3804 129.895 39.5318C129.82 39.6973 129.721 39.8506 129.6 39.9864C129.484 40.1217 129.345 40.2366 129.191 40.3264C129.072 40.4011 128.937 40.4461 128.798 40.4574H128.781ZM129.486 39.6383C129.56 39.5293 129.601 39.4013 129.605 39.2696C129.61 39.2244 129.602 39.1785 129.581 39.1382C129.56 39.0979 129.526 39.0651 129.486 39.0444C129.435 39.0312 129.382 39.0296 129.33 39.0395C129.278 39.0494 129.229 39.0707 129.187 39.1017C129.068 39.17 128.968 39.2672 128.896 39.3843C128.82 39.4911 128.777 39.6179 128.773 39.7488C128.773 39.8717 128.814 39.9454 128.896 39.9782C128.945 39.9912 128.997 39.9932 129.047 39.984C129.098 39.9748 129.145 39.9546 129.187 39.925C129.312 39.8582 129.42 39.7628 129.502 39.6464L129.486 39.6383Z" fill="black"/>
<path d="M101.61 29.0382C101.61 28.6655 101.347 28.514 101.024 28.7024L95.6296 31.8193C95.4589 31.9315 95.3169 32.0822 95.2151 32.2594C95.1134 32.4365 95.0547 32.6352 95.0439 32.8392V37.2053C95.0439 37.578 95.3061 37.7296 95.6296 37.5412L97.6284 36.3862L98.4722 37.8402C98.4817 37.8621 98.4975 37.8808 98.5175 37.8939C98.5375 37.907 98.5609 37.9139 98.5848 37.9139C98.6087 37.9139 98.6321 37.907 98.6521 37.8939C98.6721 37.8808 98.6879 37.8621 98.6974 37.8402L99.5862 35.2762L101.024 34.457C101.195 34.3463 101.337 34.1964 101.439 34.0198C101.541 33.8432 101.599 33.6449 101.61 33.4413V29.0382Z" fill="#F5F5F5"/>
<path d="M96.9117 33.601C96.8577 33.6046 96.8037 33.5962 96.7534 33.5764C96.7031 33.5565 96.6578 33.5258 96.6209 33.4863C96.544 33.384 96.5063 33.2576 96.5144 33.1299C96.5167 32.9633 96.553 32.7988 96.6209 32.6466C96.6942 32.4812 96.7923 32.3279 96.9117 32.192C97.029 32.0562 97.1672 31.94 97.3213 31.8479C97.4448 31.7716 97.5858 31.7279 97.7308 31.721C97.7858 31.7169 97.841 31.7255 97.8921 31.7461C97.9432 31.7667 97.9889 31.7987 98.0257 31.8397C98.1058 31.9406 98.1452 32.0677 98.1363 32.1961C98.1335 32.3618 98.0959 32.5251 98.0257 32.6753C97.95 32.8416 97.8507 32.9961 97.7308 33.134C97.6134 33.2675 97.4751 33.3809 97.3213 33.4699C97.1988 33.5493 97.0574 33.5945 96.9117 33.601ZM96.7806 35.8086C96.7812 35.7821 96.7897 35.7564 96.8052 35.7349L99.148 30.9673C99.1649 30.9299 99.1854 30.8942 99.2094 30.8608C99.232 30.8326 99.2598 30.809 99.2914 30.7912L99.7747 30.5168C99.7837 30.5127 99.7935 30.5106 99.8033 30.5106C99.8132 30.5106 99.823 30.5127 99.832 30.5168C99.832 30.5168 99.8525 30.5168 99.8525 30.5537C99.8535 30.581 99.8463 30.6081 99.832 30.6315L97.4769 35.4195C97.4622 35.4513 97.4444 35.4814 97.4237 35.5096C97.4042 35.5345 97.3789 35.5542 97.3499 35.567L96.8625 35.8496C96.8093 35.8782 96.7806 35.87 96.7806 35.8209V35.8086ZM97.5998 32.7859C97.6732 32.6797 97.7144 32.5545 97.7186 32.4255C97.7256 32.379 97.7179 32.3315 97.6966 32.2897C97.6753 32.2478 97.6414 32.2137 97.5998 32.192C97.5499 32.1771 97.4972 32.1742 97.446 32.1834C97.3947 32.1927 97.3464 32.2138 97.3049 32.2452C97.186 32.3157 97.0862 32.4141 97.0141 32.5319C96.9383 32.64 96.8969 32.7685 96.8953 32.9006C96.8953 33.0193 96.9322 33.0931 97.0141 33.1258C97.0633 33.1407 97.1153 33.1436 97.1659 33.1344C97.2165 33.1251 97.2641 33.1039 97.3049 33.0726C97.437 33.0066 97.5488 32.9061 97.6285 32.7818L97.5998 32.7859ZM98.9023 34.6208C98.8473 34.6249 98.7921 34.6163 98.741 34.5957C98.6899 34.5751 98.6442 34.5431 98.6074 34.502C98.5305 34.4013 98.4926 34.2762 98.5009 34.1498C98.5043 33.9859 98.5405 33.8244 98.6074 33.6747C98.6811 33.5073 98.7806 33.3525 98.9023 33.2159C99.0185 33.0802 99.157 32.9652 99.3118 32.876C99.4343 32.7966 99.5757 32.7514 99.7214 32.7449C99.7759 32.7421 99.8304 32.7508 99.8812 32.7706C99.932 32.7903 99.9781 32.8207 100.016 32.8596C100.096 32.9607 100.134 33.088 100.123 33.2159C100.122 33.3815 100.086 33.5449 100.016 33.6952C99.9406 33.8614 99.8413 34.016 99.7214 34.1539C99.6039 34.2883 99.4656 34.4031 99.3118 34.4938C99.1943 34.572 99.0592 34.6198 98.9186 34.6331L98.9023 34.6208ZM99.6067 33.8017C99.6803 33.6939 99.7215 33.5675 99.7255 33.4371C99.732 33.3918 99.724 33.3457 99.7026 33.3052C99.6813 33.2648 99.6477 33.2321 99.6067 33.2119C99.5562 33.1966 99.5028 33.1935 99.4509 33.2027C99.3989 33.212 99.3499 33.2334 99.3077 33.2651C99.1882 33.3346 99.0881 33.4332 99.0169 33.5518C98.9412 33.6571 98.8984 33.7826 98.8941 33.9122C98.8941 34.0351 98.935 34.1129 99.0169 34.1416C99.0664 34.1546 99.118 34.1566 99.1683 34.1474C99.2185 34.1382 99.2662 34.118 99.3077 34.0884C99.432 34.0251 99.5399 33.934 99.6231 33.8221L99.6067 33.8017Z" fill="#01B6EB"/>
<path opacity="0.4" d="M96.9117 33.601C96.8577 33.6046 96.8037 33.5962 96.7534 33.5764C96.7031 33.5565 96.6578 33.5258 96.6209 33.4863C96.544 33.384 96.5063 33.2576 96.5144 33.1299C96.5167 32.9633 96.553 32.7988 96.6209 32.6466C96.6942 32.4812 96.7923 32.3279 96.9117 32.192C97.029 32.0562 97.1672 31.94 97.3213 31.8479C97.4448 31.7716 97.5858 31.7279 97.7308 31.721C97.7858 31.7169 97.841 31.7255 97.8921 31.7461C97.9432 31.7667 97.9889 31.7987 98.0257 31.8397C98.1058 31.9406 98.1452 32.0677 98.1363 32.1961C98.1335 32.3618 98.0959 32.5251 98.0257 32.6753C97.95 32.8416 97.8507 32.9961 97.7308 33.134C97.6134 33.2675 97.4751 33.3809 97.3213 33.4699C97.1988 33.5493 97.0574 33.5945 96.9117 33.601ZM96.7806 35.8086C96.7812 35.7821 96.7897 35.7564 96.8052 35.7349L99.148 30.9673C99.1649 30.9299 99.1854 30.8942 99.2094 30.8608C99.232 30.8326 99.2598 30.809 99.2914 30.7912L99.7747 30.5168C99.7837 30.5127 99.7935 30.5106 99.8033 30.5106C99.8132 30.5106 99.823 30.5127 99.832 30.5168C99.832 30.5168 99.8525 30.5168 99.8525 30.5537C99.8535 30.581 99.8463 30.6081 99.832 30.6315L97.4769 35.4195C97.4622 35.4513 97.4444 35.4814 97.4237 35.5096C97.4042 35.5345 97.3789 35.5542 97.3499 35.567L96.8625 35.8496C96.8093 35.8782 96.7806 35.87 96.7806 35.8209V35.8086ZM97.5998 32.7859C97.6732 32.6797 97.7144 32.5545 97.7186 32.4255C97.7256 32.379 97.7179 32.3315 97.6966 32.2897C97.6753 32.2478 97.6414 32.2137 97.5998 32.192C97.5499 32.1771 97.4972 32.1742 97.446 32.1834C97.3947 32.1927 97.3464 32.2138 97.3049 32.2452C97.186 32.3157 97.0862 32.4141 97.0141 32.5319C96.9383 32.64 96.8969 32.7685 96.8953 32.9006C96.8953 33.0193 96.9322 33.0931 97.0141 33.1258C97.0633 33.1407 97.1153 33.1436 97.1659 33.1344C97.2165 33.1251 97.2641 33.1039 97.3049 33.0726C97.437 33.0066 97.5488 32.9061 97.6285 32.7818L97.5998 32.7859ZM98.9023 34.6208C98.8473 34.6249 98.7921 34.6163 98.741 34.5957C98.6899 34.5751 98.6442 34.5431 98.6074 34.502C98.5305 34.4013 98.4926 34.2762 98.5009 34.1498C98.5043 33.9859 98.5405 33.8244 98.6074 33.6747C98.6811 33.5073 98.7806 33.3525 98.9023 33.2159C99.0185 33.0802 99.157 32.9652 99.3118 32.876C99.4343 32.7966 99.5757 32.7514 99.7214 32.7449C99.7759 32.7421 99.8304 32.7508 99.8812 32.7706C99.932 32.7903 99.9781 32.8207 100.016 32.8596C100.096 32.9607 100.134 33.088 100.123 33.2159C100.122 33.3815 100.086 33.5449 100.016 33.6952C99.9406 33.8614 99.8413 34.016 99.7214 34.1539C99.6039 34.2883 99.4656 34.4031 99.3118 34.4938C99.1943 34.572 99.0592 34.6198 98.9186 34.6331L98.9023 34.6208ZM99.6067 33.8017C99.6803 33.6939 99.7215 33.5675 99.7255 33.4371C99.732 33.3918 99.724 33.3457 99.7026 33.3052C99.6813 33.2648 99.6477 33.2321 99.6067 33.2119C99.5562 33.1966 99.5028 33.1935 99.4509 33.2027C99.3989 33.212 99.3499 33.2334 99.3077 33.2651C99.1882 33.3346 99.0881 33.4332 99.0169 33.5518C98.9412 33.6571 98.8984 33.7826 98.8941 33.9122C98.8941 34.0351 98.935 34.1129 99.0169 34.1416C99.0664 34.1546 99.118 34.1566 99.1683 34.1474C99.2185 34.1382 99.2662 34.118 99.3077 34.0884C99.432 34.0251 99.5399 33.934 99.6231 33.8221L99.6067 33.8017Z" fill="black"/>
<path d="M82.0274 52.2862C82.0274 51.9134 81.7653 51.7619 81.4417 51.9462L76.0475 55.0672C75.8767 55.1794 75.7347 55.3301 75.633 55.5073C75.5312 55.6845 75.4726 55.8831 75.4618 56.0871V60.4492C75.4618 60.826 75.7239 60.9775 76.0475 60.7891L78.0504 59.6341L78.89 61.0881C78.9021 61.109 78.92 61.1261 78.9414 61.1373C78.9629 61.1484 78.9871 61.1532 79.0112 61.151C79.0353 61.1489 79.0583 61.1399 79.0775 61.1251C79.0966 61.1103 79.1112 61.0904 79.1194 61.0676L80.0082 58.4995L81.4417 57.6804C81.6124 57.5691 81.7544 57.4191 81.8562 57.2426C81.958 57.0661 82.0166 56.8681 82.0274 56.6646V52.2862Z" fill="#F5F5F5"/>
<path d="M77.3336 56.8611C77.2792 56.8655 77.2246 56.857 77.1741 56.8364C77.1235 56.8158 77.0786 56.7835 77.0428 56.7423C76.9634 56.6429 76.9253 56.5168 76.9363 56.3901C76.9366 56.2232 76.9729 56.0584 77.0428 55.9068C77.1156 55.7398 77.2136 55.5851 77.3336 55.4481C77.4503 55.3127 77.5887 55.1978 77.7432 55.1081C77.866 55.0302 78.0074 54.9863 78.1528 54.9811C78.2077 54.9771 78.2629 54.9857 78.314 55.0062C78.3652 55.0268 78.4109 55.0589 78.4477 55.0999C78.5284 55.2004 78.5679 55.3277 78.5583 55.4562C78.5555 55.6207 78.5178 55.7826 78.4477 55.9314C78.373 56.0995 78.2736 56.2555 78.1528 56.3942C78.0354 56.5276 77.897 56.6411 77.7432 56.7301C77.6202 56.8082 77.4791 56.8534 77.3336 56.8611ZM77.2025 59.0688C77.204 59.0417 77.211 59.0152 77.223 58.991L79.5658 54.2275C79.5817 54.1896 79.6024 54.1538 79.6273 54.121C79.6508 54.0937 79.6784 54.0702 79.7092 54.0514L80.1925 53.7729C80.211 53.7663 80.2313 53.7663 80.2498 53.7729C80.2578 53.7748 80.2647 53.7797 80.2693 53.7865C80.2738 53.7933 80.2757 53.8016 80.2744 53.8097C80.2733 53.8374 80.2648 53.8643 80.2498 53.8875L77.8988 58.6756C77.8784 58.7165 77.8579 58.7452 77.8456 58.7657C77.8225 58.7884 77.7963 58.8077 77.7678 58.823L77.2804 59.1056C77.2271 59.122 77.2025 59.1179 77.2025 59.0688ZM78.0217 56.046C78.0935 55.9393 78.1333 55.8142 78.1364 55.6856C78.1364 55.5627 78.0995 55.4849 78.0217 55.4522C77.9718 55.4373 77.9191 55.4343 77.8679 55.4436C77.8167 55.4528 77.7683 55.474 77.7268 55.5054C77.6057 55.5743 77.5042 55.673 77.4319 55.7921C77.3578 55.9011 77.3166 56.029 77.3131 56.1607C77.3067 56.206 77.3147 56.2522 77.336 56.2926C77.3573 56.3331 77.3909 56.3658 77.4319 56.386C77.4818 56.4009 77.5345 56.4038 77.5857 56.3946C77.6369 56.3853 77.6853 56.3641 77.7268 56.3328C77.8529 56.2647 77.96 56.1662 78.0381 56.046H78.0217ZM79.3242 57.881C79.2693 57.8841 79.2144 57.8751 79.1634 57.8546C79.1124 57.8341 79.0666 57.8025 79.0293 57.7622C78.9499 57.6626 78.9105 57.537 78.9187 57.41C78.9214 57.2455 78.9591 57.0836 79.0293 56.9348C79.104 56.7667 79.2034 56.6107 79.3242 56.472C79.4423 56.3393 79.5805 56.226 79.7338 56.1362C79.8568 56.058 79.9978 56.0129 80.1433 56.0051C80.1979 56.0014 80.2526 56.0098 80.3036 56.0296C80.3545 56.0494 80.4005 56.0802 80.4382 56.1198C80.5194 56.22 80.5589 56.3476 80.5488 56.4761C80.5466 56.6419 80.5088 56.8053 80.4382 56.9553C80.3634 57.1209 80.264 57.2741 80.1433 57.41C80.0278 57.5464 79.8892 57.6615 79.7338 57.7499C79.6161 57.8266 79.4807 57.8717 79.3406 57.881H79.3242ZM80.0246 57.0618C80.0986 56.9528 80.1399 56.8249 80.1433 56.6932C80.1492 56.648 80.1409 56.6021 80.1196 56.5617C80.0984 56.5214 80.0652 56.4886 80.0246 56.4679C79.9736 56.4548 79.9203 56.4531 79.8686 56.4631C79.8169 56.473 79.7681 56.4942 79.7256 56.5253C79.6077 56.5952 79.508 56.692 79.4348 56.8079C79.3606 56.9153 79.3193 57.0419 79.316 57.1724C79.316 57.2953 79.3529 57.369 79.4348 57.4018C79.4842 57.4148 79.5358 57.4167 79.5861 57.4075C79.6364 57.3983 79.684 57.3782 79.7256 57.3485C79.8511 57.2817 79.9592 57.1863 80.041 57.07L80.0246 57.0618Z" fill="#01B6EB"/>
<path opacity="0.4" d="M77.3336 56.8611C77.2792 56.8655 77.2246 56.857 77.1741 56.8364C77.1235 56.8158 77.0786 56.7835 77.0428 56.7423C76.9634 56.6429 76.9253 56.5168 76.9363 56.3901C76.9366 56.2232 76.9729 56.0584 77.0428 55.9068C77.1156 55.7398 77.2136 55.5851 77.3336 55.4481C77.4503 55.3127 77.5887 55.1978 77.7432 55.1081C77.866 55.0302 78.0074 54.9863 78.1528 54.9811C78.2077 54.9771 78.2629 54.9857 78.314 55.0062C78.3652 55.0268 78.4109 55.0589 78.4477 55.0999C78.5284 55.2004 78.5679 55.3277 78.5583 55.4562C78.5555 55.6207 78.5178 55.7826 78.4477 55.9314C78.373 56.0995 78.2736 56.2555 78.1528 56.3942C78.0354 56.5276 77.897 56.6411 77.7432 56.7301C77.6202 56.8082 77.4791 56.8534 77.3336 56.8611ZM77.2025 59.0688C77.204 59.0417 77.211 59.0152 77.223 58.991L79.5658 54.2275C79.5817 54.1896 79.6024 54.1538 79.6273 54.121C79.6508 54.0937 79.6784 54.0702 79.7092 54.0514L80.1925 53.7729C80.211 53.7663 80.2313 53.7663 80.2498 53.7729C80.2578 53.7748 80.2647 53.7797 80.2693 53.7865C80.2738 53.7933 80.2757 53.8016 80.2744 53.8097C80.2733 53.8374 80.2648 53.8643 80.2498 53.8875L77.8988 58.6756C77.8784 58.7165 77.8579 58.7452 77.8456 58.7657C77.8225 58.7884 77.7963 58.8077 77.7678 58.823L77.2804 59.1056C77.2271 59.122 77.2025 59.1179 77.2025 59.0688ZM78.0217 56.046C78.0935 55.9393 78.1333 55.8142 78.1364 55.6856C78.1364 55.5627 78.0995 55.4849 78.0217 55.4522C77.9718 55.4373 77.9191 55.4343 77.8679 55.4436C77.8167 55.4528 77.7683 55.474 77.7268 55.5054C77.6057 55.5743 77.5042 55.673 77.4319 55.7921C77.3578 55.9011 77.3166 56.029 77.3131 56.1607C77.3067 56.206 77.3147 56.2522 77.336 56.2926C77.3573 56.3331 77.3909 56.3658 77.4319 56.386C77.4818 56.4009 77.5345 56.4038 77.5857 56.3946C77.6369 56.3853 77.6853 56.3641 77.7268 56.3328C77.8529 56.2647 77.96 56.1662 78.0381 56.046H78.0217ZM79.3242 57.881C79.2693 57.8841 79.2144 57.8751 79.1634 57.8546C79.1124 57.8341 79.0666 57.8025 79.0293 57.7622C78.9499 57.6626 78.9105 57.537 78.9187 57.41C78.9214 57.2455 78.9591 57.0836 79.0293 56.9348C79.104 56.7667 79.2034 56.6107 79.3242 56.472C79.4423 56.3393 79.5805 56.226 79.7338 56.1362C79.8568 56.058 79.9978 56.0129 80.1433 56.0051C80.1979 56.0014 80.2526 56.0098 80.3036 56.0296C80.3545 56.0494 80.4005 56.0802 80.4382 56.1198C80.5194 56.22 80.5589 56.3476 80.5488 56.4761C80.5466 56.6419 80.5088 56.8053 80.4382 56.9553C80.3634 57.1209 80.264 57.2741 80.1433 57.41C80.0278 57.5464 79.8892 57.6615 79.7338 57.7499C79.6161 57.8266 79.4807 57.8717 79.3406 57.881H79.3242ZM80.0246 57.0618C80.0986 56.9528 80.1399 56.8249 80.1433 56.6932C80.1492 56.648 80.1409 56.6021 80.1196 56.5617C80.0984 56.5214 80.0652 56.4886 80.0246 56.4679C79.9736 56.4548 79.9203 56.4531 79.8686 56.4631C79.8169 56.473 79.7681 56.4942 79.7256 56.5253C79.6077 56.5952 79.508 56.692 79.4348 56.8079C79.3606 56.9153 79.3193 57.0419 79.316 57.1724C79.316 57.2953 79.3529 57.369 79.4348 57.4018C79.4842 57.4148 79.5358 57.4167 79.5861 57.4075C79.6364 57.3983 79.684 57.3782 79.7256 57.3485C79.8511 57.2817 79.9592 57.1863 80.041 57.07L80.0246 57.0618Z" fill="black"/>
<path d="M77.1821 93.0641L81.1345 90.7828C81.7121 90.451 82.1749 90.5944 82.1749 91.1023C82.1322 91.4192 82.0158 91.7217 81.8351 91.9856C81.6545 92.2494 81.4145 92.4673 81.1345 92.6218L77.1862 94.9032C76.6086 95.2349 76.1417 95.0916 76.1417 94.5837C76.1863 94.2674 76.3034 93.9656 76.4838 93.702C76.6643 93.4384 76.9033 93.2201 77.1821 93.0641Z" fill="#F5F5F5"/>
<path d="M96.838 81.7147L100.79 79.4333C101.364 79.1015 101.831 79.2449 101.831 79.7528C101.786 80.0691 101.669 80.3708 101.489 80.6344C101.308 80.898 101.069 81.1163 100.79 81.2723L96.838 83.5701C96.2645 83.9018 95.7976 83.7585 95.7976 83.2506C95.8404 82.9316 95.9566 82.6268 96.1371 82.3603C96.3177 82.0938 96.5575 81.8728 96.838 81.7147Z" fill="#F5F5F5"/>
<path d="M111.857 73.0561L115.81 70.7747C116.383 70.443 116.85 70.5863 116.85 71.0942C116.806 71.4105 116.689 71.7123 116.508 71.9759C116.328 72.2395 116.089 72.4578 115.81 72.6137L111.857 74.8951C111.284 75.2269 110.817 75.0876 110.817 74.5797C110.861 74.2628 110.978 73.9603 111.159 73.696C111.339 73.4317 111.578 73.2127 111.857 73.0561Z" fill="#F5F5F5"/>
<path d="M126.651 64.504L130.604 62.2226C131.181 61.8908 131.648 62.0301 131.644 62.538C131.602 62.8556 131.486 63.159 131.305 63.4236C131.125 63.6882 130.884 63.9068 130.604 64.0616L126.656 66.343C126.078 66.6748 125.611 66.5314 125.611 66.0235C125.656 65.7072 125.773 65.4055 125.953 65.1419C126.134 64.8783 126.373 64.66 126.651 64.504Z" fill="#F5F5F5"/>
<path d="M154.151 42.0671C153.139 41.9934 151.734 41.9893 150.346 44.2583C148.957 46.5274 145.185 52.7695 145.185 52.7695L147.643 54.4324L151.943 48.391C151.943 48.391 152.353 43.5621 153.147 42.8862C153.942 42.2104 154.151 42.0671 154.151 42.0671Z" fill="#9A4A4D"/>
<path d="M157.558 87.7557L155.252 88.5026L156.338 91.8576L158.645 91.1107L157.558 87.7557Z" fill="#B16668"/>
<path d="M155.875 90.3979C155.89 90.673 155.82 90.946 155.675 91.1802C155.307 91.7907 154.875 92.3593 154.384 92.8758C153.692 93.6172 152.656 94.5142 151.927 95.1408C151.517 95.5013 151.497 96.046 152.087 96.2344C153.184 96.5041 154.344 96.3429 155.326 95.7839C156.064 95.3743 157.112 93.5639 157.722 93.2854C158.427 92.9701 158.824 92.8103 159.062 92.4663C159.242 92.2815 159.354 92.0412 159.38 91.7847C159.406 91.5282 159.344 91.2704 159.205 91.0532C158.873 90.4347 158.386 89.4845 158.169 89.591L158.23 89.7835C158.071 90.2873 156.698 90.873 155.994 90.7337L155.875 90.3979Z" fill="#263238"/>
<path d="M158.222 89.8039C157.571 89.6032 157.374 89.9473 156.67 89.8039L155.875 90.3978C155.892 90.6731 155.822 90.9467 155.674 91.1801C155.307 91.7906 154.875 92.3592 154.384 92.8758C154.044 93.2362 153.627 93.6294 153.205 94.0144C152.865 94.5469 153.999 94.7025 154.626 94.5223C155.314 94.2763 155.907 93.8207 156.322 93.2198C156.776 92.6218 158.013 91.2333 158.198 90.7623C158.33 90.4582 158.339 90.1144 158.222 89.8039Z" fill="#B16668"/>
<path d="M165.971 55.8823C165.635 53.4248 164.882 50.5577 163.891 46.1465C163.534 44.5532 163.071 43.1156 161.933 42.6732C161.933 42.6732 158.808 43.9593 158.808 46.2694C158.808 48.5794 161.335 49.7631 161.335 49.7631L162.777 54.7354L165.062 57.5083C165.393 57.4048 165.671 57.1786 165.84 56.8762C166.009 56.5738 166.056 56.2182 165.971 55.8823Z" fill="#B16668"/>
<path d="M161.089 93.228H158.734V96.6562H161.089V93.228Z" fill="#B16668"/>
<path d="M162.863 58.2825C163.797 62.28 162.887 67.6742 162.568 71.0369C162.257 74.3136 161.872 78.1432 161.872 78.1432C161.872 78.1432 162.875 81.6041 162.826 84.2869C162.777 87.1212 161.118 93.9449 161.118 93.9449C160.758 94.1768 160.338 94.3002 159.91 94.3002C159.481 94.3002 159.062 94.1768 158.701 93.9449C158.701 93.9449 158.292 88.2107 157.882 84.9668C157.473 81.5673 157.342 79.0934 156.993 77.1069C156.555 74.6494 155.822 64.1723 155.822 64.1723L154.56 74.5593C155.317 75.8037 155.906 77.1422 156.313 78.5405C156.83 80.5515 157.952 88.5343 157.952 88.5343C157.25 89.1634 156.347 89.522 155.404 89.546C155.404 89.546 150.358 77.5575 149.67 76.3615C148.933 75.0877 148.822 61.1373 149.998 57.6436L162.863 58.2825Z" fill="#455A64"/>
<path d="M158.55 42.1203C158.55 42.1203 161.531 42.493 161.933 42.6732C158.808 44.8727 161.335 49.7631 161.335 49.7631L159.824 53.9286L162.859 58.2701C161.986 59.2777 156.436 62.7756 150.481 58.9419C150.601 56.9193 150.835 54.9051 151.181 52.9087C150.321 48.8129 150.231 47.5063 150.481 46.5438C151.181 43.8365 152.783 42.108 154.622 42.0056L158.55 42.1203Z" fill="#01B6EB"/>
<path opacity="0.7" d="M158.55 42.1203C158.55 42.1203 161.531 42.493 161.933 42.6732C158.808 44.8727 161.335 49.7631 161.335 49.7631L159.824 53.9286L162.859 58.2701C161.986 59.2777 156.436 62.7756 150.481 58.9419C150.601 56.9193 150.835 54.9051 151.181 52.9087C150.321 48.8129 150.231 47.5063 150.481 46.5438C151.181 43.8365 152.783 42.108 154.622 42.0056L158.55 42.1203Z" fill="white"/>
<path d="M143.444 49.4478L153.602 52.1264L156.6 64.7334L146.942 61.9277L143.444 49.4478Z" fill="#01B6EB"/>
<path d="M147.872 57.7909C147.778 58.0489 147.225 58.7616 146.041 58.7084L145.894 58.1841L147.872 57.7909Z" fill="#01B6EB"/>
<path opacity="0.2" d="M147.872 57.7909C147.778 58.0489 147.225 58.7616 146.041 58.7084L145.894 58.1841L147.872 57.7909Z" fill="black"/>
<path d="M150.145 58.1759C150.186 58.5118 150.878 59.1343 152.046 59.5234C153.377 59.9699 155.412 59.7323 155.412 59.7323L155.232 59.1057L150.145 58.1759Z" fill="#01B6EB"/>
<path opacity="0.2" d="M150.145 58.1759C150.186 58.5118 150.878 59.1343 152.046 59.5234C153.377 59.9699 155.412 59.7323 155.412 59.7323L155.232 59.1057L150.145 58.1759Z" fill="black"/>
<path d="M146.418 51.2745L146.336 50.8895C146.287 50.6725 146.885 50.6643 147.667 50.865L149.162 51.2541C149.944 51.4589 150.616 51.7947 150.661 52.0077L150.747 52.3968L146.418 51.2745Z" fill="#01B6EB"/>
<path opacity="0.3" d="M146.418 51.2745L146.336 50.8895C146.287 50.6725 146.885 50.6643 147.667 50.865L149.162 51.2541C149.944 51.4589 150.616 51.7947 150.661 52.0077L150.747 52.3968L146.418 51.2745Z" fill="black"/>
<path d="M145.713 49.8123C145.685 49.6813 145.926 49.6444 146.254 49.7345L146.848 49.8983C146.848 49.8983 146.668 49.0792 147.987 49.3536C148.337 49.4027 148.669 49.5416 148.949 49.757C149.23 49.9723 149.45 50.2567 149.588 50.5823L150.219 50.7626C150.571 50.8609 150.886 51.0493 150.927 51.1721L151.001 51.4138L145.771 50.0376C145.771 50.0376 145.742 49.9475 145.713 49.8123Z" fill="#455A64"/>
<path d="M146.434 50.23C146.913 50.3488 147.114 50.4103 147.184 50.742C147.253 51.0738 147.298 51.3933 147.298 51.3933L149.617 52.0076C149.617 52.0076 149.506 51.5284 149.469 51.3441C149.432 51.1598 149.51 51.0451 149.879 51.1434L149.912 50.996L146.283 50.0703L146.434 50.23Z" fill="#455A64"/>
<path d="M146.369 51.3114C146.369 51.3114 146.332 51.1394 146.283 50.9018C146.234 50.6643 146.832 50.6806 147.614 50.9018L149.113 51.2909C149.895 51.4957 150.563 51.8316 150.612 52.0445L150.694 52.4337L146.369 51.3114Z" fill="#455A64"/>
<path d="M165.062 57.5083L162.777 54.7355C162.777 54.7355 157.632 56.894 156.821 56.9554C156.01 57.0168 155.384 56.2223 155.072 55.4318C154.761 54.6413 154.147 54.7396 154.147 54.7396C154.147 54.7396 154.388 55.743 154.462 56.0666C154.536 56.3902 152.68 56.6482 151.595 56.2837C150.51 55.9192 148.965 56.4475 149.932 57.922C150.899 59.3965 152.766 59.5604 154.069 59.5604C154.617 59.5563 155.164 59.5193 155.707 59.4498C156.117 59.3965 156.526 59.3515 156.973 59.3228C159.631 59.118 163.85 57.8852 165.062 57.5083Z" fill="#B16668"/>
<path d="M144.477 53.134L144.927 54.7437C145.017 55.0509 146.197 55.6161 146.942 55.8209C147.688 56.0257 148.507 56.2673 148.171 57.3117C147.843 58.2743 146.615 58.4954 145.988 58.4668C145.361 58.4381 144.509 57.8442 144.169 56.8776C143.76 55.6488 143.973 54.3382 143.801 53.6009C143.629 52.8637 144.104 52.708 144.477 53.134Z" fill="#B16668"/>
<path d="M158.734 95.4972V95.1572C158.443 96.2715 157.862 97.2889 157.051 98.1062C156.305 98.7861 155.294 99.5684 155.036 100.322C154.778 101.076 156.232 101.42 157.194 101.326C158.126 101.208 158.984 100.759 159.611 100.06C160.221 99.3595 160.209 98.8803 160.495 98.4953C160.782 98.1103 161.437 97.6762 161.593 97.2297C161.639 96.8152 161.593 96.3956 161.458 96.001C161.347 95.5914 161.228 95.1286 161.089 95.1818V95.4398C160.754 95.7068 160.338 95.8513 159.91 95.8494C159.566 95.8289 158.73 95.7593 158.734 95.4972Z" fill="#263238"/>
<path d="M161.089 95.4152C160.917 95.6036 160.831 95.1408 160.299 95.1572C159.955 95.1572 159.377 95.4193 159.377 95.1572H158.734C158.443 96.2714 157.862 97.2888 157.051 98.1062C156.87 98.27 156.678 98.4379 156.481 98.6099C156.072 99.0523 156.199 99.4291 157.128 99.5151C158.058 99.6011 158.873 99.0359 159.586 98.1717C160.181 97.3071 160.684 96.3834 161.089 95.4152Z" fill="#B16668"/>
<path d="M156.51 40.1052H155.953C154.53 40.1052 153.165 39.5399 152.159 38.5337C151.153 37.5275 150.587 36.1627 150.587 34.7397V34.1949C150.587 32.9859 151.068 31.8264 151.923 30.9715C152.778 30.1166 153.937 29.6363 155.146 29.6363H157.341C158.551 29.6363 159.71 30.1166 160.565 30.9715C161.42 31.8264 161.9 32.9859 161.9 34.1949V34.711C161.9 36.1409 161.332 37.5124 160.322 38.5239C159.311 39.5353 157.94 40.1041 156.51 40.1052Z" fill="#263238"/>
<path d="M152.447 31.9258C151.849 32.278 151.112 33.7812 151.185 36.9309C151.247 39.6014 152.111 40.2608 152.545 40.4533C152.979 40.6458 153.819 40.527 154.634 40.3919V41.9933C154.634 41.9933 153.508 43.304 153.581 44.0412C153.655 44.7785 155.22 44.9505 156.26 44.2296C157.022 43.6398 157.678 42.9252 158.202 42.1162L158.181 38.43C158.181 38.43 158.66 38.8969 159.475 38.1842C160.147 37.5985 160.372 36.6073 159.848 36.079C159.713 35.9524 159.549 35.86 159.371 35.8091C159.193 35.7583 159.006 35.7505 158.824 35.7866C158.642 35.8226 158.472 35.9013 158.326 36.0162C158.181 36.1312 158.065 36.279 157.989 36.4476C156.919 36.4042 155.877 36.0944 154.958 35.5465C154.285 35.1818 153.707 34.6641 153.271 34.0352C152.835 33.4063 152.553 32.6838 152.447 31.9258Z" fill="#B16668"/>
<path d="M154.151 36.2632C154.148 36.3079 154.153 36.3528 154.167 36.3953C154.181 36.4379 154.203 36.4772 154.233 36.5111C154.262 36.5449 154.298 36.5727 154.338 36.5927C154.378 36.6127 154.422 36.6247 154.466 36.6278C154.558 36.63 154.647 36.596 154.713 36.5331C154.78 36.4702 154.819 36.3835 154.823 36.2919C154.826 36.2028 154.795 36.1159 154.734 36.0502C154.704 36.0177 154.669 35.9914 154.628 35.9728C154.588 35.9541 154.545 35.9436 154.501 35.9417C154.412 35.9379 154.325 35.9696 154.259 36.0299C154.194 36.0902 154.155 36.1742 154.151 36.2632Z" fill="#263238"/>
<path d="M154.077 38.516L153.299 38.7658C153.329 38.8692 153.399 38.9564 153.494 39.0085C153.588 39.0607 153.699 39.0735 153.803 39.0444C153.856 39.029 153.906 39.003 153.949 38.9677C153.993 38.9325 154.028 38.8888 154.054 38.8393C154.079 38.7898 154.095 38.7356 154.099 38.6801C154.103 38.6245 154.095 38.5686 154.077 38.516Z" fill="#9A4A4D"/>
<path d="M151.415 35.2393L152.095 34.7683C152.035 34.6785 151.942 34.6161 151.836 34.5946C151.73 34.5731 151.62 34.5943 151.529 34.6536C151.482 34.6834 151.441 34.7225 151.41 34.7686C151.378 34.8147 151.356 34.8668 151.346 34.9217C151.335 34.9765 151.335 35.033 151.347 35.0877C151.359 35.1423 151.382 35.1939 151.415 35.2393Z" fill="#263238"/>
<path d="M151.57 36.0175C151.57 36.0834 151.588 36.1481 151.624 36.2034C151.66 36.2588 151.711 36.3024 151.771 36.3288C151.832 36.3553 151.899 36.3634 151.963 36.3522C152.028 36.341 152.089 36.3109 152.137 36.2657C152.185 36.2205 152.218 36.1623 152.233 36.0981C152.248 36.034 152.244 35.9668 152.221 35.905C152.199 35.8432 152.158 35.7895 152.105 35.7505C152.052 35.7115 151.988 35.689 151.923 35.6858C151.878 35.6841 151.833 35.6914 151.791 35.7073C151.749 35.7231 151.71 35.7472 151.677 35.778C151.644 35.8089 151.618 35.846 151.6 35.8871C151.581 35.9282 151.572 35.9725 151.57 36.0175Z" fill="#263238"/>
<path d="M153.156 35.8291L153.102 37.8483L152.037 37.5166L153.156 35.8291Z" fill="#9A4A4D"/>
<path d="M154.634 40.3919C155.494 40.2772 157.26 39.7693 157.534 39.073C157.424 39.427 157.208 39.7388 156.916 39.9659C156.387 40.4164 154.634 40.9243 154.634 40.9243V40.3919Z" fill="#9A4A4D"/>
<path d="M160.716 51.467L158.365 54.6536L159.824 53.9286L160.716 51.467Z" fill="#01B6EB"/>
<path opacity="0.3" d="M160.716 51.467L158.365 54.6536L159.824 53.9286L160.716 51.467Z" fill="white"/>
</svg>
